G04 #@! TF.FileFunction,Copper,L1,Top,Signal*
%FSLAX46Y46*%
G04 Gerber Fmt 4.6, Leading zero omitted, Abs format (unit mm)*
G04 Created by KiCad (PCBNEW 4.0.2-stable) date Сб 01 окт 2016 22:47:06*
%MOMM*%
G01*
G04 APERTURE LIST*
%ADD10C,0.100000*%
%ADD11R,1.300000X1.300000*%
%ADD12C,1.300000*%
%ADD13O,3.014980X1.506220*%
%ADD14O,1.506220X3.014980*%
%ADD15C,1.998980*%
%ADD16R,1.400000X1.400000*%
%ADD17C,1.400000*%
%ADD18O,1.600000X2.300000*%
%ADD19R,2.000000X1.900000*%
%ADD20C,1.900000*%
%ADD21C,2.499360*%
%ADD22R,2.235200X2.235200*%
%ADD23O,2.300000X1.600000*%
%ADD24C,1.524000*%
G04 APERTURE END LIST*
D10*
D11*
X134772400Y-155448000D03*
D12*
X134772400Y-152948000D03*
D11*
X132334000Y-155448000D03*
D12*
X132334000Y-152948000D03*
D11*
X129692400Y-152958800D03*
D12*
X129692400Y-155458800D03*
D11*
X133299200Y-135788400D03*
D12*
X133299200Y-133288400D03*
D11*
X124079000Y-153479500D03*
D12*
X121579000Y-153479500D03*
D11*
X127609600Y-135813800D03*
D12*
X127609600Y-133313800D03*
D11*
X119316500Y-153479500D03*
D12*
X116816500Y-153479500D03*
D11*
X125069600Y-135813800D03*
D12*
X125069600Y-133313800D03*
D11*
X133604000Y-124714000D03*
D12*
X133604000Y-127214000D03*
D11*
X114300000Y-155346400D03*
D12*
X114300000Y-152846400D03*
D11*
X109270800Y-155956000D03*
D12*
X111770800Y-155956000D03*
D11*
X109270800Y-153416000D03*
D12*
X111770800Y-153416000D03*
D11*
X106476800Y-134061200D03*
D12*
X106476800Y-136561200D03*
D11*
X118719600Y-127812800D03*
D12*
X118719600Y-125312800D03*
D11*
X125120400Y-124815600D03*
D12*
X125120400Y-127315600D03*
D11*
X113842800Y-120243600D03*
D12*
X108842800Y-120243600D03*
D13*
X94170500Y-156502100D03*
X94170500Y-153962100D03*
D14*
X130657600Y-127050800D03*
X128117600Y-127050800D03*
D13*
X103479600Y-124206000D03*
X103479600Y-126746000D03*
D15*
X127203200Y-122326400D03*
X117043200Y-122326400D03*
X121920000Y-135445500D03*
X121920000Y-125285500D03*
D16*
X117652800Y-135737600D03*
D17*
X117652800Y-130737600D03*
D18*
X131826000Y-140525500D03*
X129286000Y-140525500D03*
X126746000Y-140525500D03*
X124206000Y-140525500D03*
X121666000Y-140525500D03*
X119126000Y-140525500D03*
X116586000Y-140525500D03*
X114046000Y-140525500D03*
X111506000Y-140525500D03*
X111506000Y-148145500D03*
X114046000Y-148145500D03*
X116586000Y-148145500D03*
X119126000Y-148145500D03*
X121666000Y-148145500D03*
X124206000Y-148145500D03*
X126746000Y-148145500D03*
X129286000Y-148145500D03*
X131826000Y-148145500D03*
D19*
X94107000Y-160185100D03*
D20*
X94107000Y-162725100D03*
D15*
X99631500Y-152565100D03*
X99631500Y-162725100D03*
D11*
X105105200Y-143408400D03*
D12*
X105105200Y-145908400D03*
D21*
X117642640Y-156972000D03*
X122641360Y-156972000D03*
X114767360Y-127762000D03*
X109768640Y-127762000D03*
D15*
X132394960Y-114808000D03*
X127393700Y-114808000D03*
X127378460Y-114820700D03*
X122377200Y-114820700D03*
X108447840Y-114808000D03*
X113449100Y-114808000D03*
X113426240Y-114808000D03*
X118427500Y-114808000D03*
D16*
X126593600Y-157886400D03*
D17*
X126593600Y-152886400D03*
D16*
X130454400Y-135737600D03*
D17*
X130454400Y-130737600D03*
D16*
X109016800Y-135686800D03*
D17*
X114016800Y-135686800D03*
D22*
X120192800Y-161493200D03*
D11*
X97231200Y-127609600D03*
D12*
X94731200Y-127609600D03*
D11*
X87884000Y-118211600D03*
D12*
X87884000Y-120711600D03*
D14*
X104038400Y-114960400D03*
X101498400Y-114960400D03*
D15*
X87884000Y-114960400D03*
X98044000Y-114960400D03*
D23*
X92303600Y-133604000D03*
X92303600Y-136144000D03*
X92303600Y-138684000D03*
X92303600Y-141224000D03*
X99923600Y-141224000D03*
X99923600Y-138684000D03*
X99923600Y-136144000D03*
X99923600Y-133604000D03*
D24*
X95758000Y-148310600D03*
X98298000Y-148310600D03*
X93218000Y-148310600D03*
D11*
X95961200Y-121716800D03*
D12*
X93961200Y-121716800D03*
D11*
X86207600Y-135585200D03*
D12*
X86207600Y-138085200D03*
D11*
X86207600Y-140411200D03*
D12*
X86207600Y-142911200D03*
D15*
X86156800Y-145796000D03*
X86156800Y-155956000D03*
D13*
X86207600Y-127254000D03*
X86207600Y-129794000D03*
M02*
