G04 #@! TF.FileFunction,Legend,Top*
%FSLAX46Y46*%
G04 Gerber Fmt 4.6, Leading zero omitted, Abs format (unit mm)*
G04 Created by KiCad (PCBNEW 4.0.2-stable) date Сб 01 окт 2016 22:47:06*
%MOMM*%
G01*
G04 APERTURE LIST*
%ADD10C,0.100000*%
%ADD11C,0.150000*%
G04 APERTURE END LIST*
D10*
D11*
X133522400Y-155698000D02*
X133522400Y-152698000D01*
X136022400Y-152698000D02*
X136022400Y-155698000D01*
X131084000Y-155698000D02*
X131084000Y-152698000D01*
X133584000Y-152698000D02*
X133584000Y-155698000D01*
X130942400Y-152708800D02*
X130942400Y-155708800D01*
X128442400Y-155708800D02*
X128442400Y-152708800D01*
X132049200Y-136038400D02*
X132049200Y-133038400D01*
X134549200Y-133038400D02*
X134549200Y-136038400D01*
X124329000Y-154729500D02*
X121329000Y-154729500D01*
X121329000Y-152229500D02*
X124329000Y-152229500D01*
X126359600Y-136063800D02*
X126359600Y-133063800D01*
X128859600Y-133063800D02*
X128859600Y-136063800D01*
X119566500Y-154729500D02*
X116566500Y-154729500D01*
X116566500Y-152229500D02*
X119566500Y-152229500D01*
X123819600Y-136063800D02*
X123819600Y-133063800D01*
X126319600Y-133063800D02*
X126319600Y-136063800D01*
X134854000Y-124464000D02*
X134854000Y-127464000D01*
X132354000Y-127464000D02*
X132354000Y-124464000D01*
X113050000Y-155596400D02*
X113050000Y-152596400D01*
X115550000Y-152596400D02*
X115550000Y-155596400D01*
X109020800Y-154706000D02*
X112020800Y-154706000D01*
X112020800Y-157206000D02*
X109020800Y-157206000D01*
X109020800Y-152166000D02*
X112020800Y-152166000D01*
X112020800Y-154666000D02*
X109020800Y-154666000D01*
X107726800Y-133811200D02*
X107726800Y-136811200D01*
X105226800Y-136811200D02*
X105226800Y-133811200D01*
X117469600Y-128062800D02*
X117469600Y-125062800D01*
X119969600Y-125062800D02*
X119969600Y-128062800D01*
X126370400Y-124565600D02*
X126370400Y-127565600D01*
X123870400Y-127565600D02*
X123870400Y-124565600D01*
X114842800Y-121993600D02*
X107842800Y-121993600D01*
X107842800Y-121993600D02*
X107842800Y-118493600D01*
X107842800Y-118493600D02*
X114842800Y-118493600D01*
X114842800Y-118493600D02*
X114842800Y-121993600D01*
X92900500Y-152692100D02*
X92900500Y-157772100D01*
X97345500Y-152692100D02*
X97345500Y-157772100D01*
X90995500Y-157772100D02*
X90995500Y-152692100D01*
X90995500Y-157772100D02*
X97345500Y-157772100D01*
X90995500Y-152692100D02*
X97345500Y-152692100D01*
X126847600Y-128320800D02*
X131927600Y-128320800D01*
X126847600Y-123875800D02*
X131927600Y-123875800D01*
X131927600Y-130225800D02*
X126847600Y-130225800D01*
X131927600Y-130225800D02*
X131927600Y-123875800D01*
X126847600Y-130225800D02*
X126847600Y-123875800D01*
X104749600Y-128016000D02*
X104749600Y-122936000D01*
X100304600Y-128016000D02*
X100304600Y-122936000D01*
X106654600Y-122936000D02*
X106654600Y-128016000D01*
X106654600Y-122936000D02*
X100304600Y-122936000D01*
X106654600Y-128016000D02*
X100304600Y-128016000D01*
X124663200Y-123596400D02*
X119583200Y-123596400D01*
X119583200Y-123596400D02*
X119583200Y-121056400D01*
X119583200Y-121056400D02*
X124663200Y-121056400D01*
X124663200Y-121056400D02*
X124663200Y-123596400D01*
X124663200Y-122326400D02*
X125933200Y-122326400D01*
X119583200Y-122326400D02*
X118313200Y-122326400D01*
X120650000Y-132905500D02*
X120650000Y-127825500D01*
X120650000Y-127825500D02*
X123190000Y-127825500D01*
X123190000Y-127825500D02*
X123190000Y-132905500D01*
X123190000Y-132905500D02*
X120650000Y-132905500D01*
X121920000Y-132905500D02*
X121920000Y-134175500D01*
X121920000Y-127825500D02*
X121920000Y-126555500D01*
X115402800Y-136237600D02*
X115402800Y-130237600D01*
X119902800Y-130237600D02*
X119902800Y-136237600D01*
X134121000Y-140660500D02*
X132851000Y-140660500D01*
X134121000Y-148010500D02*
X132851000Y-148010500D01*
X109211000Y-148010500D02*
X110481000Y-148010500D01*
X109211000Y-140660500D02*
X110481000Y-140660500D01*
X134121000Y-140660500D02*
X134121000Y-148010500D01*
X109211000Y-140660500D02*
X109211000Y-148010500D01*
X132851000Y-140660500D02*
X132851000Y-139375500D01*
X92582096Y-158970212D02*
G75*
G03X95607000Y-158955100I1524904J-2484888D01*
G01*
X92607000Y-158955100D02*
X95607000Y-158955100D01*
X96624936Y-161455100D02*
G75*
G03X96624936Y-161455100I-2517936J0D01*
G01*
X100901500Y-155105100D02*
X100901500Y-160185100D01*
X100901500Y-160185100D02*
X98361500Y-160185100D01*
X98361500Y-160185100D02*
X98361500Y-155105100D01*
X98361500Y-155105100D02*
X100901500Y-155105100D01*
X99631500Y-155105100D02*
X99631500Y-153835100D01*
X99631500Y-160185100D02*
X99631500Y-161455100D01*
X107604200Y-144733400D02*
X102606200Y-144733400D01*
X107596200Y-144873400D02*
X102614200Y-144873400D01*
X107580200Y-145013400D02*
X105200200Y-145013400D01*
X105010200Y-145013400D02*
X102630200Y-145013400D01*
X107556200Y-145153400D02*
X105595200Y-145153400D01*
X104615200Y-145153400D02*
X102654200Y-145153400D01*
X107523200Y-145293400D02*
X105762200Y-145293400D01*
X104448200Y-145293400D02*
X102687200Y-145293400D01*
X107482200Y-145433400D02*
X105869200Y-145433400D01*
X104341200Y-145433400D02*
X102728200Y-145433400D01*
X107432200Y-145573400D02*
X105940200Y-145573400D01*
X104270200Y-145573400D02*
X102778200Y-145573400D01*
X107371200Y-145713400D02*
X105984200Y-145713400D01*
X104226200Y-145713400D02*
X102839200Y-145713400D01*
X107301200Y-145853400D02*
X106003200Y-145853400D01*
X104207200Y-145853400D02*
X102909200Y-145853400D01*
X107219200Y-145993400D02*
X106001200Y-145993400D01*
X104209200Y-145993400D02*
X102991200Y-145993400D01*
X107124200Y-146133400D02*
X105976200Y-146133400D01*
X104234200Y-146133400D02*
X103086200Y-146133400D01*
X107013200Y-146273400D02*
X105928200Y-146273400D01*
X104282200Y-146273400D02*
X103197200Y-146273400D01*
X106885200Y-146413400D02*
X105850200Y-146413400D01*
X104360200Y-146413400D02*
X103325200Y-146413400D01*
X106736200Y-146553400D02*
X105733200Y-146553400D01*
X104477200Y-146553400D02*
X103474200Y-146553400D01*
X106557200Y-146693400D02*
X105545200Y-146693400D01*
X104665200Y-146693400D02*
X103653200Y-146693400D01*
X106338200Y-146833400D02*
X103872200Y-146833400D01*
X106049200Y-146973400D02*
X104161200Y-146973400D01*
X105577200Y-147113400D02*
X104633200Y-147113400D01*
X106005200Y-145908400D02*
G75*
G03X106005200Y-145908400I-900000J0D01*
G01*
X107642700Y-144658400D02*
G75*
G03X107642700Y-144658400I-2537500J0D01*
G01*
X125392180Y-156972000D02*
G75*
G03X125392180Y-156972000I-5250180J0D01*
G01*
X117518180Y-127762000D02*
G75*
G03X117518180Y-127762000I-5250180J0D01*
G01*
X129994660Y-114808000D02*
X128993900Y-114808000D01*
X134894320Y-114808000D02*
G75*
G03X134894320Y-114808000I-2499360J0D01*
G01*
X124978160Y-114820700D02*
X123977400Y-114820700D01*
X129877820Y-114820700D02*
G75*
G03X129877820Y-114820700I-2499360J0D01*
G01*
X110848140Y-114808000D02*
X111848900Y-114808000D01*
X110947200Y-114808000D02*
G75*
G03X110947200Y-114808000I-2499360J0D01*
G01*
X115826540Y-114808000D02*
X116827300Y-114808000D01*
X115925600Y-114808000D02*
G75*
G03X115925600Y-114808000I-2499360J0D01*
G01*
X124343600Y-158386400D02*
X124343600Y-152386400D01*
X128843600Y-152386400D02*
X128843600Y-158386400D01*
X128204400Y-136237600D02*
X128204400Y-130237600D01*
X132704400Y-130237600D02*
X132704400Y-136237600D01*
X108516800Y-133436800D02*
X114516800Y-133436800D01*
X114516800Y-137936800D02*
X108516800Y-137936800D01*
X121742800Y-159943200D02*
X121742800Y-161493200D01*
X118642800Y-161493200D02*
X118642800Y-159943200D01*
X118642800Y-159943200D02*
X121742800Y-159943200D01*
X118922800Y-162763200D02*
X121462800Y-162763200D01*
X95906200Y-130108600D02*
X95906200Y-125110600D01*
X95766200Y-130100600D02*
X95766200Y-125118600D01*
X95626200Y-130084600D02*
X95626200Y-127704600D01*
X95626200Y-127514600D02*
X95626200Y-125134600D01*
X95486200Y-130060600D02*
X95486200Y-128099600D01*
X95486200Y-127119600D02*
X95486200Y-125158600D01*
X95346200Y-130027600D02*
X95346200Y-128266600D01*
X95346200Y-126952600D02*
X95346200Y-125191600D01*
X95206200Y-129986600D02*
X95206200Y-128373600D01*
X95206200Y-126845600D02*
X95206200Y-125232600D01*
X95066200Y-129936600D02*
X95066200Y-128444600D01*
X95066200Y-126774600D02*
X95066200Y-125282600D01*
X94926200Y-129875600D02*
X94926200Y-128488600D01*
X94926200Y-126730600D02*
X94926200Y-125343600D01*
X94786200Y-129805600D02*
X94786200Y-128507600D01*
X94786200Y-126711600D02*
X94786200Y-125413600D01*
X94646200Y-129723600D02*
X94646200Y-128505600D01*
X94646200Y-126713600D02*
X94646200Y-125495600D01*
X94506200Y-129628600D02*
X94506200Y-128480600D01*
X94506200Y-126738600D02*
X94506200Y-125590600D01*
X94366200Y-129517600D02*
X94366200Y-128432600D01*
X94366200Y-126786600D02*
X94366200Y-125701600D01*
X94226200Y-129389600D02*
X94226200Y-128354600D01*
X94226200Y-126864600D02*
X94226200Y-125829600D01*
X94086200Y-129240600D02*
X94086200Y-128237600D01*
X94086200Y-126981600D02*
X94086200Y-125978600D01*
X93946200Y-129061600D02*
X93946200Y-128049600D01*
X93946200Y-127169600D02*
X93946200Y-126157600D01*
X93806200Y-128842600D02*
X93806200Y-126376600D01*
X93666200Y-128553600D02*
X93666200Y-126665600D01*
X93526200Y-128081600D02*
X93526200Y-127137600D01*
X95631200Y-127609600D02*
G75*
G03X95631200Y-127609600I-900000J0D01*
G01*
X98518700Y-127609600D02*
G75*
G03X98518700Y-127609600I-2537500J0D01*
G01*
X89134000Y-117961600D02*
X89134000Y-120961600D01*
X86634000Y-120961600D02*
X86634000Y-117961600D01*
X100228400Y-116230400D02*
X105308400Y-116230400D01*
X100228400Y-111785400D02*
X105308400Y-111785400D01*
X105308400Y-118135400D02*
X100228400Y-118135400D01*
X105308400Y-118135400D02*
X105308400Y-111785400D01*
X100228400Y-118135400D02*
X100228400Y-111785400D01*
X90424000Y-113690400D02*
X95504000Y-113690400D01*
X95504000Y-113690400D02*
X95504000Y-116230400D01*
X95504000Y-116230400D02*
X90424000Y-116230400D01*
X90424000Y-116230400D02*
X90424000Y-113690400D01*
X90424000Y-114960400D02*
X89154000Y-114960400D01*
X95504000Y-114960400D02*
X96774000Y-114960400D01*
X92438600Y-131309000D02*
X92438600Y-132579000D01*
X99788600Y-131309000D02*
X99788600Y-132579000D01*
X99788600Y-143519000D02*
X99788600Y-142249000D01*
X92438600Y-143519000D02*
X92438600Y-142249000D01*
X92438600Y-131309000D02*
X99788600Y-131309000D01*
X92438600Y-143519000D02*
X99788600Y-143519000D01*
X92438600Y-132579000D02*
X91153600Y-132579000D01*
X93570305Y-149307590D02*
G75*
G03X94058000Y-150010600I2187695J996990D01*
G01*
X97945695Y-149307590D02*
G75*
G02X97458000Y-150010600I-2187695J996990D01*
G01*
X94058000Y-150010600D02*
X97458000Y-150010600D01*
X93573121Y-147317473D02*
G75*
G02X95758000Y-145910600I2184879J-993127D01*
G01*
X97942879Y-147317473D02*
G75*
G03X95758000Y-145910600I-2184879J-993127D01*
G01*
X94886200Y-124215800D02*
X94886200Y-119217800D01*
X94746200Y-124207800D02*
X94746200Y-121870800D01*
X94746200Y-121562800D02*
X94746200Y-119225800D01*
X94606200Y-124191800D02*
X94606200Y-122189800D01*
X94606200Y-121243800D02*
X94606200Y-119241800D01*
X94466200Y-124167800D02*
X94466200Y-122336800D01*
X94466200Y-121096800D02*
X94466200Y-119265800D01*
X94326200Y-124134800D02*
X94326200Y-122428800D01*
X94326200Y-121004800D02*
X94326200Y-119298800D01*
X94186200Y-124093800D02*
X94186200Y-122484800D01*
X94186200Y-120948800D02*
X94186200Y-119339800D01*
X94046200Y-124043800D02*
X94046200Y-122511800D01*
X94046200Y-120921800D02*
X94046200Y-119389800D01*
X93906200Y-123982800D02*
X93906200Y-122514800D01*
X93906200Y-120918800D02*
X93906200Y-119450800D01*
X93766200Y-123912800D02*
X93766200Y-122492800D01*
X93766200Y-120940800D02*
X93766200Y-119520800D01*
X93626200Y-123830800D02*
X93626200Y-122442800D01*
X93626200Y-120990800D02*
X93626200Y-119602800D01*
X93486200Y-123735800D02*
X93486200Y-122360800D01*
X93486200Y-121072800D02*
X93486200Y-119697800D01*
X93346200Y-123624800D02*
X93346200Y-122228800D01*
X93346200Y-121204800D02*
X93346200Y-119808800D01*
X93206200Y-123496800D02*
X93206200Y-121981800D01*
X93206200Y-121451800D02*
X93206200Y-119936800D01*
X93066200Y-123347800D02*
X93066200Y-120085800D01*
X92926200Y-123168800D02*
X92926200Y-120264800D01*
X92786200Y-122949800D02*
X92786200Y-120483800D01*
X92646200Y-122660800D02*
X92646200Y-120772800D01*
X92506200Y-122188800D02*
X92506200Y-121244800D01*
X94761200Y-121716800D02*
G75*
G03X94761200Y-121716800I-800000J0D01*
G01*
X97498700Y-121716800D02*
G75*
G03X97498700Y-121716800I-2537500J0D01*
G01*
X87457600Y-135335200D02*
X87457600Y-138335200D01*
X84957600Y-138335200D02*
X84957600Y-135335200D01*
X87457600Y-140161200D02*
X87457600Y-143161200D01*
X84957600Y-143161200D02*
X84957600Y-140161200D01*
X87426800Y-148336000D02*
X87426800Y-153416000D01*
X87426800Y-153416000D02*
X84886800Y-153416000D01*
X84886800Y-153416000D02*
X84886800Y-148336000D01*
X84886800Y-148336000D02*
X87426800Y-148336000D01*
X86156800Y-148336000D02*
X86156800Y-147066000D01*
X86156800Y-153416000D02*
X86156800Y-154686000D01*
X87477600Y-131064000D02*
X87477600Y-125984000D01*
X83032600Y-131064000D02*
X83032600Y-125984000D01*
X89382600Y-125984000D02*
X89382600Y-131064000D01*
X89382600Y-125984000D02*
X83032600Y-125984000D01*
X89382600Y-131064000D02*
X83032600Y-131064000D01*
X135193043Y-154408166D02*
X135240662Y-154455785D01*
X135288281Y-154598642D01*
X135288281Y-154693880D01*
X135240662Y-154836738D01*
X135145424Y-154931976D01*
X135050186Y-154979595D01*
X134859710Y-155027214D01*
X134716852Y-155027214D01*
X134526376Y-154979595D01*
X134431138Y-154931976D01*
X134335900Y-154836738D01*
X134288281Y-154693880D01*
X134288281Y-154598642D01*
X134335900Y-154455785D01*
X134383519Y-154408166D01*
X135288281Y-153455785D02*
X135288281Y-154027214D01*
X135288281Y-153741500D02*
X134288281Y-153741500D01*
X134431138Y-153836738D01*
X134526376Y-153931976D01*
X134573995Y-154027214D01*
X133008643Y-154408166D02*
X133056262Y-154455785D01*
X133103881Y-154598642D01*
X133103881Y-154693880D01*
X133056262Y-154836738D01*
X132961024Y-154931976D01*
X132865786Y-154979595D01*
X132675310Y-155027214D01*
X132532452Y-155027214D01*
X132341976Y-154979595D01*
X132246738Y-154931976D01*
X132151500Y-154836738D01*
X132103881Y-154693880D01*
X132103881Y-154598642D01*
X132151500Y-154455785D01*
X132199119Y-154408166D01*
X132199119Y-154027214D02*
X132151500Y-153979595D01*
X132103881Y-153884357D01*
X132103881Y-153646261D01*
X132151500Y-153551023D01*
X132199119Y-153503404D01*
X132294357Y-153455785D01*
X132389595Y-153455785D01*
X132532452Y-153503404D01*
X133103881Y-154074833D01*
X133103881Y-153455785D01*
X130113043Y-154395466D02*
X130160662Y-154443085D01*
X130208281Y-154585942D01*
X130208281Y-154681180D01*
X130160662Y-154824038D01*
X130065424Y-154919276D01*
X129970186Y-154966895D01*
X129779710Y-155014514D01*
X129636852Y-155014514D01*
X129446376Y-154966895D01*
X129351138Y-154919276D01*
X129255900Y-154824038D01*
X129208281Y-154681180D01*
X129208281Y-154585942D01*
X129255900Y-154443085D01*
X129303519Y-154395466D01*
X129541614Y-153538323D02*
X130208281Y-153538323D01*
X129160662Y-153776419D02*
X129874948Y-154014514D01*
X129874948Y-153395466D01*
X133783343Y-134748566D02*
X133830962Y-134796185D01*
X133878581Y-134939042D01*
X133878581Y-135034280D01*
X133830962Y-135177138D01*
X133735724Y-135272376D01*
X133640486Y-135319995D01*
X133450010Y-135367614D01*
X133307152Y-135367614D01*
X133116676Y-135319995D01*
X133021438Y-135272376D01*
X132926200Y-135177138D01*
X132878581Y-135034280D01*
X132878581Y-134939042D01*
X132926200Y-134796185D01*
X132973819Y-134748566D01*
X132878581Y-134415233D02*
X132878581Y-133748566D01*
X133878581Y-134177138D01*
X122515334Y-153963643D02*
X122467715Y-154011262D01*
X122324858Y-154058881D01*
X122229620Y-154058881D01*
X122086762Y-154011262D01*
X121991524Y-153916024D01*
X121943905Y-153820786D01*
X121896286Y-153630310D01*
X121896286Y-153487452D01*
X121943905Y-153296976D01*
X121991524Y-153201738D01*
X122086762Y-153106500D01*
X122229620Y-153058881D01*
X122324858Y-153058881D01*
X122467715Y-153106500D01*
X122515334Y-153154119D01*
X123086762Y-153487452D02*
X122991524Y-153439833D01*
X122943905Y-153392214D01*
X122896286Y-153296976D01*
X122896286Y-153249357D01*
X122943905Y-153154119D01*
X122991524Y-153106500D01*
X123086762Y-153058881D01*
X123277239Y-153058881D01*
X123372477Y-153106500D01*
X123420096Y-153154119D01*
X123467715Y-153249357D01*
X123467715Y-153296976D01*
X123420096Y-153392214D01*
X123372477Y-153439833D01*
X123277239Y-153487452D01*
X123086762Y-153487452D01*
X122991524Y-153535071D01*
X122943905Y-153582690D01*
X122896286Y-153677929D01*
X122896286Y-153868405D01*
X122943905Y-153963643D01*
X122991524Y-154011262D01*
X123086762Y-154058881D01*
X123277239Y-154058881D01*
X123372477Y-154011262D01*
X123420096Y-153963643D01*
X123467715Y-153868405D01*
X123467715Y-153677929D01*
X123420096Y-153582690D01*
X123372477Y-153535071D01*
X123277239Y-153487452D01*
X128030243Y-134710466D02*
X128077862Y-134758085D01*
X128125481Y-134900942D01*
X128125481Y-134996180D01*
X128077862Y-135139038D01*
X127982624Y-135234276D01*
X127887386Y-135281895D01*
X127696910Y-135329514D01*
X127554052Y-135329514D01*
X127363576Y-135281895D01*
X127268338Y-135234276D01*
X127173100Y-135139038D01*
X127125481Y-134996180D01*
X127125481Y-134900942D01*
X127173100Y-134758085D01*
X127220719Y-134710466D01*
X128125481Y-134234276D02*
X128125481Y-134043800D01*
X128077862Y-133948561D01*
X128030243Y-133900942D01*
X127887386Y-133805704D01*
X127696910Y-133758085D01*
X127315957Y-133758085D01*
X127220719Y-133805704D01*
X127173100Y-133853323D01*
X127125481Y-133948561D01*
X127125481Y-134139038D01*
X127173100Y-134234276D01*
X127220719Y-134281895D01*
X127315957Y-134329514D01*
X127554052Y-134329514D01*
X127649290Y-134281895D01*
X127696910Y-134234276D01*
X127744529Y-134139038D01*
X127744529Y-133948561D01*
X127696910Y-133853323D01*
X127649290Y-133805704D01*
X127554052Y-133758085D01*
X117340143Y-153836643D02*
X117292524Y-153884262D01*
X117149667Y-153931881D01*
X117054429Y-153931881D01*
X116911571Y-153884262D01*
X116816333Y-153789024D01*
X116768714Y-153693786D01*
X116721095Y-153503310D01*
X116721095Y-153360452D01*
X116768714Y-153169976D01*
X116816333Y-153074738D01*
X116911571Y-152979500D01*
X117054429Y-152931881D01*
X117149667Y-152931881D01*
X117292524Y-152979500D01*
X117340143Y-153027119D01*
X118292524Y-153931881D02*
X117721095Y-153931881D01*
X118006809Y-153931881D02*
X118006809Y-152931881D01*
X117911571Y-153074738D01*
X117816333Y-153169976D01*
X117721095Y-153217595D01*
X118911571Y-152931881D02*
X119006810Y-152931881D01*
X119102048Y-152979500D01*
X119149667Y-153027119D01*
X119197286Y-153122357D01*
X119244905Y-153312833D01*
X119244905Y-153550929D01*
X119197286Y-153741405D01*
X119149667Y-153836643D01*
X119102048Y-153884262D01*
X119006810Y-153931881D01*
X118911571Y-153931881D01*
X118816333Y-153884262D01*
X118768714Y-153836643D01*
X118721095Y-153741405D01*
X118673476Y-153550929D01*
X118673476Y-153312833D01*
X118721095Y-153122357D01*
X118768714Y-153027119D01*
X118816333Y-152979500D01*
X118911571Y-152931881D01*
X125363243Y-135313657D02*
X125410862Y-135361276D01*
X125458481Y-135504133D01*
X125458481Y-135599371D01*
X125410862Y-135742229D01*
X125315624Y-135837467D01*
X125220386Y-135885086D01*
X125029910Y-135932705D01*
X124887052Y-135932705D01*
X124696576Y-135885086D01*
X124601338Y-135837467D01*
X124506100Y-135742229D01*
X124458481Y-135599371D01*
X124458481Y-135504133D01*
X124506100Y-135361276D01*
X124553719Y-135313657D01*
X125458481Y-134361276D02*
X125458481Y-134932705D01*
X125458481Y-134646991D02*
X124458481Y-134646991D01*
X124601338Y-134742229D01*
X124696576Y-134837467D01*
X124744195Y-134932705D01*
X125458481Y-133408895D02*
X125458481Y-133980324D01*
X125458481Y-133694610D02*
X124458481Y-133694610D01*
X124601338Y-133789848D01*
X124696576Y-133885086D01*
X124744195Y-133980324D01*
X133961143Y-126576057D02*
X134008762Y-126623676D01*
X134056381Y-126766533D01*
X134056381Y-126861771D01*
X134008762Y-127004629D01*
X133913524Y-127099867D01*
X133818286Y-127147486D01*
X133627810Y-127195105D01*
X133484952Y-127195105D01*
X133294476Y-127147486D01*
X133199238Y-127099867D01*
X133104000Y-127004629D01*
X133056381Y-126861771D01*
X133056381Y-126766533D01*
X133104000Y-126623676D01*
X133151619Y-126576057D01*
X134056381Y-125623676D02*
X134056381Y-126195105D01*
X134056381Y-125909391D02*
X133056381Y-125909391D01*
X133199238Y-126004629D01*
X133294476Y-126099867D01*
X133342095Y-126195105D01*
X133151619Y-125242724D02*
X133104000Y-125195105D01*
X133056381Y-125099867D01*
X133056381Y-124861771D01*
X133104000Y-124766533D01*
X133151619Y-124718914D01*
X133246857Y-124671295D01*
X133342095Y-124671295D01*
X133484952Y-124718914D01*
X134056381Y-125290343D01*
X134056381Y-124671295D01*
X114720643Y-154592257D02*
X114768262Y-154639876D01*
X114815881Y-154782733D01*
X114815881Y-154877971D01*
X114768262Y-155020829D01*
X114673024Y-155116067D01*
X114577786Y-155163686D01*
X114387310Y-155211305D01*
X114244452Y-155211305D01*
X114053976Y-155163686D01*
X113958738Y-155116067D01*
X113863500Y-155020829D01*
X113815881Y-154877971D01*
X113815881Y-154782733D01*
X113863500Y-154639876D01*
X113911119Y-154592257D01*
X114815881Y-153639876D02*
X114815881Y-154211305D01*
X114815881Y-153925591D02*
X113815881Y-153925591D01*
X113958738Y-154020829D01*
X114053976Y-154116067D01*
X114101595Y-154211305D01*
X113815881Y-153306543D02*
X113815881Y-152687495D01*
X114196833Y-153020829D01*
X114196833Y-152877971D01*
X114244452Y-152782733D01*
X114292071Y-152735114D01*
X114387310Y-152687495D01*
X114625405Y-152687495D01*
X114720643Y-152735114D01*
X114768262Y-152782733D01*
X114815881Y-152877971D01*
X114815881Y-153163686D01*
X114768262Y-153258924D01*
X114720643Y-153306543D01*
X110050343Y-156262343D02*
X110002724Y-156309962D01*
X109859867Y-156357581D01*
X109764629Y-156357581D01*
X109621771Y-156309962D01*
X109526533Y-156214724D01*
X109478914Y-156119486D01*
X109431295Y-155929010D01*
X109431295Y-155786152D01*
X109478914Y-155595676D01*
X109526533Y-155500438D01*
X109621771Y-155405200D01*
X109764629Y-155357581D01*
X109859867Y-155357581D01*
X110002724Y-155405200D01*
X110050343Y-155452819D01*
X111002724Y-156357581D02*
X110431295Y-156357581D01*
X110717009Y-156357581D02*
X110717009Y-155357581D01*
X110621771Y-155500438D01*
X110526533Y-155595676D01*
X110431295Y-155643295D01*
X111907486Y-155357581D02*
X111431295Y-155357581D01*
X111383676Y-155833771D01*
X111431295Y-155786152D01*
X111526533Y-155738533D01*
X111764629Y-155738533D01*
X111859867Y-155786152D01*
X111907486Y-155833771D01*
X111955105Y-155929010D01*
X111955105Y-156167105D01*
X111907486Y-156262343D01*
X111859867Y-156309962D01*
X111764629Y-156357581D01*
X111526533Y-156357581D01*
X111431295Y-156309962D01*
X111383676Y-156262343D01*
X109834443Y-153773143D02*
X109786824Y-153820762D01*
X109643967Y-153868381D01*
X109548729Y-153868381D01*
X109405871Y-153820762D01*
X109310633Y-153725524D01*
X109263014Y-153630286D01*
X109215395Y-153439810D01*
X109215395Y-153296952D01*
X109263014Y-153106476D01*
X109310633Y-153011238D01*
X109405871Y-152916000D01*
X109548729Y-152868381D01*
X109643967Y-152868381D01*
X109786824Y-152916000D01*
X109834443Y-152963619D01*
X110786824Y-153868381D02*
X110215395Y-153868381D01*
X110501109Y-153868381D02*
X110501109Y-152868381D01*
X110405871Y-153011238D01*
X110310633Y-153106476D01*
X110215395Y-153154095D01*
X111120157Y-152868381D02*
X111786824Y-152868381D01*
X111358252Y-153868381D01*
X106960943Y-135974057D02*
X107008562Y-136021676D01*
X107056181Y-136164533D01*
X107056181Y-136259771D01*
X107008562Y-136402629D01*
X106913324Y-136497867D01*
X106818086Y-136545486D01*
X106627610Y-136593105D01*
X106484752Y-136593105D01*
X106294276Y-136545486D01*
X106199038Y-136497867D01*
X106103800Y-136402629D01*
X106056181Y-136259771D01*
X106056181Y-136164533D01*
X106103800Y-136021676D01*
X106151419Y-135974057D01*
X107056181Y-135021676D02*
X107056181Y-135593105D01*
X107056181Y-135307391D02*
X106056181Y-135307391D01*
X106199038Y-135402629D01*
X106294276Y-135497867D01*
X106341895Y-135593105D01*
X106484752Y-134450248D02*
X106437133Y-134545486D01*
X106389514Y-134593105D01*
X106294276Y-134640724D01*
X106246657Y-134640724D01*
X106151419Y-134593105D01*
X106103800Y-134545486D01*
X106056181Y-134450248D01*
X106056181Y-134259771D01*
X106103800Y-134164533D01*
X106151419Y-134116914D01*
X106246657Y-134069295D01*
X106294276Y-134069295D01*
X106389514Y-134116914D01*
X106437133Y-134164533D01*
X106484752Y-134259771D01*
X106484752Y-134450248D01*
X106532371Y-134545486D01*
X106579990Y-134593105D01*
X106675229Y-134640724D01*
X106865705Y-134640724D01*
X106960943Y-134593105D01*
X107008562Y-134545486D01*
X107056181Y-134450248D01*
X107056181Y-134259771D01*
X107008562Y-134164533D01*
X106960943Y-134116914D01*
X106865705Y-134069295D01*
X106675229Y-134069295D01*
X106579990Y-134116914D01*
X106532371Y-134164533D01*
X106484752Y-134259771D01*
X118759243Y-127185657D02*
X118806862Y-127233276D01*
X118854481Y-127376133D01*
X118854481Y-127471371D01*
X118806862Y-127614229D01*
X118711624Y-127709467D01*
X118616386Y-127757086D01*
X118425910Y-127804705D01*
X118283052Y-127804705D01*
X118092576Y-127757086D01*
X117997338Y-127709467D01*
X117902100Y-127614229D01*
X117854481Y-127471371D01*
X117854481Y-127376133D01*
X117902100Y-127233276D01*
X117949719Y-127185657D01*
X118854481Y-126233276D02*
X118854481Y-126804705D01*
X118854481Y-126518991D02*
X117854481Y-126518991D01*
X117997338Y-126614229D01*
X118092576Y-126709467D01*
X118140195Y-126804705D01*
X118854481Y-125757086D02*
X118854481Y-125566610D01*
X118806862Y-125471371D01*
X118759243Y-125423752D01*
X118616386Y-125328514D01*
X118425910Y-125280895D01*
X118044957Y-125280895D01*
X117949719Y-125328514D01*
X117902100Y-125376133D01*
X117854481Y-125471371D01*
X117854481Y-125661848D01*
X117902100Y-125757086D01*
X117949719Y-125804705D01*
X118044957Y-125852324D01*
X118283052Y-125852324D01*
X118378290Y-125804705D01*
X118425910Y-125757086D01*
X118473529Y-125661848D01*
X118473529Y-125471371D01*
X118425910Y-125376133D01*
X118378290Y-125328514D01*
X118283052Y-125280895D01*
X125350543Y-126664957D02*
X125398162Y-126712576D01*
X125445781Y-126855433D01*
X125445781Y-126950671D01*
X125398162Y-127093529D01*
X125302924Y-127188767D01*
X125207686Y-127236386D01*
X125017210Y-127284005D01*
X124874352Y-127284005D01*
X124683876Y-127236386D01*
X124588638Y-127188767D01*
X124493400Y-127093529D01*
X124445781Y-126950671D01*
X124445781Y-126855433D01*
X124493400Y-126712576D01*
X124541019Y-126664957D01*
X124541019Y-126284005D02*
X124493400Y-126236386D01*
X124445781Y-126141148D01*
X124445781Y-125903052D01*
X124493400Y-125807814D01*
X124541019Y-125760195D01*
X124636257Y-125712576D01*
X124731495Y-125712576D01*
X124874352Y-125760195D01*
X125445781Y-126331624D01*
X125445781Y-125712576D01*
X124445781Y-125093529D02*
X124445781Y-124998290D01*
X124493400Y-124903052D01*
X124541019Y-124855433D01*
X124636257Y-124807814D01*
X124826733Y-124760195D01*
X125064829Y-124760195D01*
X125255305Y-124807814D01*
X125350543Y-124855433D01*
X125398162Y-124903052D01*
X125445781Y-124998290D01*
X125445781Y-125093529D01*
X125398162Y-125188767D01*
X125350543Y-125236386D01*
X125255305Y-125284005D01*
X125064829Y-125331624D01*
X124826733Y-125331624D01*
X124636257Y-125284005D01*
X124541019Y-125236386D01*
X124493400Y-125188767D01*
X124445781Y-125093529D01*
X111072705Y-121711981D02*
X111072705Y-120711981D01*
X111310800Y-120711981D01*
X111453658Y-120759600D01*
X111548896Y-120854838D01*
X111596515Y-120950076D01*
X111644134Y-121140552D01*
X111644134Y-121283410D01*
X111596515Y-121473886D01*
X111548896Y-121569124D01*
X111453658Y-121664362D01*
X111310800Y-121711981D01*
X111072705Y-121711981D01*
X112025086Y-120807219D02*
X112072705Y-120759600D01*
X112167943Y-120711981D01*
X112406039Y-120711981D01*
X112501277Y-120759600D01*
X112548896Y-120807219D01*
X112596515Y-120902457D01*
X112596515Y-120997695D01*
X112548896Y-121140552D01*
X111977467Y-121711981D01*
X112596515Y-121711981D01*
X92273381Y-155906695D02*
X91273381Y-155906695D01*
X91273381Y-155525742D01*
X91321000Y-155430504D01*
X91368619Y-155382885D01*
X91463857Y-155335266D01*
X91606714Y-155335266D01*
X91701952Y-155382885D01*
X91749571Y-155430504D01*
X91797190Y-155525742D01*
X91797190Y-155906695D01*
X92273381Y-154382885D02*
X92273381Y-154954314D01*
X92273381Y-154668600D02*
X91273381Y-154668600D01*
X91416238Y-154763838D01*
X91511476Y-154859076D01*
X91559095Y-154954314D01*
X128649505Y-129585981D02*
X128649505Y-128585981D01*
X129030458Y-128585981D01*
X129125696Y-128633600D01*
X129173315Y-128681219D01*
X129220934Y-128776457D01*
X129220934Y-128919314D01*
X129173315Y-129014552D01*
X129125696Y-129062171D01*
X129030458Y-129109790D01*
X128649505Y-129109790D01*
X129554267Y-128585981D02*
X130173315Y-128585981D01*
X129839981Y-128966933D01*
X129982839Y-128966933D01*
X130078077Y-129014552D01*
X130125696Y-129062171D01*
X130173315Y-129157410D01*
X130173315Y-129395505D01*
X130125696Y-129490743D01*
X130078077Y-129538362D01*
X129982839Y-129585981D01*
X129697124Y-129585981D01*
X129601886Y-129538362D01*
X129554267Y-129490743D01*
X106535481Y-126150595D02*
X105535481Y-126150595D01*
X105535481Y-125769642D01*
X105583100Y-125674404D01*
X105630719Y-125626785D01*
X105725957Y-125579166D01*
X105868814Y-125579166D01*
X105964052Y-125626785D01*
X106011671Y-125674404D01*
X106059290Y-125769642D01*
X106059290Y-126150595D01*
X105868814Y-124722023D02*
X106535481Y-124722023D01*
X105487862Y-124960119D02*
X106202148Y-125198214D01*
X106202148Y-124579166D01*
X122667734Y-120746781D02*
X122334400Y-120270590D01*
X122096305Y-120746781D02*
X122096305Y-119746781D01*
X122477258Y-119746781D01*
X122572496Y-119794400D01*
X122620115Y-119842019D01*
X122667734Y-119937257D01*
X122667734Y-120080114D01*
X122620115Y-120175352D01*
X122572496Y-120222971D01*
X122477258Y-120270590D01*
X122096305Y-120270590D01*
X123001067Y-119746781D02*
X123620115Y-119746781D01*
X123286781Y-120127733D01*
X123429639Y-120127733D01*
X123524877Y-120175352D01*
X123572496Y-120222971D01*
X123620115Y-120318210D01*
X123620115Y-120556305D01*
X123572496Y-120651543D01*
X123524877Y-120699162D01*
X123429639Y-120746781D01*
X123143924Y-120746781D01*
X123048686Y-120699162D01*
X123001067Y-120651543D01*
X120213381Y-130278166D02*
X119737190Y-130611500D01*
X120213381Y-130849595D02*
X119213381Y-130849595D01*
X119213381Y-130468642D01*
X119261000Y-130373404D01*
X119308619Y-130325785D01*
X119403857Y-130278166D01*
X119546714Y-130278166D01*
X119641952Y-130325785D01*
X119689571Y-130373404D01*
X119737190Y-130468642D01*
X119737190Y-130849595D01*
X119546714Y-129421023D02*
X120213381Y-129421023D01*
X119165762Y-129659119D02*
X119880048Y-129897214D01*
X119880048Y-129278166D01*
X116485943Y-133840457D02*
X116533562Y-133888076D01*
X116581181Y-134030933D01*
X116581181Y-134126171D01*
X116533562Y-134269029D01*
X116438324Y-134364267D01*
X116343086Y-134411886D01*
X116152610Y-134459505D01*
X116009752Y-134459505D01*
X115819276Y-134411886D01*
X115724038Y-134364267D01*
X115628800Y-134269029D01*
X115581181Y-134126171D01*
X115581181Y-134030933D01*
X115628800Y-133888076D01*
X115676419Y-133840457D01*
X116581181Y-132888076D02*
X116581181Y-133459505D01*
X116581181Y-133173791D02*
X115581181Y-133173791D01*
X115724038Y-133269029D01*
X115819276Y-133364267D01*
X115866895Y-133459505D01*
X115914514Y-132030933D02*
X116581181Y-132030933D01*
X115533562Y-132269029D02*
X116247848Y-132507124D01*
X116247848Y-131888076D01*
X116228905Y-144406881D02*
X116228905Y-143406881D01*
X116467000Y-143406881D01*
X116609858Y-143454500D01*
X116705096Y-143549738D01*
X116752715Y-143644976D01*
X116800334Y-143835452D01*
X116800334Y-143978310D01*
X116752715Y-144168786D01*
X116705096Y-144264024D01*
X116609858Y-144359262D01*
X116467000Y-144406881D01*
X116228905Y-144406881D01*
X117752715Y-144406881D02*
X117181286Y-144406881D01*
X117467000Y-144406881D02*
X117467000Y-143406881D01*
X117371762Y-143549738D01*
X117276524Y-143644976D01*
X117181286Y-143692595D01*
X92908381Y-162129695D02*
X91908381Y-162129695D01*
X91908381Y-161891600D01*
X91956000Y-161748742D01*
X92051238Y-161653504D01*
X92146476Y-161605885D01*
X92336952Y-161558266D01*
X92479810Y-161558266D01*
X92670286Y-161605885D01*
X92765524Y-161653504D01*
X92860762Y-161748742D01*
X92908381Y-161891600D01*
X92908381Y-162129695D01*
X91908381Y-161224933D02*
X91908381Y-160605885D01*
X92289333Y-160939219D01*
X92289333Y-160796361D01*
X92336952Y-160701123D01*
X92384571Y-160653504D01*
X92479810Y-160605885D01*
X92717905Y-160605885D01*
X92813143Y-160653504D01*
X92860762Y-160701123D01*
X92908381Y-160796361D01*
X92908381Y-161082076D01*
X92860762Y-161177314D01*
X92813143Y-161224933D01*
X92654381Y-158542005D02*
X91654381Y-158542005D01*
X92654381Y-157970576D02*
X92082952Y-158399148D01*
X91654381Y-157970576D02*
X92225810Y-158542005D01*
X100147381Y-157748266D02*
X99671190Y-158081600D01*
X100147381Y-158319695D02*
X99147381Y-158319695D01*
X99147381Y-157938742D01*
X99195000Y-157843504D01*
X99242619Y-157795885D01*
X99337857Y-157748266D01*
X99480714Y-157748266D01*
X99575952Y-157795885D01*
X99623571Y-157843504D01*
X99671190Y-157938742D01*
X99671190Y-158319695D01*
X99147381Y-157414933D02*
X99147381Y-156748266D01*
X100147381Y-157176838D01*
X109262343Y-144825066D02*
X109309962Y-144872685D01*
X109357581Y-145015542D01*
X109357581Y-145110780D01*
X109309962Y-145253638D01*
X109214724Y-145348876D01*
X109119486Y-145396495D01*
X108929010Y-145444114D01*
X108786152Y-145444114D01*
X108595676Y-145396495D01*
X108500438Y-145348876D01*
X108405200Y-145253638D01*
X108357581Y-145110780D01*
X108357581Y-145015542D01*
X108405200Y-144872685D01*
X108452819Y-144825066D01*
X108357581Y-144491733D02*
X108357581Y-143872685D01*
X108738533Y-144206019D01*
X108738533Y-144063161D01*
X108786152Y-143967923D01*
X108833771Y-143920304D01*
X108929010Y-143872685D01*
X109167105Y-143872685D01*
X109262343Y-143920304D01*
X109309962Y-143967923D01*
X109357581Y-144063161D01*
X109357581Y-144348876D01*
X109309962Y-144444114D01*
X109262343Y-144491733D01*
X120076934Y-157525981D02*
X119600743Y-157525981D01*
X119600743Y-156525981D01*
X120934077Y-157525981D02*
X120362648Y-157525981D01*
X120648362Y-157525981D02*
X120648362Y-156525981D01*
X120553124Y-156668838D01*
X120457886Y-156764076D01*
X120362648Y-156811695D01*
X111745734Y-127757181D02*
X111269543Y-127757181D01*
X111269543Y-126757181D01*
X112031448Y-126852419D02*
X112079067Y-126804800D01*
X112174305Y-126757181D01*
X112412401Y-126757181D01*
X112507639Y-126804800D01*
X112555258Y-126852419D01*
X112602877Y-126947657D01*
X112602877Y-127042895D01*
X112555258Y-127185752D01*
X111983829Y-127757181D01*
X112602877Y-127757181D01*
X127028914Y-118559841D02*
X126695580Y-118083650D01*
X126457485Y-118559841D02*
X126457485Y-117559841D01*
X126838438Y-117559841D01*
X126933676Y-117607460D01*
X126981295Y-117655079D01*
X127028914Y-117750317D01*
X127028914Y-117893174D01*
X126981295Y-117988412D01*
X126933676Y-118036031D01*
X126838438Y-118083650D01*
X126457485Y-118083650D01*
X127981295Y-118559841D02*
X127409866Y-118559841D01*
X127695580Y-118559841D02*
X127695580Y-117559841D01*
X127600342Y-117702698D01*
X127505104Y-117797936D01*
X127409866Y-117845555D01*
X122012414Y-118572541D02*
X121679080Y-118096350D01*
X121440985Y-118572541D02*
X121440985Y-117572541D01*
X121821938Y-117572541D01*
X121917176Y-117620160D01*
X121964795Y-117667779D01*
X122012414Y-117763017D01*
X122012414Y-117905874D01*
X121964795Y-118001112D01*
X121917176Y-118048731D01*
X121821938Y-118096350D01*
X121440985Y-118096350D01*
X122393366Y-117667779D02*
X122440985Y-117620160D01*
X122536223Y-117572541D01*
X122774319Y-117572541D01*
X122869557Y-117620160D01*
X122917176Y-117667779D01*
X122964795Y-117763017D01*
X122964795Y-117858255D01*
X122917176Y-118001112D01*
X122345747Y-118572541D01*
X122964795Y-118572541D01*
X108646934Y-111958381D02*
X108313600Y-111482190D01*
X108075505Y-111958381D02*
X108075505Y-110958381D01*
X108456458Y-110958381D01*
X108551696Y-111006000D01*
X108599315Y-111053619D01*
X108646934Y-111148857D01*
X108646934Y-111291714D01*
X108599315Y-111386952D01*
X108551696Y-111434571D01*
X108456458Y-111482190D01*
X108075505Y-111482190D01*
X109551696Y-110958381D02*
X109075505Y-110958381D01*
X109027886Y-111434571D01*
X109075505Y-111386952D01*
X109170743Y-111339333D01*
X109408839Y-111339333D01*
X109504077Y-111386952D01*
X109551696Y-111434571D01*
X109599315Y-111529810D01*
X109599315Y-111767905D01*
X109551696Y-111863143D01*
X109504077Y-111910762D01*
X109408839Y-111958381D01*
X109170743Y-111958381D01*
X109075505Y-111910762D01*
X109027886Y-111863143D01*
X113066534Y-111907581D02*
X112733200Y-111431390D01*
X112495105Y-111907581D02*
X112495105Y-110907581D01*
X112876058Y-110907581D01*
X112971296Y-110955200D01*
X113018915Y-111002819D01*
X113066534Y-111098057D01*
X113066534Y-111240914D01*
X113018915Y-111336152D01*
X112971296Y-111383771D01*
X112876058Y-111431390D01*
X112495105Y-111431390D01*
X113923677Y-110907581D02*
X113733200Y-110907581D01*
X113637962Y-110955200D01*
X113590343Y-111002819D01*
X113495105Y-111145676D01*
X113447486Y-111336152D01*
X113447486Y-111717105D01*
X113495105Y-111812343D01*
X113542724Y-111859962D01*
X113637962Y-111907581D01*
X113828439Y-111907581D01*
X113923677Y-111859962D01*
X113971296Y-111812343D01*
X114018915Y-111717105D01*
X114018915Y-111479010D01*
X113971296Y-111383771D01*
X113923677Y-111336152D01*
X113828439Y-111288533D01*
X113637962Y-111288533D01*
X113542724Y-111336152D01*
X113495105Y-111383771D01*
X113447486Y-111479010D01*
X123450743Y-155553066D02*
X123498362Y-155600685D01*
X123545981Y-155743542D01*
X123545981Y-155838780D01*
X123498362Y-155981638D01*
X123403124Y-156076876D01*
X123307886Y-156124495D01*
X123117410Y-156172114D01*
X122974552Y-156172114D01*
X122784076Y-156124495D01*
X122688838Y-156076876D01*
X122593600Y-155981638D01*
X122545981Y-155838780D01*
X122545981Y-155743542D01*
X122593600Y-155600685D01*
X122641219Y-155553066D01*
X122545981Y-154648304D02*
X122545981Y-155124495D01*
X123022171Y-155172114D01*
X122974552Y-155124495D01*
X122926933Y-155029257D01*
X122926933Y-154791161D01*
X122974552Y-154695923D01*
X123022171Y-154648304D01*
X123117410Y-154600685D01*
X123355505Y-154600685D01*
X123450743Y-154648304D01*
X123498362Y-154695923D01*
X123545981Y-154791161D01*
X123545981Y-155029257D01*
X123498362Y-155124495D01*
X123450743Y-155172114D01*
X129795543Y-133973866D02*
X129843162Y-134021485D01*
X129890781Y-134164342D01*
X129890781Y-134259580D01*
X129843162Y-134402438D01*
X129747924Y-134497676D01*
X129652686Y-134545295D01*
X129462210Y-134592914D01*
X129319352Y-134592914D01*
X129128876Y-134545295D01*
X129033638Y-134497676D01*
X128938400Y-134402438D01*
X128890781Y-134259580D01*
X128890781Y-134164342D01*
X128938400Y-134021485D01*
X128986019Y-133973866D01*
X128890781Y-133116723D02*
X128890781Y-133307200D01*
X128938400Y-133402438D01*
X128986019Y-133450057D01*
X129128876Y-133545295D01*
X129319352Y-133592914D01*
X129700305Y-133592914D01*
X129795543Y-133545295D01*
X129843162Y-133497676D01*
X129890781Y-133402438D01*
X129890781Y-133211961D01*
X129843162Y-133116723D01*
X129795543Y-133069104D01*
X129700305Y-133021485D01*
X129462210Y-133021485D01*
X129366971Y-133069104D01*
X129319352Y-133116723D01*
X129271733Y-133211961D01*
X129271733Y-133402438D01*
X129319352Y-133497676D01*
X129366971Y-133545295D01*
X129462210Y-133592914D01*
X111167943Y-135789943D02*
X111120324Y-135837562D01*
X110977467Y-135885181D01*
X110882229Y-135885181D01*
X110739371Y-135837562D01*
X110644133Y-135742324D01*
X110596514Y-135647086D01*
X110548895Y-135456610D01*
X110548895Y-135313752D01*
X110596514Y-135123276D01*
X110644133Y-135028038D01*
X110739371Y-134932800D01*
X110882229Y-134885181D01*
X110977467Y-134885181D01*
X111120324Y-134932800D01*
X111167943Y-134980419D01*
X112120324Y-135885181D02*
X111548895Y-135885181D01*
X111834609Y-135885181D02*
X111834609Y-134885181D01*
X111739371Y-135028038D01*
X111644133Y-135123276D01*
X111548895Y-135170895D01*
X112977467Y-134885181D02*
X112786990Y-134885181D01*
X112691752Y-134932800D01*
X112644133Y-134980419D01*
X112548895Y-135123276D01*
X112501276Y-135313752D01*
X112501276Y-135694705D01*
X112548895Y-135789943D01*
X112596514Y-135837562D01*
X112691752Y-135885181D01*
X112882229Y-135885181D01*
X112977467Y-135837562D01*
X113025086Y-135789943D01*
X113072705Y-135694705D01*
X113072705Y-135456610D01*
X113025086Y-135361371D01*
X112977467Y-135313752D01*
X112882229Y-135266133D01*
X112691752Y-135266133D01*
X112596514Y-135313752D01*
X112548895Y-135361371D01*
X112501276Y-135456610D01*
X122401105Y-161793181D02*
X122401105Y-160793181D01*
X122782058Y-160793181D01*
X122877296Y-160840800D01*
X122924915Y-160888419D01*
X122972534Y-160983657D01*
X122972534Y-161126514D01*
X122924915Y-161221752D01*
X122877296Y-161269371D01*
X122782058Y-161316990D01*
X122401105Y-161316990D01*
X123353486Y-160888419D02*
X123401105Y-160840800D01*
X123496343Y-160793181D01*
X123734439Y-160793181D01*
X123829677Y-160840800D01*
X123877296Y-160888419D01*
X123924915Y-160983657D01*
X123924915Y-161078895D01*
X123877296Y-161221752D01*
X123305867Y-161793181D01*
X123924915Y-161793181D01*
X92067143Y-125375943D02*
X92019524Y-125423562D01*
X91876667Y-125471181D01*
X91781429Y-125471181D01*
X91638571Y-125423562D01*
X91543333Y-125328324D01*
X91495714Y-125233086D01*
X91448095Y-125042610D01*
X91448095Y-124899752D01*
X91495714Y-124709276D01*
X91543333Y-124614038D01*
X91638571Y-124518800D01*
X91781429Y-124471181D01*
X91876667Y-124471181D01*
X92019524Y-124518800D01*
X92067143Y-124566419D01*
X92448095Y-124566419D02*
X92495714Y-124518800D01*
X92590952Y-124471181D01*
X92829048Y-124471181D01*
X92924286Y-124518800D01*
X92971905Y-124566419D01*
X93019524Y-124661657D01*
X93019524Y-124756895D01*
X92971905Y-124899752D01*
X92400476Y-125471181D01*
X93019524Y-125471181D01*
X93400476Y-124566419D02*
X93448095Y-124518800D01*
X93543333Y-124471181D01*
X93781429Y-124471181D01*
X93876667Y-124518800D01*
X93924286Y-124566419D01*
X93971905Y-124661657D01*
X93971905Y-124756895D01*
X93924286Y-124899752D01*
X93352857Y-125471181D01*
X93971905Y-125471181D01*
X90741143Y-120104457D02*
X90788762Y-120152076D01*
X90836381Y-120294933D01*
X90836381Y-120390171D01*
X90788762Y-120533029D01*
X90693524Y-120628267D01*
X90598286Y-120675886D01*
X90407810Y-120723505D01*
X90264952Y-120723505D01*
X90074476Y-120675886D01*
X89979238Y-120628267D01*
X89884000Y-120533029D01*
X89836381Y-120390171D01*
X89836381Y-120294933D01*
X89884000Y-120152076D01*
X89931619Y-120104457D01*
X89931619Y-119723505D02*
X89884000Y-119675886D01*
X89836381Y-119580648D01*
X89836381Y-119342552D01*
X89884000Y-119247314D01*
X89931619Y-119199695D01*
X90026857Y-119152076D01*
X90122095Y-119152076D01*
X90264952Y-119199695D01*
X90836381Y-119771124D01*
X90836381Y-119152076D01*
X89836381Y-118818743D02*
X89836381Y-118199695D01*
X90217333Y-118533029D01*
X90217333Y-118390171D01*
X90264952Y-118294933D01*
X90312571Y-118247314D01*
X90407810Y-118199695D01*
X90645905Y-118199695D01*
X90741143Y-118247314D01*
X90788762Y-118294933D01*
X90836381Y-118390171D01*
X90836381Y-118675886D01*
X90788762Y-118771124D01*
X90741143Y-118818743D01*
X102030305Y-119312781D02*
X102030305Y-118312781D01*
X102411258Y-118312781D01*
X102506496Y-118360400D01*
X102554115Y-118408019D01*
X102601734Y-118503257D01*
X102601734Y-118646114D01*
X102554115Y-118741352D01*
X102506496Y-118788971D01*
X102411258Y-118836590D01*
X102030305Y-118836590D01*
X103506496Y-118312781D02*
X103030305Y-118312781D01*
X102982686Y-118788971D01*
X103030305Y-118741352D01*
X103125543Y-118693733D01*
X103363639Y-118693733D01*
X103458877Y-118741352D01*
X103506496Y-118788971D01*
X103554115Y-118884210D01*
X103554115Y-119122305D01*
X103506496Y-119217543D01*
X103458877Y-119265162D01*
X103363639Y-119312781D01*
X103125543Y-119312781D01*
X103030305Y-119265162D01*
X102982686Y-119217543D01*
X92848134Y-113126781D02*
X92514800Y-112650590D01*
X92276705Y-113126781D02*
X92276705Y-112126781D01*
X92657658Y-112126781D01*
X92752896Y-112174400D01*
X92800515Y-112222019D01*
X92848134Y-112317257D01*
X92848134Y-112460114D01*
X92800515Y-112555352D01*
X92752896Y-112602971D01*
X92657658Y-112650590D01*
X92276705Y-112650590D01*
X93419562Y-112555352D02*
X93324324Y-112507733D01*
X93276705Y-112460114D01*
X93229086Y-112364876D01*
X93229086Y-112317257D01*
X93276705Y-112222019D01*
X93324324Y-112174400D01*
X93419562Y-112126781D01*
X93610039Y-112126781D01*
X93705277Y-112174400D01*
X93752896Y-112222019D01*
X93800515Y-112317257D01*
X93800515Y-112364876D01*
X93752896Y-112460114D01*
X93705277Y-112507733D01*
X93610039Y-112555352D01*
X93419562Y-112555352D01*
X93324324Y-112602971D01*
X93276705Y-112650590D01*
X93229086Y-112745829D01*
X93229086Y-112936305D01*
X93276705Y-113031543D01*
X93324324Y-113079162D01*
X93419562Y-113126781D01*
X93610039Y-113126781D01*
X93705277Y-113079162D01*
X93752896Y-113031543D01*
X93800515Y-112936305D01*
X93800515Y-112745829D01*
X93752896Y-112650590D01*
X93705277Y-112602971D01*
X93610039Y-112555352D01*
X95554895Y-136967981D02*
X95554895Y-137777505D01*
X95602514Y-137872743D01*
X95650133Y-137920362D01*
X95745371Y-137967981D01*
X95935848Y-137967981D01*
X96031086Y-137920362D01*
X96078705Y-137872743D01*
X96126324Y-137777505D01*
X96126324Y-136967981D01*
X96554895Y-137063219D02*
X96602514Y-137015600D01*
X96697752Y-136967981D01*
X96935848Y-136967981D01*
X97031086Y-137015600D01*
X97078705Y-137063219D01*
X97126324Y-137158457D01*
X97126324Y-137253695D01*
X97078705Y-137396552D01*
X96507276Y-137967981D01*
X97126324Y-137967981D01*
X92456095Y-143762981D02*
X92456095Y-144572505D01*
X92503714Y-144667743D01*
X92551333Y-144715362D01*
X92646571Y-144762981D01*
X92837048Y-144762981D01*
X92932286Y-144715362D01*
X92979905Y-144667743D01*
X93027524Y-144572505D01*
X93027524Y-143762981D01*
X94027524Y-144762981D02*
X93456095Y-144762981D01*
X93741809Y-144762981D02*
X93741809Y-143762981D01*
X93646571Y-143905838D01*
X93551333Y-144001076D01*
X93456095Y-144048695D01*
X94318343Y-125873943D02*
X94270724Y-125921562D01*
X94127867Y-125969181D01*
X94032629Y-125969181D01*
X93889771Y-125921562D01*
X93794533Y-125826324D01*
X93746914Y-125731086D01*
X93699295Y-125540610D01*
X93699295Y-125397752D01*
X93746914Y-125207276D01*
X93794533Y-125112038D01*
X93889771Y-125016800D01*
X94032629Y-124969181D01*
X94127867Y-124969181D01*
X94270724Y-125016800D01*
X94318343Y-125064419D01*
X94699295Y-125064419D02*
X94746914Y-125016800D01*
X94842152Y-124969181D01*
X95080248Y-124969181D01*
X95175486Y-125016800D01*
X95223105Y-125064419D01*
X95270724Y-125159657D01*
X95270724Y-125254895D01*
X95223105Y-125397752D01*
X94651676Y-125969181D01*
X95270724Y-125969181D01*
X96127867Y-125302514D02*
X96127867Y-125969181D01*
X95889771Y-124921562D02*
X95651676Y-125635848D01*
X96270724Y-125635848D01*
X89064743Y-137478057D02*
X89112362Y-137525676D01*
X89159981Y-137668533D01*
X89159981Y-137763771D01*
X89112362Y-137906629D01*
X89017124Y-138001867D01*
X88921886Y-138049486D01*
X88731410Y-138097105D01*
X88588552Y-138097105D01*
X88398076Y-138049486D01*
X88302838Y-138001867D01*
X88207600Y-137906629D01*
X88159981Y-137763771D01*
X88159981Y-137668533D01*
X88207600Y-137525676D01*
X88255219Y-137478057D01*
X88255219Y-137097105D02*
X88207600Y-137049486D01*
X88159981Y-136954248D01*
X88159981Y-136716152D01*
X88207600Y-136620914D01*
X88255219Y-136573295D01*
X88350457Y-136525676D01*
X88445695Y-136525676D01*
X88588552Y-136573295D01*
X89159981Y-137144724D01*
X89159981Y-136525676D01*
X89159981Y-135573295D02*
X89159981Y-136144724D01*
X89159981Y-135859010D02*
X88159981Y-135859010D01*
X88302838Y-135954248D01*
X88398076Y-136049486D01*
X88445695Y-136144724D01*
X89064743Y-142304057D02*
X89112362Y-142351676D01*
X89159981Y-142494533D01*
X89159981Y-142589771D01*
X89112362Y-142732629D01*
X89017124Y-142827867D01*
X88921886Y-142875486D01*
X88731410Y-142923105D01*
X88588552Y-142923105D01*
X88398076Y-142875486D01*
X88302838Y-142827867D01*
X88207600Y-142732629D01*
X88159981Y-142589771D01*
X88159981Y-142494533D01*
X88207600Y-142351676D01*
X88255219Y-142304057D01*
X88255219Y-141923105D02*
X88207600Y-141875486D01*
X88159981Y-141780248D01*
X88159981Y-141542152D01*
X88207600Y-141446914D01*
X88255219Y-141399295D01*
X88350457Y-141351676D01*
X88445695Y-141351676D01*
X88588552Y-141399295D01*
X89159981Y-141970724D01*
X89159981Y-141351676D01*
X88159981Y-140446914D02*
X88159981Y-140923105D01*
X88636171Y-140970724D01*
X88588552Y-140923105D01*
X88540933Y-140827867D01*
X88540933Y-140589771D01*
X88588552Y-140494533D01*
X88636171Y-140446914D01*
X88731410Y-140399295D01*
X88969505Y-140399295D01*
X89064743Y-140446914D01*
X89112362Y-140494533D01*
X89159981Y-140589771D01*
X89159981Y-140827867D01*
X89112362Y-140923105D01*
X89064743Y-140970724D01*
X90109301Y-151291586D02*
X89633110Y-151624920D01*
X90109301Y-151863015D02*
X89109301Y-151863015D01*
X89109301Y-151482062D01*
X89156920Y-151386824D01*
X89204539Y-151339205D01*
X89299777Y-151291586D01*
X89442634Y-151291586D01*
X89537872Y-151339205D01*
X89585491Y-151386824D01*
X89633110Y-151482062D01*
X89633110Y-151863015D01*
X90109301Y-150815396D02*
X90109301Y-150624920D01*
X90061682Y-150529681D01*
X90014063Y-150482062D01*
X89871206Y-150386824D01*
X89680730Y-150339205D01*
X89299777Y-150339205D01*
X89204539Y-150386824D01*
X89156920Y-150434443D01*
X89109301Y-150529681D01*
X89109301Y-150720158D01*
X89156920Y-150815396D01*
X89204539Y-150863015D01*
X89299777Y-150910634D01*
X89537872Y-150910634D01*
X89633110Y-150863015D01*
X89680730Y-150815396D01*
X89728349Y-150720158D01*
X89728349Y-150529681D01*
X89680730Y-150434443D01*
X89633110Y-150386824D01*
X89537872Y-150339205D01*
X88945981Y-129465295D02*
X87945981Y-129465295D01*
X87945981Y-129084342D01*
X87993600Y-128989104D01*
X88041219Y-128941485D01*
X88136457Y-128893866D01*
X88279314Y-128893866D01*
X88374552Y-128941485D01*
X88422171Y-128989104D01*
X88469790Y-129084342D01*
X88469790Y-129465295D01*
X87945981Y-128036723D02*
X87945981Y-128227200D01*
X87993600Y-128322438D01*
X88041219Y-128370057D01*
X88184076Y-128465295D01*
X88374552Y-128512914D01*
X88755505Y-128512914D01*
X88850743Y-128465295D01*
X88898362Y-128417676D01*
X88945981Y-128322438D01*
X88945981Y-128131961D01*
X88898362Y-128036723D01*
X88850743Y-127989104D01*
X88755505Y-127941485D01*
X88517410Y-127941485D01*
X88422171Y-127989104D01*
X88374552Y-128036723D01*
X88326933Y-128131961D01*
X88326933Y-128322438D01*
X88374552Y-128417676D01*
X88422171Y-128465295D01*
X88517410Y-128512914D01*
M02*
