M48
;DRILL file {KiCad 4.0.2-stable} date Сб 01 окт 2016 22:47:07
;FORMAT={-:-/ absolute / metric / decimal}
FMAT,2
METRIC,TZ
T1C0.800
T2C0.800
T3C0.900
T4C0.998
T5C1.001
T6C1.016
T7C1.400
%
G90
G05
M71
T1
X86.208Y-135.585
X86.208Y-140.411
X87.884Y-118.212
X92.304Y-133.604
X92.304Y-136.144
X92.304Y-138.684
X92.304Y-141.224
X93.218Y-148.311
X93.961Y-121.717
X94.731Y-127.61
X95.758Y-148.311
X95.961Y-121.717
X97.231Y-127.61
X98.298Y-148.311
X99.924Y-133.604
X99.924Y-136.144
X99.924Y-138.684
X99.924Y-141.224
X105.105Y-143.408
X105.105Y-145.908
X106.477Y-134.061
X108.843Y-120.244
X109.271Y-153.416
X109.271Y-155.956
X111.506Y-140.525
X111.506Y-148.145
X113.843Y-120.244
X114.046Y-140.525
X114.046Y-148.145
X114.3Y-155.346
X116.586Y-140.525
X116.586Y-148.145
X118.72Y-127.813
X119.126Y-140.525
X119.126Y-148.145
X119.316Y-153.48
X121.666Y-140.525
X121.666Y-148.145
X124.079Y-153.48
X124.206Y-140.525
X124.206Y-148.145
X125.07Y-135.814
X125.12Y-124.816
X126.746Y-140.525
X126.746Y-148.145
X127.61Y-135.814
X129.286Y-140.525
X129.286Y-148.145
X129.692Y-152.959
X131.826Y-140.525
X131.826Y-148.145
X132.334Y-155.448
X133.299Y-135.788
X133.604Y-124.714
X134.772Y-155.448
T2
X86.208Y-138.085
X86.208Y-142.911
X87.884Y-120.712
X106.477Y-136.561
X111.771Y-153.416
X111.771Y-155.956
X114.3Y-152.846
X116.816Y-153.48
X118.72Y-125.313
X121.579Y-153.48
X125.07Y-133.314
X125.12Y-127.316
X127.61Y-133.314
X129.692Y-155.459
X132.334Y-152.948
X133.299Y-133.288
X133.604Y-127.214
X134.772Y-152.948
T3
X109.017Y-135.687
X114.017Y-135.687
X117.653Y-130.738
X117.653Y-135.738
X126.594Y-152.886
X126.594Y-157.886
X130.454Y-130.738
X130.454Y-135.738
T4
X86.208Y-127.254
X86.208Y-129.794
X94.17Y-153.962
X94.17Y-156.502
X101.498Y-114.96
X103.48Y-124.206
X103.48Y-126.746
X104.038Y-114.96
X128.118Y-127.051
X130.658Y-127.051
T5
X86.157Y-145.796
X86.157Y-155.956
X87.884Y-114.96
X94.107Y-160.185
X94.107Y-162.725
X98.044Y-114.96
X99.631Y-152.565
X99.631Y-162.725
X108.448Y-114.808
X113.426Y-114.808
X113.449Y-114.808
X117.043Y-122.326
X118.427Y-114.808
X121.92Y-125.285
X121.92Y-135.445
X122.377Y-114.821
X127.203Y-122.326
X127.378Y-114.821
X127.394Y-114.808
X132.395Y-114.808
T6
X120.193Y-161.493
T7
X109.769Y-127.762
X114.767Y-127.762
X117.643Y-156.972
X122.641Y-156.972
T0
M30
