G04 #@! TF.FileFunction,Copper,L2,Bot,Signal*
%FSLAX46Y46*%
G04 Gerber Fmt 4.6, Leading zero omitted, Abs format (unit mm)*
G04 Created by KiCad (PCBNEW 4.0.2-stable) date Сб 01 окт 2016 22:47:06*
%MOMM*%
G01*
G04 APERTURE LIST*
%ADD10C,0.100000*%
%ADD11R,1.300000X1.300000*%
%ADD12C,1.300000*%
%ADD13O,3.014980X1.506220*%
%ADD14O,1.506220X3.014980*%
%ADD15C,1.998980*%
%ADD16R,1.400000X1.400000*%
%ADD17C,1.400000*%
%ADD18O,1.600000X2.300000*%
%ADD19R,2.000000X1.900000*%
%ADD20C,1.900000*%
%ADD21C,2.499360*%
%ADD22R,2.235200X2.235200*%
%ADD23O,2.300000X1.600000*%
%ADD24C,1.524000*%
%ADD25C,1.700000*%
%ADD26C,1.000000*%
%ADD27C,1.500000*%
%ADD28C,1.400000*%
%ADD29C,0.250000*%
%ADD30C,0.254000*%
G04 APERTURE END LIST*
D10*
D11*
X134772400Y-155448000D03*
D12*
X134772400Y-152948000D03*
D11*
X132334000Y-155448000D03*
D12*
X132334000Y-152948000D03*
D11*
X129692400Y-152958800D03*
D12*
X129692400Y-155458800D03*
D11*
X133299200Y-135788400D03*
D12*
X133299200Y-133288400D03*
D11*
X124079000Y-153479500D03*
D12*
X121579000Y-153479500D03*
D11*
X127609600Y-135813800D03*
D12*
X127609600Y-133313800D03*
D11*
X119316500Y-153479500D03*
D12*
X116816500Y-153479500D03*
D11*
X125069600Y-135813800D03*
D12*
X125069600Y-133313800D03*
D11*
X133604000Y-124714000D03*
D12*
X133604000Y-127214000D03*
D11*
X114300000Y-155346400D03*
D12*
X114300000Y-152846400D03*
D11*
X109270800Y-155956000D03*
D12*
X111770800Y-155956000D03*
D11*
X109270800Y-153416000D03*
D12*
X111770800Y-153416000D03*
D11*
X106476800Y-134061200D03*
D12*
X106476800Y-136561200D03*
D11*
X118719600Y-127812800D03*
D12*
X118719600Y-125312800D03*
D11*
X125120400Y-124815600D03*
D12*
X125120400Y-127315600D03*
D11*
X113842800Y-120243600D03*
D12*
X108842800Y-120243600D03*
D13*
X94170500Y-156502100D03*
X94170500Y-153962100D03*
D14*
X130657600Y-127050800D03*
X128117600Y-127050800D03*
D13*
X103479600Y-124206000D03*
X103479600Y-126746000D03*
D15*
X127203200Y-122326400D03*
X117043200Y-122326400D03*
X121920000Y-135445500D03*
X121920000Y-125285500D03*
D16*
X117652800Y-135737600D03*
D17*
X117652800Y-130737600D03*
D18*
X131826000Y-140525500D03*
X129286000Y-140525500D03*
X126746000Y-140525500D03*
X124206000Y-140525500D03*
X121666000Y-140525500D03*
X119126000Y-140525500D03*
X116586000Y-140525500D03*
X114046000Y-140525500D03*
X111506000Y-140525500D03*
X111506000Y-148145500D03*
X114046000Y-148145500D03*
X116586000Y-148145500D03*
X119126000Y-148145500D03*
X121666000Y-148145500D03*
X124206000Y-148145500D03*
X126746000Y-148145500D03*
X129286000Y-148145500D03*
X131826000Y-148145500D03*
D19*
X94107000Y-160185100D03*
D20*
X94107000Y-162725100D03*
D15*
X99631500Y-152565100D03*
X99631500Y-162725100D03*
D11*
X105105200Y-143408400D03*
D12*
X105105200Y-145908400D03*
D21*
X117642640Y-156972000D03*
X122641360Y-156972000D03*
X114767360Y-127762000D03*
X109768640Y-127762000D03*
D15*
X132394960Y-114808000D03*
X127393700Y-114808000D03*
X127378460Y-114820700D03*
X122377200Y-114820700D03*
X108447840Y-114808000D03*
X113449100Y-114808000D03*
X113426240Y-114808000D03*
X118427500Y-114808000D03*
D16*
X126593600Y-157886400D03*
D17*
X126593600Y-152886400D03*
D16*
X130454400Y-135737600D03*
D17*
X130454400Y-130737600D03*
D16*
X109016800Y-135686800D03*
D17*
X114016800Y-135686800D03*
D22*
X120192800Y-161493200D03*
D11*
X97231200Y-127609600D03*
D12*
X94731200Y-127609600D03*
D11*
X87884000Y-118211600D03*
D12*
X87884000Y-120711600D03*
D14*
X104038400Y-114960400D03*
X101498400Y-114960400D03*
D15*
X87884000Y-114960400D03*
X98044000Y-114960400D03*
D23*
X92303600Y-133604000D03*
X92303600Y-136144000D03*
X92303600Y-138684000D03*
X92303600Y-141224000D03*
X99923600Y-141224000D03*
X99923600Y-138684000D03*
X99923600Y-136144000D03*
X99923600Y-133604000D03*
D24*
X95758000Y-148310600D03*
X98298000Y-148310600D03*
X93218000Y-148310600D03*
D11*
X95961200Y-121716800D03*
D12*
X93961200Y-121716800D03*
D11*
X86207600Y-135585200D03*
D12*
X86207600Y-138085200D03*
D11*
X86207600Y-140411200D03*
D12*
X86207600Y-142911200D03*
D15*
X86156800Y-145796000D03*
X86156800Y-155956000D03*
D13*
X86207600Y-127254000D03*
X86207600Y-129794000D03*
D25*
X131826000Y-148145500D02*
X134581900Y-148145500D01*
X134772400Y-148336000D02*
X134772400Y-152948000D01*
X134581900Y-148145500D02*
X134772400Y-148336000D01*
X129286000Y-148145500D02*
X129286000Y-148945600D01*
X129286000Y-148945600D02*
X131622800Y-151282400D01*
X131622800Y-151282400D02*
X132232400Y-151282400D01*
X132232400Y-151282400D02*
X132334000Y-151384000D01*
X132334000Y-151384000D02*
X132334000Y-152948000D01*
X124079000Y-153479500D02*
X126058300Y-155458800D01*
X126058300Y-155458800D02*
X129692400Y-155458800D01*
X122641360Y-156972000D02*
X122986800Y-156972000D01*
X122986800Y-156972000D02*
X124079000Y-155879800D01*
X124079000Y-155879800D02*
X124079000Y-153479500D01*
D26*
X122986800Y-156972000D02*
X124079000Y-155879800D01*
D27*
X124079000Y-153479500D02*
X124079000Y-153136600D01*
X124079000Y-153136600D02*
X121666000Y-150723600D01*
X121666000Y-150723600D02*
X121666000Y-148145500D01*
D26*
X126593600Y-152886400D02*
X126593600Y-152857200D01*
X126593600Y-152857200D02*
X124206000Y-150469600D01*
X124206000Y-150469600D02*
X124206000Y-148145500D01*
D27*
X126644400Y-152948000D02*
X126644400Y-152908000D01*
X126644400Y-152908000D02*
X124206000Y-150469600D01*
X124206000Y-150469600D02*
X124206000Y-148145500D01*
D25*
X129286000Y-140525500D02*
X129286000Y-138430000D01*
X130454400Y-137261600D02*
X130454400Y-135737600D01*
X129286000Y-138430000D02*
X130454400Y-137261600D01*
X129844800Y-143002000D02*
X133604000Y-143002000D01*
X129286000Y-140525500D02*
X129286000Y-142443200D01*
X129286000Y-142443200D02*
X129844800Y-143002000D01*
X133604000Y-143002000D02*
X136347200Y-140258800D01*
X136347200Y-140258800D02*
X136347200Y-118760240D01*
X136347200Y-118760240D02*
X132394960Y-114808000D01*
D26*
X133604000Y-143002000D02*
X136347200Y-140258800D01*
X129286000Y-142443200D02*
X129844800Y-143002000D01*
D25*
X131826000Y-140525500D02*
X131826000Y-140309600D01*
X131826000Y-140309600D02*
X133299200Y-138836400D01*
X133299200Y-138836400D02*
X133299200Y-135788400D01*
D27*
X120192800Y-161493200D02*
X120192800Y-153682700D01*
X120192800Y-153682700D02*
X120396000Y-153479500D01*
X121579000Y-153479500D02*
X120396000Y-153479500D01*
X120396000Y-153479500D02*
X119316500Y-153479500D01*
D25*
X126746000Y-140525500D02*
X126746000Y-139090400D01*
X127203200Y-138633200D02*
X127203200Y-136220200D01*
X126746000Y-139090400D02*
X127203200Y-138633200D01*
X127203200Y-136220200D02*
X127609600Y-135813800D01*
X116816500Y-153479500D02*
X116816500Y-153083900D01*
X116816500Y-153083900D02*
X119126000Y-150774400D01*
X119126000Y-150774400D02*
X119126000Y-148145500D01*
X116816500Y-153479500D02*
X116816500Y-155475300D01*
X116816500Y-155475300D02*
X117642640Y-156301440D01*
X117642640Y-156301440D02*
X117642640Y-156972000D01*
D26*
X117642640Y-156972000D02*
X117642640Y-156301440D01*
X117642640Y-156301440D02*
X116816500Y-155475300D01*
D25*
X124206000Y-140525500D02*
X124206000Y-138379200D01*
X125069600Y-137515600D02*
X125069600Y-135813800D01*
X124206000Y-138379200D02*
X125069600Y-137515600D01*
D27*
X86207600Y-127254000D02*
X86207600Y-126339600D01*
X125006100Y-112420400D02*
X127393700Y-114808000D01*
X120853200Y-112420400D02*
X125006100Y-112420400D01*
X118059200Y-109626400D02*
X120853200Y-112420400D01*
X86427170Y-109626400D02*
X118059200Y-109626400D01*
X83089998Y-112963572D02*
X86427170Y-109626400D01*
X83089998Y-123221998D02*
X83089998Y-112963572D01*
X86207600Y-126339600D02*
X83089998Y-123221998D01*
X127393700Y-114808000D02*
X127254000Y-114808000D01*
X127393700Y-114808000D02*
X127304800Y-114808000D01*
D25*
X133604000Y-124714000D02*
X133604000Y-120345200D01*
X130340100Y-117754400D02*
X127393700Y-114808000D01*
X131013200Y-117754400D02*
X130340100Y-117754400D01*
X133604000Y-120345200D02*
X131013200Y-117754400D01*
X130657600Y-127050800D02*
X133440800Y-127050800D01*
X133440800Y-127050800D02*
X133604000Y-127214000D01*
D26*
X133440800Y-127050800D02*
X133604000Y-127214000D01*
D25*
X114300000Y-152846400D02*
X114300000Y-152704800D01*
X114300000Y-152704800D02*
X116586000Y-150418800D01*
X116586000Y-150418800D02*
X116586000Y-148145500D01*
D26*
X114300000Y-152846400D02*
X114300000Y-152806400D01*
D25*
X111770800Y-155956000D02*
X111770800Y-153416000D01*
X111770800Y-153416000D02*
X111861600Y-153325200D01*
X111861600Y-153325200D02*
X111861600Y-152196800D01*
X111861600Y-152196800D02*
X114046000Y-150012400D01*
X114046000Y-150012400D02*
X114046000Y-148145500D01*
X111506000Y-140525500D02*
X110858300Y-140525500D01*
X110858300Y-140525500D02*
X109016800Y-138684000D01*
X109016800Y-138684000D02*
X109016800Y-135686800D01*
X116586000Y-140525500D02*
X116586000Y-138023600D01*
X116586000Y-138023600D02*
X114249200Y-135686800D01*
X114249200Y-135686800D02*
X114016800Y-135686800D01*
X111506000Y-148145500D02*
X109410500Y-148145500D01*
X109270800Y-148285200D02*
X109270800Y-153416000D01*
X109410500Y-148145500D02*
X109270800Y-148285200D01*
X114046000Y-140525500D02*
X114046000Y-138988800D01*
X107543600Y-132994400D02*
X106476800Y-134061200D01*
X110439200Y-132994400D02*
X107543600Y-132994400D01*
X111455200Y-134010400D02*
X110439200Y-132994400D01*
X111455200Y-136296400D02*
X111455200Y-134010400D01*
X112318800Y-137160000D02*
X111455200Y-136296400D01*
X112318800Y-137261600D02*
X112318800Y-137160000D01*
X114046000Y-138988800D02*
X112318800Y-137261600D01*
D26*
X114046000Y-140525500D02*
X114046000Y-140004800D01*
D25*
X117043200Y-122326400D02*
X117043200Y-123037600D01*
X117043200Y-123037600D02*
X115417600Y-124663200D01*
X118719600Y-125312800D02*
X116067200Y-125312800D01*
X113842800Y-123088400D02*
X113842800Y-120243600D01*
X116067200Y-125312800D02*
X115417600Y-124663200D01*
X115417600Y-124663200D02*
X113842800Y-123088400D01*
X126009400Y-123520200D02*
X124485400Y-123520200D01*
X115633500Y-116992400D02*
X113449100Y-114808000D01*
X117805200Y-116992400D02*
X115633500Y-116992400D01*
X119634000Y-118821200D02*
X117805200Y-116992400D01*
X119786400Y-118821200D02*
X119634000Y-118821200D01*
X124485400Y-123520200D02*
X119786400Y-118821200D01*
X125120400Y-124815600D02*
X125120400Y-124409200D01*
X125120400Y-124409200D02*
X126009400Y-123520200D01*
X126009400Y-123520200D02*
X127203200Y-122326400D01*
D26*
X113449100Y-114808000D02*
X113449100Y-114922300D01*
D27*
X103479600Y-124206000D02*
X104880400Y-124206000D01*
X104880400Y-124206000D02*
X105410000Y-123676400D01*
X105410000Y-123676400D02*
X105410000Y-123647200D01*
X105410000Y-123647200D02*
X105410000Y-123676400D01*
X104241600Y-124206000D02*
X104880400Y-124206000D01*
X104880400Y-124206000D02*
X105410000Y-123676400D01*
X105410000Y-123676400D02*
X108842800Y-120243600D01*
X103479600Y-126746000D02*
X104241600Y-126746000D01*
X104241600Y-126746000D02*
X105257600Y-127762000D01*
D25*
X109768640Y-127762000D02*
X105257600Y-127762000D01*
X105257600Y-127762000D02*
X104241600Y-126746000D01*
X117652800Y-135737600D02*
X117652800Y-135646160D01*
X117652800Y-135646160D02*
X109768640Y-127762000D01*
X119126000Y-140525500D02*
X119126000Y-137210800D01*
X119126000Y-137210800D02*
X117652800Y-135737600D01*
D28*
X121920000Y-125285500D02*
X121920000Y-124155200D01*
X110784640Y-117144800D02*
X108447840Y-114808000D01*
X112979200Y-117144800D02*
X110784640Y-117144800D01*
X114401600Y-118567200D02*
X112979200Y-117144800D01*
X114808000Y-118567200D02*
X114401600Y-118567200D01*
X115824000Y-119583200D02*
X114808000Y-118567200D01*
X117348000Y-119583200D02*
X115824000Y-119583200D01*
X121920000Y-124155200D02*
X117348000Y-119583200D01*
D26*
X108447840Y-114808000D02*
X108447840Y-115001040D01*
D25*
X94107000Y-162725100D02*
X99631500Y-162725100D01*
D27*
X96672400Y-146100800D02*
X96672400Y-141681200D01*
X97790000Y-138684000D02*
X99923600Y-138684000D01*
X97383600Y-139090400D02*
X97790000Y-138684000D01*
X97383600Y-140970000D02*
X97383600Y-139090400D01*
X96672400Y-141681200D02*
X97383600Y-140970000D01*
X102311200Y-165709600D02*
X109270800Y-158750000D01*
X92303600Y-165709600D02*
X102311200Y-165709600D01*
X89103200Y-162509200D02*
X92303600Y-165709600D01*
X89103200Y-149402800D02*
X89103200Y-162509200D01*
X98298000Y-148310600D02*
X98323400Y-148310600D01*
X98323400Y-148310600D02*
X103225600Y-143408400D01*
X103225600Y-143408400D02*
X105105200Y-143408400D01*
X98298000Y-148310600D02*
X98298000Y-146608800D01*
X98298000Y-146608800D02*
X97790000Y-146100800D01*
X92405200Y-146100800D02*
X89103200Y-149402800D01*
X97790000Y-146100800D02*
X96672400Y-146100800D01*
X96672400Y-146100800D02*
X96316800Y-146100800D01*
X96316800Y-146100800D02*
X93522800Y-146100800D01*
X93522800Y-146100800D02*
X92405200Y-146100800D01*
X109270800Y-155956000D02*
X109270800Y-158750000D01*
X113284000Y-158648400D02*
X114300000Y-157632400D01*
X109372400Y-158648400D02*
X113284000Y-158648400D01*
X109270800Y-158750000D02*
X109372400Y-158648400D01*
X99631500Y-152565100D02*
X99631500Y-149644100D01*
X99631500Y-149644100D02*
X98298000Y-148310600D01*
D25*
X105016300Y-143319500D02*
X105105200Y-143408400D01*
X126593600Y-157886400D02*
X130759200Y-157886400D01*
X132334000Y-156311600D02*
X132334000Y-155448000D01*
X130759200Y-157886400D02*
X132334000Y-156311600D01*
X114300000Y-155346400D02*
X114300000Y-157632400D01*
X124256800Y-160223200D02*
X126593600Y-157886400D01*
X124256800Y-163982400D02*
X124256800Y-160223200D01*
X123291600Y-164947600D02*
X124256800Y-163982400D01*
X117957600Y-164947600D02*
X123291600Y-164947600D01*
X115976400Y-162966400D02*
X117957600Y-164947600D01*
X115976400Y-159308800D02*
X115976400Y-162966400D01*
X114300000Y-157632400D02*
X115976400Y-159308800D01*
X118719600Y-127812800D02*
X114818160Y-127812800D01*
X114818160Y-127812800D02*
X114767360Y-127762000D01*
X117652800Y-130737600D02*
X117652800Y-128879600D01*
X117652800Y-128879600D02*
X118719600Y-127812800D01*
X121920000Y-135445500D02*
X121920000Y-135004800D01*
X121920000Y-135004800D02*
X117652800Y-130737600D01*
X121920000Y-135445500D02*
X121920000Y-133959600D01*
X122565800Y-133313800D02*
X125069600Y-133313800D01*
X121920000Y-133959600D02*
X122565800Y-133313800D01*
X133299200Y-133288400D02*
X127635000Y-133288400D01*
X127635000Y-133288400D02*
X127609600Y-133313800D01*
X127609600Y-133313800D02*
X125069600Y-133313800D01*
X105105200Y-143408400D02*
X105105200Y-137932800D01*
X105105200Y-137932800D02*
X106476800Y-136561200D01*
X121666000Y-140525500D02*
X121666000Y-142341600D01*
X120802400Y-143205200D02*
X105308400Y-143205200D01*
X121666000Y-142341600D02*
X120802400Y-143205200D01*
X105308400Y-143205200D02*
X105105200Y-143408400D01*
D27*
X121666000Y-140525500D02*
X121666000Y-135699500D01*
X121666000Y-135699500D02*
X121920000Y-135445500D01*
D26*
X133273800Y-133313800D02*
X133299200Y-133288400D01*
X121666000Y-135699500D02*
X121920000Y-135445500D01*
D27*
X132334000Y-155448000D02*
X134772400Y-155448000D01*
D29*
X132334000Y-155448000D02*
X132334000Y-155498800D01*
D27*
X86156800Y-155956000D02*
X86156800Y-151485600D01*
X86156800Y-151485600D02*
X87020400Y-150622000D01*
X86156800Y-155956000D02*
X86156800Y-158902400D01*
X86156800Y-158902400D02*
X87020400Y-159766000D01*
X90728800Y-142798800D02*
X92303600Y-141224000D01*
X90728800Y-143256000D02*
X92100400Y-143256000D01*
X92100400Y-143256000D02*
X94132400Y-141224000D01*
X90728800Y-143256000D02*
X90728800Y-142798800D01*
X90728800Y-143256000D02*
X90728800Y-144932400D01*
X87020400Y-148640800D02*
X90728800Y-144932400D01*
X87020400Y-150622000D02*
X87020400Y-148640800D01*
X92303600Y-136144000D02*
X90373200Y-136144000D01*
X95199200Y-112115600D02*
X98044000Y-114960400D01*
X86766400Y-112115600D02*
X95199200Y-112115600D01*
X85090000Y-113792000D02*
X86766400Y-112115600D01*
X85090000Y-121818400D02*
X85090000Y-113792000D01*
X88442800Y-125171200D02*
X85090000Y-121818400D01*
X92303600Y-141224000D02*
X94132400Y-141224000D01*
X94132400Y-141224000D02*
X94183200Y-141224000D01*
X94183200Y-141224000D02*
X94894400Y-140512800D01*
X94894400Y-140512800D02*
X94894400Y-136906000D01*
X94894400Y-136906000D02*
X94132400Y-136144000D01*
X94132400Y-136144000D02*
X92303600Y-136144000D01*
X126492000Y-145491200D02*
X135737600Y-145491200D01*
X135737600Y-145491200D02*
X137210800Y-146964400D01*
X137210800Y-146964400D02*
X137210800Y-156616400D01*
X137210800Y-156616400D02*
X136245600Y-157581600D01*
X136245600Y-157581600D02*
X134366000Y-157581600D01*
X134366000Y-157581600D02*
X131927600Y-160020000D01*
X131927600Y-160020000D02*
X127863600Y-160020000D01*
X127863600Y-160020000D02*
X126441200Y-161442400D01*
X126441200Y-161442400D02*
X126441200Y-164846000D01*
X126441200Y-164846000D02*
X124206000Y-167081200D01*
X124206000Y-167081200D02*
X103632000Y-167081200D01*
X103632000Y-167081200D02*
X103073200Y-167640000D01*
X103073200Y-167640000D02*
X91338400Y-167640000D01*
X91338400Y-167640000D02*
X87020400Y-163322000D01*
X87020400Y-163322000D02*
X87020400Y-159766000D01*
X87020400Y-159766000D02*
X87020400Y-150622000D01*
X118427500Y-114808000D02*
X118427500Y-113093500D01*
X116992400Y-111658400D02*
X101498400Y-111658400D01*
X118427500Y-113093500D02*
X116992400Y-111658400D01*
X101498400Y-111658400D02*
X101498400Y-114960400D01*
X101498400Y-114960400D02*
X98044000Y-114960400D01*
X97180400Y-156502100D02*
X97180400Y-152501600D01*
X95758000Y-151079200D02*
X95758000Y-148310600D01*
X97180400Y-152501600D02*
X95758000Y-151079200D01*
X102260400Y-156502100D02*
X102260400Y-148753200D01*
X103757100Y-147256500D02*
X105105200Y-145908400D01*
X102260400Y-148753200D02*
X103757100Y-147256500D01*
D25*
X94107000Y-160185100D02*
X94107000Y-156565600D01*
X94107000Y-156565600D02*
X94170500Y-156502100D01*
X128117600Y-127050800D02*
X125385200Y-127050800D01*
X125385200Y-127050800D02*
X125120400Y-127315600D01*
X130454400Y-130737600D02*
X129162800Y-130737600D01*
X128117600Y-129692400D02*
X128117600Y-127050800D01*
X129162800Y-130737600D02*
X128117600Y-129692400D01*
X129641600Y-121107200D02*
X129641600Y-120853200D01*
X125006100Y-117449600D02*
X122377200Y-114820700D01*
X126238000Y-117449600D02*
X125006100Y-117449600D01*
X129641600Y-120853200D02*
X126238000Y-117449600D01*
X128117600Y-127050800D02*
X128117600Y-125323600D01*
X128117600Y-125323600D02*
X129641600Y-123799600D01*
X129641600Y-123799600D02*
X129641600Y-121107200D01*
X118427500Y-114808000D02*
X120192800Y-114808000D01*
X120192800Y-114808000D02*
X122364500Y-114808000D01*
X122364500Y-114808000D02*
X122377200Y-114820700D01*
X122364500Y-114808000D02*
X122377200Y-114820700D01*
X105105200Y-145908400D02*
X105145200Y-145908400D01*
X105145200Y-145908400D02*
X105562400Y-145491200D01*
X105562400Y-145491200D02*
X126492000Y-145491200D01*
X126492000Y-145491200D02*
X126542800Y-145491200D01*
X126542800Y-145491200D02*
X126644400Y-145491200D01*
X126644400Y-145491200D02*
X126746000Y-145592800D01*
X126746000Y-145592800D02*
X126746000Y-148145500D01*
D27*
X94170500Y-160121600D02*
X94107000Y-160185100D01*
X94107000Y-156565600D02*
X94170500Y-156502100D01*
X97193100Y-156502100D02*
X97180400Y-156502100D01*
X97180400Y-156502100D02*
X94170500Y-156502100D01*
X102260400Y-156502100D02*
X97193100Y-156502100D01*
D26*
X129641600Y-121107200D02*
X129641600Y-123799600D01*
X125414400Y-127315600D02*
X125120400Y-127315600D01*
X94107000Y-156565600D02*
X94170500Y-156502100D01*
X122364500Y-114808000D02*
X122377200Y-114820700D01*
X125385200Y-127050800D02*
X125120400Y-127315600D01*
D27*
X126746000Y-148145500D02*
X126746000Y-150012400D01*
X126746000Y-150012400D02*
X129692400Y-152958800D01*
X88442800Y-134213600D02*
X88442800Y-125171200D01*
X90373200Y-136144000D02*
X88442800Y-134213600D01*
X92151200Y-151942800D02*
X92151200Y-149377400D01*
D26*
X92151200Y-151942800D02*
X92151200Y-149377400D01*
D27*
X94170500Y-153962100D02*
X92151200Y-151942800D01*
X92151200Y-149377400D02*
X93218000Y-148310600D01*
D26*
X92151200Y-149377400D02*
X93218000Y-148310600D01*
X94170500Y-153962100D02*
X93764100Y-153962100D01*
D27*
X88798400Y-138836400D02*
X86958800Y-138836400D01*
X86958800Y-138836400D02*
X86207600Y-138085200D01*
X86207600Y-140411200D02*
X87223600Y-140411200D01*
X87223600Y-140411200D02*
X88798400Y-138836400D01*
X88798400Y-138836400D02*
X88950800Y-138684000D01*
X86207600Y-140411200D02*
X86207600Y-138085200D01*
X92303600Y-138684000D02*
X88950800Y-138684000D01*
X88950800Y-138684000D02*
X88014800Y-138684000D01*
X88014800Y-138684000D02*
X87985600Y-138654800D01*
X99923600Y-133604000D02*
X99923600Y-131978400D01*
X97231200Y-129286000D02*
X97231200Y-127609600D01*
X99923600Y-131978400D02*
X97231200Y-129286000D01*
X92303600Y-133604000D02*
X93268800Y-133604000D01*
X93268800Y-133604000D02*
X94731200Y-132141600D01*
X94731200Y-132141600D02*
X94731200Y-127609600D01*
X87884000Y-118211600D02*
X87884000Y-114960400D01*
X99923600Y-141224000D02*
X101346000Y-141224000D01*
X93961200Y-124441200D02*
X93961200Y-121716800D01*
X94081600Y-124561600D02*
X93961200Y-124441200D01*
X99466400Y-124561600D02*
X94081600Y-124561600D01*
X99771200Y-124866400D02*
X99466400Y-124561600D01*
X99771200Y-127812800D02*
X99771200Y-124866400D01*
X102616000Y-130657600D02*
X99771200Y-127812800D01*
X102616000Y-139954000D02*
X102616000Y-130657600D01*
X101346000Y-141224000D02*
X102616000Y-139954000D01*
X87884000Y-120711600D02*
X87884000Y-121361200D01*
X87884000Y-121361200D02*
X88239600Y-121716800D01*
X88239600Y-121716800D02*
X93961200Y-121716800D01*
X95961200Y-121716800D02*
X97891600Y-121716800D01*
X104038400Y-117957600D02*
X104038400Y-114960400D01*
X102209600Y-119786400D02*
X104038400Y-117957600D01*
X99822000Y-119786400D02*
X102209600Y-119786400D01*
X97891600Y-121716800D02*
X99822000Y-119786400D01*
X86156800Y-145796000D02*
X86156800Y-142962000D01*
X86156800Y-142962000D02*
X86207600Y-142911200D01*
X86207600Y-135585200D02*
X86207600Y-129794000D01*
D30*
G36*
X138888400Y-168200000D02*
X81329600Y-168200000D01*
X81329600Y-157108163D01*
X85184243Y-157108163D01*
X85282842Y-157374965D01*
X85892382Y-157601401D01*
X86542177Y-157577341D01*
X87030758Y-157374965D01*
X87129357Y-157108163D01*
X86156800Y-156135605D01*
X85184243Y-157108163D01*
X81329600Y-157108163D01*
X81329600Y-155691582D01*
X84511399Y-155691582D01*
X84535459Y-156341377D01*
X84737835Y-156829958D01*
X85004637Y-156928557D01*
X85977195Y-155956000D01*
X85004637Y-154983443D01*
X84737835Y-155082042D01*
X84511399Y-155691582D01*
X81329600Y-155691582D01*
X81329600Y-154803837D01*
X85184243Y-154803837D01*
X86156800Y-155776395D01*
X87129357Y-154803837D01*
X87030758Y-154537035D01*
X86421218Y-154310599D01*
X85771423Y-154334659D01*
X85282842Y-154537035D01*
X85184243Y-154803837D01*
X81329600Y-154803837D01*
X81329600Y-112963572D01*
X81704998Y-112963572D01*
X81704998Y-123221998D01*
X81810425Y-123752015D01*
X82054599Y-124117447D01*
X82110655Y-124201341D01*
X84330396Y-126421082D01*
X84128800Y-126722793D01*
X84023136Y-127254000D01*
X84128800Y-127785207D01*
X84429704Y-128235542D01*
X84861412Y-128524000D01*
X84429704Y-128812458D01*
X84128800Y-129262793D01*
X84023136Y-129794000D01*
X84128800Y-130325207D01*
X84429704Y-130775542D01*
X84822600Y-131038067D01*
X84822600Y-135585200D01*
X84910160Y-136025394D01*
X84910160Y-136235200D01*
X84954438Y-136470517D01*
X85064600Y-136641714D01*
X85064600Y-137350787D01*
X84928027Y-137555183D01*
X84822600Y-138085200D01*
X84822600Y-140411200D01*
X84910160Y-140851394D01*
X84910160Y-141061200D01*
X84954438Y-141296517D01*
X85093510Y-141512641D01*
X85305710Y-141657631D01*
X85557600Y-141708640D01*
X85562326Y-141708640D01*
X85228257Y-141931857D01*
X85177457Y-141982657D01*
X84877227Y-142431983D01*
X84771800Y-142962000D01*
X84771800Y-144869298D01*
X84522594Y-145469453D01*
X84522026Y-146119694D01*
X84770338Y-146720655D01*
X85229727Y-147180846D01*
X85830253Y-147430206D01*
X86480494Y-147430774D01*
X87081455Y-147182462D01*
X87541646Y-146723073D01*
X87791006Y-146122547D01*
X87791574Y-145472306D01*
X87543262Y-144871345D01*
X87541800Y-144869880D01*
X87541800Y-143166588D01*
X87592600Y-142911200D01*
X87487173Y-142381184D01*
X87186943Y-141931857D01*
X86983917Y-141796200D01*
X87223600Y-141796200D01*
X87753617Y-141690773D01*
X87929818Y-141573039D01*
X90561696Y-141573039D01*
X90579233Y-141655819D01*
X90849100Y-142148896D01*
X91287117Y-142501166D01*
X91826600Y-142659000D01*
X92176600Y-142659000D01*
X92176600Y-141351000D01*
X92430600Y-141351000D01*
X92430600Y-142659000D01*
X92780600Y-142659000D01*
X93320083Y-142501166D01*
X93758100Y-142148896D01*
X94027967Y-141655819D01*
X94045504Y-141573039D01*
X93923515Y-141351000D01*
X92430600Y-141351000D01*
X92176600Y-141351000D01*
X90683685Y-141351000D01*
X90561696Y-141573039D01*
X87929818Y-141573039D01*
X88202943Y-141390543D01*
X89524486Y-140069000D01*
X91135214Y-140069000D01*
X90849100Y-140299104D01*
X90579233Y-140792181D01*
X90561696Y-140874961D01*
X90683685Y-141097000D01*
X92176600Y-141097000D01*
X92176600Y-141077000D01*
X92430600Y-141077000D01*
X92430600Y-141097000D01*
X93923515Y-141097000D01*
X94045504Y-140874961D01*
X94027967Y-140792181D01*
X93916764Y-140589000D01*
X94081600Y-140589000D01*
X94127759Y-140580315D01*
X94170153Y-140553035D01*
X94198594Y-140511410D01*
X94208600Y-140462000D01*
X94208600Y-136906000D01*
X94199915Y-136859841D01*
X94172635Y-136817447D01*
X94131010Y-136789006D01*
X94081600Y-136779000D01*
X93916764Y-136779000D01*
X94027967Y-136575819D01*
X94045504Y-136493039D01*
X93923515Y-136271000D01*
X92430600Y-136271000D01*
X92430600Y-136291000D01*
X92176600Y-136291000D01*
X92176600Y-136271000D01*
X90683685Y-136271000D01*
X90561696Y-136493039D01*
X90579233Y-136575819D01*
X90849100Y-137068896D01*
X91135214Y-137299000D01*
X88132398Y-137299000D01*
X87985600Y-137269800D01*
X87706200Y-137325376D01*
X87706200Y-135839200D01*
X87697515Y-135793041D01*
X87670235Y-135750647D01*
X87628610Y-135722206D01*
X87579200Y-135712200D01*
X87567338Y-135712200D01*
X87592600Y-135585200D01*
X87592600Y-131038067D01*
X87985496Y-130775542D01*
X88286400Y-130325207D01*
X88392064Y-129794000D01*
X88286400Y-129262793D01*
X87985496Y-128812458D01*
X87553788Y-128524000D01*
X87985496Y-128235542D01*
X88286400Y-127785207D01*
X88392064Y-127254000D01*
X88286400Y-126722793D01*
X87985496Y-126272458D01*
X87535161Y-125971554D01*
X87518741Y-125968288D01*
X87487173Y-125809583D01*
X87186943Y-125360257D01*
X84474998Y-122648312D01*
X84474998Y-113537258D01*
X87000856Y-111011400D01*
X117485514Y-111011400D01*
X119873857Y-113399743D01*
X120323184Y-113699974D01*
X120853200Y-113805400D01*
X121182292Y-113805400D01*
X121225036Y-113848144D01*
X120958235Y-113946742D01*
X120731799Y-114556282D01*
X120755859Y-115206077D01*
X120958235Y-115694658D01*
X121225037Y-115793257D01*
X122197595Y-114820700D01*
X122183452Y-114806558D01*
X122363058Y-114626952D01*
X122377200Y-114641095D01*
X122391342Y-114626952D01*
X122570948Y-114806558D01*
X122556805Y-114820700D01*
X123529363Y-115793257D01*
X123796165Y-115694658D01*
X124022601Y-115085118D01*
X123998541Y-114435323D01*
X123796165Y-113946742D01*
X123529364Y-113848144D01*
X123572108Y-113805400D01*
X124432414Y-113805400D01*
X125743710Y-115116696D01*
X125743686Y-115144394D01*
X125991998Y-115745355D01*
X126451387Y-116205546D01*
X126861383Y-116375791D01*
X129290044Y-118804451D01*
X129290046Y-118804454D01*
X129578465Y-118997169D01*
X129771815Y-119126361D01*
X130340100Y-119239401D01*
X130340105Y-119239400D01*
X130398092Y-119239400D01*
X132119000Y-120960307D01*
X132119000Y-124714000D01*
X132232039Y-125282285D01*
X132314369Y-125405501D01*
X132344531Y-125565800D01*
X131834849Y-125565800D01*
X131639142Y-125272904D01*
X131188807Y-124972000D01*
X130657600Y-124866336D01*
X130126393Y-124972000D01*
X129676058Y-125272904D01*
X129375154Y-125723239D01*
X129374584Y-125726106D01*
X129351446Y-125647881D01*
X129009340Y-125225076D01*
X128531475Y-124965373D01*
X128459274Y-124951017D01*
X128244600Y-125073638D01*
X128244600Y-126923800D01*
X128264600Y-126923800D01*
X128264600Y-127177800D01*
X128244600Y-127177800D01*
X128244600Y-129027962D01*
X128459274Y-129150583D01*
X128531475Y-129136227D01*
X129009340Y-128876524D01*
X129351446Y-128453719D01*
X129374584Y-128375494D01*
X129375154Y-128378361D01*
X129676058Y-128828696D01*
X130126393Y-129129600D01*
X130657600Y-129235264D01*
X131188807Y-129129600D01*
X131639142Y-128828696D01*
X131834849Y-128535800D01*
X132960644Y-128535800D01*
X133035715Y-128585961D01*
X133604000Y-128699001D01*
X134172285Y-128585961D01*
X134654054Y-128264054D01*
X134862200Y-127952541D01*
X134862200Y-139643693D01*
X133177962Y-141327930D01*
X133245050Y-140990658D01*
X134349251Y-139886456D01*
X134349254Y-139886454D01*
X134671161Y-139404685D01*
X134784200Y-138836400D01*
X134784200Y-135788400D01*
X134671161Y-135220115D01*
X134588831Y-135096899D01*
X134552362Y-134903083D01*
X134413290Y-134686959D01*
X134201090Y-134541969D01*
X134081052Y-134517661D01*
X134349254Y-134338454D01*
X134671161Y-133856685D01*
X134784200Y-133288400D01*
X134671161Y-132720115D01*
X134349254Y-132238346D01*
X133867485Y-131916439D01*
X133299200Y-131803400D01*
X131175834Y-131803400D01*
X131210069Y-131672875D01*
X130454400Y-130917205D01*
X129698731Y-131672875D01*
X129732966Y-131803400D01*
X127635005Y-131803400D01*
X127635000Y-131803399D01*
X127507302Y-131828800D01*
X122565805Y-131828800D01*
X122565800Y-131828799D01*
X121997515Y-131941839D01*
X121515746Y-132263746D01*
X121515744Y-132263749D01*
X121397400Y-132382093D01*
X119560030Y-130544722D01*
X129106981Y-130544722D01*
X129135736Y-131075040D01*
X129283358Y-131431431D01*
X129519125Y-131493269D01*
X130274795Y-130737600D01*
X130634005Y-130737600D01*
X131389675Y-131493269D01*
X131625442Y-131431431D01*
X131801819Y-130930478D01*
X131773064Y-130400160D01*
X131625442Y-130043769D01*
X131389675Y-129981931D01*
X130634005Y-130737600D01*
X130274795Y-130737600D01*
X129519125Y-129981931D01*
X129283358Y-130043769D01*
X129106981Y-130544722D01*
X119560030Y-130544722D01*
X119137800Y-130122492D01*
X119137800Y-129802325D01*
X129698731Y-129802325D01*
X130454400Y-130557995D01*
X131210069Y-129802325D01*
X131148231Y-129566558D01*
X130647278Y-129390181D01*
X130116960Y-129418936D01*
X129760569Y-129566558D01*
X129698731Y-129802325D01*
X119137800Y-129802325D01*
X119137800Y-129494708D01*
X119371908Y-129260600D01*
X120802400Y-129260600D01*
X120848559Y-129251915D01*
X120890953Y-129224635D01*
X120919394Y-129183010D01*
X120929400Y-129133600D01*
X120929400Y-128214616D01*
X124400990Y-128214616D01*
X124456671Y-128445211D01*
X124939478Y-128613222D01*
X125449828Y-128583683D01*
X125784129Y-128445211D01*
X125839810Y-128214616D01*
X125120400Y-127495205D01*
X124400990Y-128214616D01*
X120929400Y-128214616D01*
X120929400Y-127134678D01*
X123822778Y-127134678D01*
X123852317Y-127645028D01*
X123990789Y-127979329D01*
X124221384Y-128035010D01*
X124940795Y-127315600D01*
X125300005Y-127315600D01*
X126019416Y-128035010D01*
X126250011Y-127979329D01*
X126418022Y-127496522D01*
X126399575Y-127177800D01*
X126729490Y-127177800D01*
X126729490Y-127932180D01*
X126883754Y-128453719D01*
X127225860Y-128876524D01*
X127703725Y-129136227D01*
X127775926Y-129150583D01*
X127990600Y-129027962D01*
X127990600Y-127177800D01*
X126729490Y-127177800D01*
X126399575Y-127177800D01*
X126388483Y-126986172D01*
X126250011Y-126651871D01*
X126019416Y-126596190D01*
X125300005Y-127315600D01*
X124940795Y-127315600D01*
X124221384Y-126596190D01*
X123990789Y-126651871D01*
X123822778Y-127134678D01*
X120929400Y-127134678D01*
X120929400Y-126606708D01*
X120992927Y-126670346D01*
X121593453Y-126919706D01*
X122243694Y-126920274D01*
X122844655Y-126671962D01*
X123304846Y-126212573D01*
X123368117Y-126060200D01*
X124215830Y-126060200D01*
X124218510Y-126062031D01*
X124427621Y-126104377D01*
X124514138Y-126162185D01*
X124456671Y-126185989D01*
X124400990Y-126416584D01*
X125120400Y-127135995D01*
X125839810Y-126416584D01*
X125784129Y-126185989D01*
X125736516Y-126169420D01*
X126729490Y-126169420D01*
X126729490Y-126923800D01*
X127990600Y-126923800D01*
X127990600Y-125073638D01*
X127775926Y-124951017D01*
X127703725Y-124965373D01*
X127225860Y-125225076D01*
X126883754Y-125647881D01*
X126729490Y-126169420D01*
X125736516Y-126169420D01*
X125722917Y-126164688D01*
X125811901Y-126105231D01*
X126005717Y-126068762D01*
X126221841Y-125929690D01*
X126366831Y-125717490D01*
X126409177Y-125508379D01*
X126492361Y-125383885D01*
X126553577Y-125076130D01*
X127059451Y-124570256D01*
X127059454Y-124570254D01*
X127768266Y-123861441D01*
X128127855Y-123712862D01*
X128588046Y-123253473D01*
X128837406Y-122652947D01*
X128837974Y-122002706D01*
X128589662Y-121401745D01*
X128130273Y-120941554D01*
X127529747Y-120692194D01*
X126879506Y-120691626D01*
X126278545Y-120939938D01*
X125818354Y-121399327D01*
X125667948Y-121761544D01*
X125394292Y-122035200D01*
X125100507Y-122035200D01*
X120836454Y-117771146D01*
X120377170Y-117464263D01*
X119187200Y-116274292D01*
X119301458Y-116226965D01*
X119395363Y-115972863D01*
X121404643Y-115972863D01*
X121503242Y-116239665D01*
X122112782Y-116466101D01*
X122762577Y-116442041D01*
X123251158Y-116239665D01*
X123349757Y-115972863D01*
X122377200Y-115000305D01*
X121404643Y-115972863D01*
X119395363Y-115972863D01*
X119400057Y-115960163D01*
X118427500Y-114987605D01*
X118413358Y-115001748D01*
X118233752Y-114822142D01*
X118247895Y-114808000D01*
X118607105Y-114808000D01*
X119579663Y-115780557D01*
X119846465Y-115681958D01*
X120072901Y-115072418D01*
X120048841Y-114422623D01*
X119846465Y-113934042D01*
X119579663Y-113835443D01*
X118607105Y-114808000D01*
X118247895Y-114808000D01*
X117275337Y-113835443D01*
X117008535Y-113934042D01*
X116782099Y-114543582D01*
X116806159Y-115193377D01*
X116936231Y-115507400D01*
X116248607Y-115507400D01*
X114984141Y-114242933D01*
X114835562Y-113883345D01*
X114608451Y-113655837D01*
X117454943Y-113655837D01*
X118427500Y-114628395D01*
X119400057Y-113655837D01*
X119301458Y-113389035D01*
X118691918Y-113162599D01*
X118042123Y-113186659D01*
X117553542Y-113389035D01*
X117454943Y-113655837D01*
X114608451Y-113655837D01*
X114376173Y-113423154D01*
X113775647Y-113173794D01*
X113125406Y-113173226D01*
X113125358Y-113173246D01*
X113102546Y-113173226D01*
X112501585Y-113421538D01*
X112041394Y-113880927D01*
X111792034Y-114481453D01*
X111791466Y-115131694D01*
X112039778Y-115732655D01*
X112116789Y-115809800D01*
X111337615Y-115809800D01*
X110082552Y-114554737D01*
X110082614Y-114484306D01*
X109834302Y-113883345D01*
X109374913Y-113423154D01*
X108774387Y-113173794D01*
X108124146Y-113173226D01*
X107523185Y-113421538D01*
X107062994Y-113880927D01*
X106813634Y-114481453D01*
X106813066Y-115131694D01*
X107061378Y-115732655D01*
X107520767Y-116192846D01*
X108121293Y-116442206D01*
X108194134Y-116442270D01*
X109840650Y-118088785D01*
X109840652Y-118088788D01*
X110079230Y-118248200D01*
X110273757Y-118378179D01*
X110784640Y-118479800D01*
X112426224Y-118479800D01*
X112944936Y-118998512D01*
X112741359Y-119129510D01*
X112596369Y-119341710D01*
X112554023Y-119550821D01*
X112470839Y-119675315D01*
X112357800Y-120243600D01*
X112357800Y-123088395D01*
X112357799Y-123088400D01*
X112470839Y-123656685D01*
X112792746Y-124138454D01*
X114367544Y-125713251D01*
X114367546Y-125713254D01*
X114531406Y-125877114D01*
X114394119Y-125876994D01*
X114073671Y-126009400D01*
X110462465Y-126009400D01*
X110145171Y-125877648D01*
X109395399Y-125876994D01*
X109074951Y-126009400D01*
X107797600Y-126009400D01*
X107751441Y-126018085D01*
X107709047Y-126045365D01*
X107680606Y-126086990D01*
X107670600Y-126136400D01*
X107670600Y-126277000D01*
X106857800Y-126277000D01*
X106857800Y-124187286D01*
X109822143Y-121222943D01*
X110122373Y-120773616D01*
X110227800Y-120243600D01*
X110122373Y-119713584D01*
X109822143Y-119264257D01*
X109372816Y-118964027D01*
X108842800Y-118858600D01*
X108312784Y-118964027D01*
X107863457Y-119264257D01*
X104518656Y-122609058D01*
X104430657Y-122667857D01*
X104371858Y-122755856D01*
X104306714Y-122821000D01*
X104291589Y-122821000D01*
X104275954Y-122817890D01*
X102683246Y-122817890D01*
X102152039Y-122923554D01*
X102019371Y-123012200D01*
X100279200Y-123012200D01*
X100233041Y-123020885D01*
X100190647Y-123048165D01*
X100162206Y-123089790D01*
X100152200Y-123139200D01*
X100152200Y-123386118D01*
X99996417Y-123282027D01*
X99466400Y-123176600D01*
X95346200Y-123176600D01*
X95346200Y-123014240D01*
X95521006Y-123014240D01*
X95961200Y-123101800D01*
X97891600Y-123101800D01*
X98421617Y-122996373D01*
X98870943Y-122696143D01*
X100395686Y-121171400D01*
X102209600Y-121171400D01*
X102739617Y-121065973D01*
X103188943Y-120765743D01*
X105017743Y-118936943D01*
X105317974Y-118487616D01*
X105423400Y-117957600D01*
X105423400Y-115772389D01*
X105426510Y-115756754D01*
X105426510Y-114164046D01*
X105320846Y-113632839D01*
X105019942Y-113182504D01*
X104569607Y-112881600D01*
X104038400Y-112775936D01*
X103507193Y-112881600D01*
X103056858Y-113182504D01*
X102755954Y-113632839D01*
X102755384Y-113635706D01*
X102732246Y-113557481D01*
X102390140Y-113134676D01*
X101912275Y-112874973D01*
X101840074Y-112860617D01*
X101625400Y-112983238D01*
X101625400Y-114833400D01*
X101645400Y-114833400D01*
X101645400Y-115087400D01*
X101625400Y-115087400D01*
X101625400Y-116937562D01*
X101840074Y-117060183D01*
X101912275Y-117045827D01*
X102390140Y-116786124D01*
X102653400Y-116460764D01*
X102653400Y-117383914D01*
X101635914Y-118401400D01*
X99822000Y-118401400D01*
X99291983Y-118506827D01*
X99093855Y-118639212D01*
X98842657Y-118807057D01*
X97317914Y-120331800D01*
X95961200Y-120331800D01*
X95521006Y-120419360D01*
X95311200Y-120419360D01*
X95075883Y-120463638D01*
X94859759Y-120602710D01*
X94821870Y-120658162D01*
X94491217Y-120437227D01*
X93961200Y-120331800D01*
X89193453Y-120331800D01*
X89184802Y-120288308D01*
X89191753Y-120283835D01*
X89220194Y-120242210D01*
X89230200Y-120192800D01*
X89230200Y-118406661D01*
X89269000Y-118211600D01*
X89269000Y-116112563D01*
X97071443Y-116112563D01*
X97170042Y-116379365D01*
X97779582Y-116605801D01*
X98429377Y-116581741D01*
X98917958Y-116379365D01*
X99016557Y-116112563D01*
X98044000Y-115140005D01*
X97071443Y-116112563D01*
X89269000Y-116112563D01*
X89269000Y-115887102D01*
X89518206Y-115286947D01*
X89518722Y-114695982D01*
X96398599Y-114695982D01*
X96422659Y-115345777D01*
X96625035Y-115834358D01*
X96891837Y-115932957D01*
X97864395Y-114960400D01*
X98223605Y-114960400D01*
X99196163Y-115932957D01*
X99462965Y-115834358D01*
X99689401Y-115224818D01*
X99684313Y-115087400D01*
X100110290Y-115087400D01*
X100110290Y-115841780D01*
X100264554Y-116363319D01*
X100606660Y-116786124D01*
X101084525Y-117045827D01*
X101156726Y-117060183D01*
X101371400Y-116937562D01*
X101371400Y-115087400D01*
X100110290Y-115087400D01*
X99684313Y-115087400D01*
X99665341Y-114575023D01*
X99462965Y-114086442D01*
X99442882Y-114079020D01*
X100110290Y-114079020D01*
X100110290Y-114833400D01*
X101371400Y-114833400D01*
X101371400Y-112983238D01*
X101156726Y-112860617D01*
X101084525Y-112874973D01*
X100606660Y-113134676D01*
X100264554Y-113557481D01*
X100110290Y-114079020D01*
X99442882Y-114079020D01*
X99196163Y-113987843D01*
X98223605Y-114960400D01*
X97864395Y-114960400D01*
X96891837Y-113987843D01*
X96625035Y-114086442D01*
X96398599Y-114695982D01*
X89518722Y-114695982D01*
X89518774Y-114636706D01*
X89270462Y-114035745D01*
X89043351Y-113808237D01*
X97071443Y-113808237D01*
X98044000Y-114780795D01*
X99016557Y-113808237D01*
X98917958Y-113541435D01*
X98308418Y-113314999D01*
X97658623Y-113339059D01*
X97170042Y-113541435D01*
X97071443Y-113808237D01*
X89043351Y-113808237D01*
X88811073Y-113575554D01*
X88210547Y-113326194D01*
X87560306Y-113325626D01*
X86959345Y-113573938D01*
X86499154Y-114033327D01*
X86249794Y-114633853D01*
X86249226Y-115284094D01*
X86497538Y-115885055D01*
X86499000Y-115886520D01*
X86499000Y-118211600D01*
X86537800Y-118406661D01*
X86537800Y-120192800D01*
X86546485Y-120238959D01*
X86573765Y-120281353D01*
X86583287Y-120287859D01*
X86499000Y-120711600D01*
X86499000Y-121361200D01*
X86604427Y-121891217D01*
X86776164Y-122148239D01*
X86904657Y-122340543D01*
X87260257Y-122696143D01*
X87709583Y-122996373D01*
X88239600Y-123101800D01*
X92576200Y-123101800D01*
X92576200Y-124441200D01*
X92681627Y-124971217D01*
X92939994Y-125357890D01*
X92981857Y-125420543D01*
X93102257Y-125540943D01*
X93551583Y-125841173D01*
X94081600Y-125946600D01*
X98386200Y-125946600D01*
X98386200Y-126571735D01*
X98345290Y-126508159D01*
X98133090Y-126363169D01*
X97881200Y-126312160D01*
X97671394Y-126312160D01*
X97231200Y-126224600D01*
X96791006Y-126312160D01*
X96581200Y-126312160D01*
X96345883Y-126356438D01*
X96129759Y-126495510D01*
X95984769Y-126707710D01*
X95933760Y-126959600D01*
X95933760Y-126964325D01*
X95710543Y-126630257D01*
X95261217Y-126330027D01*
X94731200Y-126224600D01*
X94201183Y-126330027D01*
X93751857Y-126630257D01*
X93451627Y-127079583D01*
X93346200Y-127609600D01*
X93346200Y-131567914D01*
X93267330Y-131646784D01*
X93115213Y-131648206D01*
X93070241Y-131656885D01*
X93027847Y-131684165D01*
X92999406Y-131725790D01*
X92989400Y-131775200D01*
X92989400Y-131924714D01*
X92735733Y-132178381D01*
X92688570Y-132169000D01*
X91918630Y-132169000D01*
X91369479Y-132278233D01*
X90903932Y-132589302D01*
X90592863Y-133054849D01*
X90483630Y-133604000D01*
X90592863Y-134153151D01*
X90903932Y-134618698D01*
X91281751Y-134871149D01*
X90849100Y-135219104D01*
X90579233Y-135712181D01*
X90561696Y-135794961D01*
X90683685Y-136017000D01*
X92176600Y-136017000D01*
X92176600Y-135997000D01*
X92430600Y-135997000D01*
X92430600Y-136017000D01*
X93923515Y-136017000D01*
X94045504Y-135794961D01*
X94027967Y-135712181D01*
X93861157Y-135407400D01*
X96291400Y-135407400D01*
X96291400Y-138277600D01*
X96291746Y-138279441D01*
X96104027Y-138560383D01*
X95998600Y-139090400D01*
X95998600Y-140396314D01*
X95693057Y-140701857D01*
X95392827Y-141151183D01*
X95287400Y-141681200D01*
X95287400Y-144715800D01*
X92405200Y-144715800D01*
X91875183Y-144821227D01*
X91593586Y-145009384D01*
X91425857Y-145121457D01*
X88123857Y-148423457D01*
X87823627Y-148872783D01*
X87718200Y-149402800D01*
X87718200Y-155425912D01*
X87575765Y-155082042D01*
X87308963Y-154983443D01*
X86336405Y-155956000D01*
X87308963Y-156928557D01*
X87575765Y-156829958D01*
X87718200Y-156446539D01*
X87718200Y-162509200D01*
X87823627Y-163039217D01*
X87993457Y-163293385D01*
X88123857Y-163488543D01*
X91324257Y-166688943D01*
X91773583Y-166989173D01*
X92303600Y-167094600D01*
X102311200Y-167094600D01*
X102841217Y-166989173D01*
X103290543Y-166688943D01*
X109946086Y-160033400D01*
X113284000Y-160033400D01*
X113814017Y-159927973D01*
X114222516Y-159655023D01*
X114491400Y-159923907D01*
X114491400Y-162966395D01*
X114491399Y-162966400D01*
X114604439Y-163534685D01*
X114926346Y-164016454D01*
X116907546Y-165997654D01*
X117389315Y-166319561D01*
X117957600Y-166432601D01*
X117957605Y-166432600D01*
X123291595Y-166432600D01*
X123291600Y-166432601D01*
X123859885Y-166319561D01*
X124341654Y-165997654D01*
X125306854Y-165032454D01*
X125628761Y-164550685D01*
X125741801Y-163982400D01*
X125741800Y-163982395D01*
X125741800Y-160838308D01*
X127208707Y-159371400D01*
X130759195Y-159371400D01*
X130759200Y-159371401D01*
X131327485Y-159258361D01*
X131809254Y-158936454D01*
X133384051Y-157361656D01*
X133384054Y-157361654D01*
X133705961Y-156879885D01*
X133715287Y-156833000D01*
X134772400Y-156833000D01*
X135212594Y-156745440D01*
X135422400Y-156745440D01*
X135657717Y-156701162D01*
X135873841Y-156562090D01*
X136018831Y-156349890D01*
X136069840Y-156098000D01*
X136069840Y-155888194D01*
X136157400Y-155448000D01*
X136069840Y-155007806D01*
X136069840Y-154798000D01*
X136025562Y-154562683D01*
X135886490Y-154346559D01*
X135674290Y-154201569D01*
X135554252Y-154177261D01*
X135822454Y-153998054D01*
X136144361Y-153516285D01*
X136257400Y-152948000D01*
X136257400Y-148336005D01*
X136257401Y-148336000D01*
X136144361Y-147767715D01*
X135979042Y-147520297D01*
X135822454Y-147285946D01*
X135822451Y-147285944D01*
X135712200Y-147175692D01*
X135712200Y-146253200D01*
X135703515Y-146207041D01*
X135676235Y-146164647D01*
X135634610Y-146136206D01*
X135585200Y-146126200D01*
X127609600Y-146126200D01*
X127563441Y-146134885D01*
X127521047Y-146162165D01*
X127492606Y-146203790D01*
X127482600Y-146253200D01*
X127482600Y-146587943D01*
X127177819Y-146421133D01*
X127095039Y-146403596D01*
X126873000Y-146525585D01*
X126873000Y-148018500D01*
X126893000Y-148018500D01*
X126893000Y-148272500D01*
X126873000Y-148272500D01*
X126873000Y-148292500D01*
X126619000Y-148292500D01*
X126619000Y-148272500D01*
X126599000Y-148272500D01*
X126599000Y-148018500D01*
X126619000Y-148018500D01*
X126619000Y-146525585D01*
X126396961Y-146403596D01*
X126314181Y-146421133D01*
X126009400Y-146587943D01*
X126009400Y-146354800D01*
X126000715Y-146308641D01*
X125973435Y-146266247D01*
X125931810Y-146237806D01*
X125882400Y-146227800D01*
X110794800Y-146227800D01*
X110748641Y-146236485D01*
X110706247Y-146263765D01*
X110677806Y-146305390D01*
X110667800Y-146354800D01*
X110667800Y-146627900D01*
X110619010Y-146660500D01*
X109410505Y-146660500D01*
X109410500Y-146660499D01*
X108981507Y-146745832D01*
X108842215Y-146773539D01*
X108360446Y-147095446D01*
X108360444Y-147095449D01*
X108220746Y-147235146D01*
X107898839Y-147716915D01*
X107785799Y-148285200D01*
X107785800Y-148285205D01*
X107785800Y-153416000D01*
X107898839Y-153984285D01*
X107981169Y-154107501D01*
X108017638Y-154301317D01*
X108156710Y-154517441D01*
X108368910Y-154662431D01*
X108480323Y-154684993D01*
X108385483Y-154702838D01*
X108169359Y-154841910D01*
X108024369Y-155054110D01*
X107973360Y-155306000D01*
X107973360Y-155515806D01*
X107885800Y-155956000D01*
X107885800Y-158176314D01*
X101737514Y-164324600D01*
X100040564Y-164324600D01*
X100556155Y-164111562D01*
X101016346Y-163652173D01*
X101265706Y-163051647D01*
X101266274Y-162401406D01*
X101017962Y-161800445D01*
X100558573Y-161340254D01*
X99958047Y-161090894D01*
X99307806Y-161090326D01*
X98945325Y-161240100D01*
X97256600Y-161240100D01*
X97256600Y-158699200D01*
X97247915Y-158653041D01*
X97220635Y-158610647D01*
X97179010Y-158582206D01*
X97129600Y-158572200D01*
X96876086Y-158572200D01*
X93039283Y-158539685D01*
X93033137Y-157814494D01*
X93289120Y-157890210D01*
X94043500Y-157890210D01*
X94043500Y-156629100D01*
X94297500Y-156629100D01*
X94297500Y-157890210D01*
X95051880Y-157890210D01*
X95573419Y-157735946D01*
X95996224Y-157393840D01*
X96255927Y-156915975D01*
X96270283Y-156843774D01*
X96147662Y-156629100D01*
X94297500Y-156629100D01*
X94043500Y-156629100D01*
X94023500Y-156629100D01*
X94023500Y-156375100D01*
X94043500Y-156375100D01*
X94043500Y-156355100D01*
X94297500Y-156355100D01*
X94297500Y-156375100D01*
X96147662Y-156375100D01*
X96270283Y-156160426D01*
X96255927Y-156088225D01*
X95996224Y-155610360D01*
X95573419Y-155268254D01*
X95495194Y-155245116D01*
X95498061Y-155244546D01*
X95948396Y-154943642D01*
X96249300Y-154493307D01*
X96354964Y-153962100D01*
X96249300Y-153430893D01*
X95948396Y-152980558D01*
X95498061Y-152679654D01*
X94966854Y-152573990D01*
X94741076Y-152573990D01*
X93536200Y-151369114D01*
X93536200Y-149951086D01*
X93979968Y-149507318D01*
X94008303Y-149495610D01*
X94213457Y-149290813D01*
X94957392Y-149290813D01*
X95026857Y-149532997D01*
X95550302Y-149719744D01*
X96105368Y-149691962D01*
X96489143Y-149532997D01*
X96558608Y-149290813D01*
X95758000Y-148490205D01*
X94957392Y-149290813D01*
X94213457Y-149290813D01*
X94401629Y-149102970D01*
X94481395Y-148910873D01*
X94535603Y-149041743D01*
X94777787Y-149111208D01*
X95578395Y-148310600D01*
X95564253Y-148296458D01*
X95743858Y-148116853D01*
X95758000Y-148130995D01*
X95772143Y-148116853D01*
X95951748Y-148296458D01*
X95937605Y-148310600D01*
X96738213Y-149111208D01*
X96980397Y-149041743D01*
X97030509Y-148901282D01*
X97112990Y-149100903D01*
X97505630Y-149494229D01*
X97535237Y-149506523D01*
X98246500Y-150217786D01*
X98246500Y-151638398D01*
X97997294Y-152238553D01*
X97996726Y-152888794D01*
X98245038Y-153489755D01*
X98704427Y-153949946D01*
X99304953Y-154199306D01*
X99955194Y-154199874D01*
X100556155Y-153951562D01*
X101016346Y-153492173D01*
X101265706Y-152891647D01*
X101266274Y-152241406D01*
X101017962Y-151640445D01*
X101016500Y-151638980D01*
X101016500Y-149644100D01*
X100990599Y-149513885D01*
X100911074Y-149114084D01*
X100610843Y-148664757D01*
X100269386Y-148323300D01*
X101785270Y-146807416D01*
X104385790Y-146807416D01*
X104441471Y-147038011D01*
X104924278Y-147206022D01*
X105434628Y-147176483D01*
X105768929Y-147038011D01*
X105824610Y-146807416D01*
X105105200Y-146088005D01*
X104385790Y-146807416D01*
X101785270Y-146807416D01*
X102865208Y-145727478D01*
X103807578Y-145727478D01*
X103837117Y-146237828D01*
X103975589Y-146572129D01*
X104206184Y-146627810D01*
X104925595Y-145908400D01*
X105284805Y-145908400D01*
X106004216Y-146627810D01*
X106234811Y-146572129D01*
X106402822Y-146089322D01*
X106373283Y-145578972D01*
X106234811Y-145244671D01*
X106004216Y-145188990D01*
X105284805Y-145908400D01*
X104925595Y-145908400D01*
X104206184Y-145188990D01*
X103975589Y-145244671D01*
X103807578Y-145727478D01*
X102865208Y-145727478D01*
X103799286Y-144793400D01*
X104437943Y-144793400D01*
X104385790Y-145009384D01*
X105105200Y-145728795D01*
X105824610Y-145009384D01*
X105768929Y-144778789D01*
X105707717Y-144757488D01*
X105796701Y-144698031D01*
X105838319Y-144690200D01*
X120802395Y-144690200D01*
X120802400Y-144690201D01*
X121370685Y-144577161D01*
X121691400Y-144362867D01*
X121691400Y-144627600D01*
X121700085Y-144673759D01*
X121727365Y-144716153D01*
X121768990Y-144744594D01*
X121818400Y-144754600D01*
X129641600Y-144754600D01*
X129687759Y-144745915D01*
X129730153Y-144718635D01*
X129758594Y-144677010D01*
X129768600Y-144627600D01*
X129768600Y-144471844D01*
X129844800Y-144487001D01*
X129844805Y-144487000D01*
X133603995Y-144487000D01*
X133604000Y-144487001D01*
X134172285Y-144373961D01*
X134654054Y-144052054D01*
X137397251Y-141308856D01*
X137397254Y-141308854D01*
X137719161Y-140827085D01*
X137744070Y-140701857D01*
X137832201Y-140258800D01*
X137832200Y-140258795D01*
X137832200Y-118760240D01*
X137719161Y-118191955D01*
X137397254Y-117710186D01*
X137397251Y-117710184D01*
X133930001Y-114242933D01*
X133781422Y-113883345D01*
X133322033Y-113423154D01*
X132721507Y-113173794D01*
X132257800Y-113173389D01*
X132257800Y-113030000D01*
X132249115Y-112983841D01*
X132221835Y-112941447D01*
X132180210Y-112913006D01*
X132130800Y-112903000D01*
X128168400Y-112903000D01*
X128122241Y-112911685D01*
X128079847Y-112938965D01*
X128051406Y-112980590D01*
X128041400Y-113030000D01*
X128041400Y-113307148D01*
X127720247Y-113173794D01*
X127718178Y-113173792D01*
X125985443Y-111441057D01*
X125536117Y-111140827D01*
X125006100Y-111035400D01*
X121426886Y-111035400D01*
X119038543Y-108647057D01*
X118589217Y-108346827D01*
X118059200Y-108241400D01*
X86427170Y-108241400D01*
X85897153Y-108346827D01*
X85447827Y-108647057D01*
X82110655Y-111984229D01*
X81810425Y-112433555D01*
X81704998Y-112963572D01*
X81329600Y-112963572D01*
X81329600Y-108152000D01*
X138888400Y-108152000D01*
X138888400Y-168200000D01*
X138888400Y-168200000D01*
G37*
X138888400Y-168200000D02*
X81329600Y-168200000D01*
X81329600Y-157108163D01*
X85184243Y-157108163D01*
X85282842Y-157374965D01*
X85892382Y-157601401D01*
X86542177Y-157577341D01*
X87030758Y-157374965D01*
X87129357Y-157108163D01*
X86156800Y-156135605D01*
X85184243Y-157108163D01*
X81329600Y-157108163D01*
X81329600Y-155691582D01*
X84511399Y-155691582D01*
X84535459Y-156341377D01*
X84737835Y-156829958D01*
X85004637Y-156928557D01*
X85977195Y-155956000D01*
X85004637Y-154983443D01*
X84737835Y-155082042D01*
X84511399Y-155691582D01*
X81329600Y-155691582D01*
X81329600Y-154803837D01*
X85184243Y-154803837D01*
X86156800Y-155776395D01*
X87129357Y-154803837D01*
X87030758Y-154537035D01*
X86421218Y-154310599D01*
X85771423Y-154334659D01*
X85282842Y-154537035D01*
X85184243Y-154803837D01*
X81329600Y-154803837D01*
X81329600Y-112963572D01*
X81704998Y-112963572D01*
X81704998Y-123221998D01*
X81810425Y-123752015D01*
X82054599Y-124117447D01*
X82110655Y-124201341D01*
X84330396Y-126421082D01*
X84128800Y-126722793D01*
X84023136Y-127254000D01*
X84128800Y-127785207D01*
X84429704Y-128235542D01*
X84861412Y-128524000D01*
X84429704Y-128812458D01*
X84128800Y-129262793D01*
X84023136Y-129794000D01*
X84128800Y-130325207D01*
X84429704Y-130775542D01*
X84822600Y-131038067D01*
X84822600Y-135585200D01*
X84910160Y-136025394D01*
X84910160Y-136235200D01*
X84954438Y-136470517D01*
X85064600Y-136641714D01*
X85064600Y-137350787D01*
X84928027Y-137555183D01*
X84822600Y-138085200D01*
X84822600Y-140411200D01*
X84910160Y-140851394D01*
X84910160Y-141061200D01*
X84954438Y-141296517D01*
X85093510Y-141512641D01*
X85305710Y-141657631D01*
X85557600Y-141708640D01*
X85562326Y-141708640D01*
X85228257Y-141931857D01*
X85177457Y-141982657D01*
X84877227Y-142431983D01*
X84771800Y-142962000D01*
X84771800Y-144869298D01*
X84522594Y-145469453D01*
X84522026Y-146119694D01*
X84770338Y-146720655D01*
X85229727Y-147180846D01*
X85830253Y-147430206D01*
X86480494Y-147430774D01*
X87081455Y-147182462D01*
X87541646Y-146723073D01*
X87791006Y-146122547D01*
X87791574Y-145472306D01*
X87543262Y-144871345D01*
X87541800Y-144869880D01*
X87541800Y-143166588D01*
X87592600Y-142911200D01*
X87487173Y-142381184D01*
X87186943Y-141931857D01*
X86983917Y-141796200D01*
X87223600Y-141796200D01*
X87753617Y-141690773D01*
X87929818Y-141573039D01*
X90561696Y-141573039D01*
X90579233Y-141655819D01*
X90849100Y-142148896D01*
X91287117Y-142501166D01*
X91826600Y-142659000D01*
X92176600Y-142659000D01*
X92176600Y-141351000D01*
X92430600Y-141351000D01*
X92430600Y-142659000D01*
X92780600Y-142659000D01*
X93320083Y-142501166D01*
X93758100Y-142148896D01*
X94027967Y-141655819D01*
X94045504Y-141573039D01*
X93923515Y-141351000D01*
X92430600Y-141351000D01*
X92176600Y-141351000D01*
X90683685Y-141351000D01*
X90561696Y-141573039D01*
X87929818Y-141573039D01*
X88202943Y-141390543D01*
X89524486Y-140069000D01*
X91135214Y-140069000D01*
X90849100Y-140299104D01*
X90579233Y-140792181D01*
X90561696Y-140874961D01*
X90683685Y-141097000D01*
X92176600Y-141097000D01*
X92176600Y-141077000D01*
X92430600Y-141077000D01*
X92430600Y-141097000D01*
X93923515Y-141097000D01*
X94045504Y-140874961D01*
X94027967Y-140792181D01*
X93916764Y-140589000D01*
X94081600Y-140589000D01*
X94127759Y-140580315D01*
X94170153Y-140553035D01*
X94198594Y-140511410D01*
X94208600Y-140462000D01*
X94208600Y-136906000D01*
X94199915Y-136859841D01*
X94172635Y-136817447D01*
X94131010Y-136789006D01*
X94081600Y-136779000D01*
X93916764Y-136779000D01*
X94027967Y-136575819D01*
X94045504Y-136493039D01*
X93923515Y-136271000D01*
X92430600Y-136271000D01*
X92430600Y-136291000D01*
X92176600Y-136291000D01*
X92176600Y-136271000D01*
X90683685Y-136271000D01*
X90561696Y-136493039D01*
X90579233Y-136575819D01*
X90849100Y-137068896D01*
X91135214Y-137299000D01*
X88132398Y-137299000D01*
X87985600Y-137269800D01*
X87706200Y-137325376D01*
X87706200Y-135839200D01*
X87697515Y-135793041D01*
X87670235Y-135750647D01*
X87628610Y-135722206D01*
X87579200Y-135712200D01*
X87567338Y-135712200D01*
X87592600Y-135585200D01*
X87592600Y-131038067D01*
X87985496Y-130775542D01*
X88286400Y-130325207D01*
X88392064Y-129794000D01*
X88286400Y-129262793D01*
X87985496Y-128812458D01*
X87553788Y-128524000D01*
X87985496Y-128235542D01*
X88286400Y-127785207D01*
X88392064Y-127254000D01*
X88286400Y-126722793D01*
X87985496Y-126272458D01*
X87535161Y-125971554D01*
X87518741Y-125968288D01*
X87487173Y-125809583D01*
X87186943Y-125360257D01*
X84474998Y-122648312D01*
X84474998Y-113537258D01*
X87000856Y-111011400D01*
X117485514Y-111011400D01*
X119873857Y-113399743D01*
X120323184Y-113699974D01*
X120853200Y-113805400D01*
X121182292Y-113805400D01*
X121225036Y-113848144D01*
X120958235Y-113946742D01*
X120731799Y-114556282D01*
X120755859Y-115206077D01*
X120958235Y-115694658D01*
X121225037Y-115793257D01*
X122197595Y-114820700D01*
X122183452Y-114806558D01*
X122363058Y-114626952D01*
X122377200Y-114641095D01*
X122391342Y-114626952D01*
X122570948Y-114806558D01*
X122556805Y-114820700D01*
X123529363Y-115793257D01*
X123796165Y-115694658D01*
X124022601Y-115085118D01*
X123998541Y-114435323D01*
X123796165Y-113946742D01*
X123529364Y-113848144D01*
X123572108Y-113805400D01*
X124432414Y-113805400D01*
X125743710Y-115116696D01*
X125743686Y-115144394D01*
X125991998Y-115745355D01*
X126451387Y-116205546D01*
X126861383Y-116375791D01*
X129290044Y-118804451D01*
X129290046Y-118804454D01*
X129578465Y-118997169D01*
X129771815Y-119126361D01*
X130340100Y-119239401D01*
X130340105Y-119239400D01*
X130398092Y-119239400D01*
X132119000Y-120960307D01*
X132119000Y-124714000D01*
X132232039Y-125282285D01*
X132314369Y-125405501D01*
X132344531Y-125565800D01*
X131834849Y-125565800D01*
X131639142Y-125272904D01*
X131188807Y-124972000D01*
X130657600Y-124866336D01*
X130126393Y-124972000D01*
X129676058Y-125272904D01*
X129375154Y-125723239D01*
X129374584Y-125726106D01*
X129351446Y-125647881D01*
X129009340Y-125225076D01*
X128531475Y-124965373D01*
X128459274Y-124951017D01*
X128244600Y-125073638D01*
X128244600Y-126923800D01*
X128264600Y-126923800D01*
X128264600Y-127177800D01*
X128244600Y-127177800D01*
X128244600Y-129027962D01*
X128459274Y-129150583D01*
X128531475Y-129136227D01*
X129009340Y-128876524D01*
X129351446Y-128453719D01*
X129374584Y-128375494D01*
X129375154Y-128378361D01*
X129676058Y-128828696D01*
X130126393Y-129129600D01*
X130657600Y-129235264D01*
X131188807Y-129129600D01*
X131639142Y-128828696D01*
X131834849Y-128535800D01*
X132960644Y-128535800D01*
X133035715Y-128585961D01*
X133604000Y-128699001D01*
X134172285Y-128585961D01*
X134654054Y-128264054D01*
X134862200Y-127952541D01*
X134862200Y-139643693D01*
X133177962Y-141327930D01*
X133245050Y-140990658D01*
X134349251Y-139886456D01*
X134349254Y-139886454D01*
X134671161Y-139404685D01*
X134784200Y-138836400D01*
X134784200Y-135788400D01*
X134671161Y-135220115D01*
X134588831Y-135096899D01*
X134552362Y-134903083D01*
X134413290Y-134686959D01*
X134201090Y-134541969D01*
X134081052Y-134517661D01*
X134349254Y-134338454D01*
X134671161Y-133856685D01*
X134784200Y-133288400D01*
X134671161Y-132720115D01*
X134349254Y-132238346D01*
X133867485Y-131916439D01*
X133299200Y-131803400D01*
X131175834Y-131803400D01*
X131210069Y-131672875D01*
X130454400Y-130917205D01*
X129698731Y-131672875D01*
X129732966Y-131803400D01*
X127635005Y-131803400D01*
X127635000Y-131803399D01*
X127507302Y-131828800D01*
X122565805Y-131828800D01*
X122565800Y-131828799D01*
X121997515Y-131941839D01*
X121515746Y-132263746D01*
X121515744Y-132263749D01*
X121397400Y-132382093D01*
X119560030Y-130544722D01*
X129106981Y-130544722D01*
X129135736Y-131075040D01*
X129283358Y-131431431D01*
X129519125Y-131493269D01*
X130274795Y-130737600D01*
X130634005Y-130737600D01*
X131389675Y-131493269D01*
X131625442Y-131431431D01*
X131801819Y-130930478D01*
X131773064Y-130400160D01*
X131625442Y-130043769D01*
X131389675Y-129981931D01*
X130634005Y-130737600D01*
X130274795Y-130737600D01*
X129519125Y-129981931D01*
X129283358Y-130043769D01*
X129106981Y-130544722D01*
X119560030Y-130544722D01*
X119137800Y-130122492D01*
X119137800Y-129802325D01*
X129698731Y-129802325D01*
X130454400Y-130557995D01*
X131210069Y-129802325D01*
X131148231Y-129566558D01*
X130647278Y-129390181D01*
X130116960Y-129418936D01*
X129760569Y-129566558D01*
X129698731Y-129802325D01*
X119137800Y-129802325D01*
X119137800Y-129494708D01*
X119371908Y-129260600D01*
X120802400Y-129260600D01*
X120848559Y-129251915D01*
X120890953Y-129224635D01*
X120919394Y-129183010D01*
X120929400Y-129133600D01*
X120929400Y-128214616D01*
X124400990Y-128214616D01*
X124456671Y-128445211D01*
X124939478Y-128613222D01*
X125449828Y-128583683D01*
X125784129Y-128445211D01*
X125839810Y-128214616D01*
X125120400Y-127495205D01*
X124400990Y-128214616D01*
X120929400Y-128214616D01*
X120929400Y-127134678D01*
X123822778Y-127134678D01*
X123852317Y-127645028D01*
X123990789Y-127979329D01*
X124221384Y-128035010D01*
X124940795Y-127315600D01*
X125300005Y-127315600D01*
X126019416Y-128035010D01*
X126250011Y-127979329D01*
X126418022Y-127496522D01*
X126399575Y-127177800D01*
X126729490Y-127177800D01*
X126729490Y-127932180D01*
X126883754Y-128453719D01*
X127225860Y-128876524D01*
X127703725Y-129136227D01*
X127775926Y-129150583D01*
X127990600Y-129027962D01*
X127990600Y-127177800D01*
X126729490Y-127177800D01*
X126399575Y-127177800D01*
X126388483Y-126986172D01*
X126250011Y-126651871D01*
X126019416Y-126596190D01*
X125300005Y-127315600D01*
X124940795Y-127315600D01*
X124221384Y-126596190D01*
X123990789Y-126651871D01*
X123822778Y-127134678D01*
X120929400Y-127134678D01*
X120929400Y-126606708D01*
X120992927Y-126670346D01*
X121593453Y-126919706D01*
X122243694Y-126920274D01*
X122844655Y-126671962D01*
X123304846Y-126212573D01*
X123368117Y-126060200D01*
X124215830Y-126060200D01*
X124218510Y-126062031D01*
X124427621Y-126104377D01*
X124514138Y-126162185D01*
X124456671Y-126185989D01*
X124400990Y-126416584D01*
X125120400Y-127135995D01*
X125839810Y-126416584D01*
X125784129Y-126185989D01*
X125736516Y-126169420D01*
X126729490Y-126169420D01*
X126729490Y-126923800D01*
X127990600Y-126923800D01*
X127990600Y-125073638D01*
X127775926Y-124951017D01*
X127703725Y-124965373D01*
X127225860Y-125225076D01*
X126883754Y-125647881D01*
X126729490Y-126169420D01*
X125736516Y-126169420D01*
X125722917Y-126164688D01*
X125811901Y-126105231D01*
X126005717Y-126068762D01*
X126221841Y-125929690D01*
X126366831Y-125717490D01*
X126409177Y-125508379D01*
X126492361Y-125383885D01*
X126553577Y-125076130D01*
X127059451Y-124570256D01*
X127059454Y-124570254D01*
X127768266Y-123861441D01*
X128127855Y-123712862D01*
X128588046Y-123253473D01*
X128837406Y-122652947D01*
X128837974Y-122002706D01*
X128589662Y-121401745D01*
X128130273Y-120941554D01*
X127529747Y-120692194D01*
X126879506Y-120691626D01*
X126278545Y-120939938D01*
X125818354Y-121399327D01*
X125667948Y-121761544D01*
X125394292Y-122035200D01*
X125100507Y-122035200D01*
X120836454Y-117771146D01*
X120377170Y-117464263D01*
X119187200Y-116274292D01*
X119301458Y-116226965D01*
X119395363Y-115972863D01*
X121404643Y-115972863D01*
X121503242Y-116239665D01*
X122112782Y-116466101D01*
X122762577Y-116442041D01*
X123251158Y-116239665D01*
X123349757Y-115972863D01*
X122377200Y-115000305D01*
X121404643Y-115972863D01*
X119395363Y-115972863D01*
X119400057Y-115960163D01*
X118427500Y-114987605D01*
X118413358Y-115001748D01*
X118233752Y-114822142D01*
X118247895Y-114808000D01*
X118607105Y-114808000D01*
X119579663Y-115780557D01*
X119846465Y-115681958D01*
X120072901Y-115072418D01*
X120048841Y-114422623D01*
X119846465Y-113934042D01*
X119579663Y-113835443D01*
X118607105Y-114808000D01*
X118247895Y-114808000D01*
X117275337Y-113835443D01*
X117008535Y-113934042D01*
X116782099Y-114543582D01*
X116806159Y-115193377D01*
X116936231Y-115507400D01*
X116248607Y-115507400D01*
X114984141Y-114242933D01*
X114835562Y-113883345D01*
X114608451Y-113655837D01*
X117454943Y-113655837D01*
X118427500Y-114628395D01*
X119400057Y-113655837D01*
X119301458Y-113389035D01*
X118691918Y-113162599D01*
X118042123Y-113186659D01*
X117553542Y-113389035D01*
X117454943Y-113655837D01*
X114608451Y-113655837D01*
X114376173Y-113423154D01*
X113775647Y-113173794D01*
X113125406Y-113173226D01*
X113125358Y-113173246D01*
X113102546Y-113173226D01*
X112501585Y-113421538D01*
X112041394Y-113880927D01*
X111792034Y-114481453D01*
X111791466Y-115131694D01*
X112039778Y-115732655D01*
X112116789Y-115809800D01*
X111337615Y-115809800D01*
X110082552Y-114554737D01*
X110082614Y-114484306D01*
X109834302Y-113883345D01*
X109374913Y-113423154D01*
X108774387Y-113173794D01*
X108124146Y-113173226D01*
X107523185Y-113421538D01*
X107062994Y-113880927D01*
X106813634Y-114481453D01*
X106813066Y-115131694D01*
X107061378Y-115732655D01*
X107520767Y-116192846D01*
X108121293Y-116442206D01*
X108194134Y-116442270D01*
X109840650Y-118088785D01*
X109840652Y-118088788D01*
X110079230Y-118248200D01*
X110273757Y-118378179D01*
X110784640Y-118479800D01*
X112426224Y-118479800D01*
X112944936Y-118998512D01*
X112741359Y-119129510D01*
X112596369Y-119341710D01*
X112554023Y-119550821D01*
X112470839Y-119675315D01*
X112357800Y-120243600D01*
X112357800Y-123088395D01*
X112357799Y-123088400D01*
X112470839Y-123656685D01*
X112792746Y-124138454D01*
X114367544Y-125713251D01*
X114367546Y-125713254D01*
X114531406Y-125877114D01*
X114394119Y-125876994D01*
X114073671Y-126009400D01*
X110462465Y-126009400D01*
X110145171Y-125877648D01*
X109395399Y-125876994D01*
X109074951Y-126009400D01*
X107797600Y-126009400D01*
X107751441Y-126018085D01*
X107709047Y-126045365D01*
X107680606Y-126086990D01*
X107670600Y-126136400D01*
X107670600Y-126277000D01*
X106857800Y-126277000D01*
X106857800Y-124187286D01*
X109822143Y-121222943D01*
X110122373Y-120773616D01*
X110227800Y-120243600D01*
X110122373Y-119713584D01*
X109822143Y-119264257D01*
X109372816Y-118964027D01*
X108842800Y-118858600D01*
X108312784Y-118964027D01*
X107863457Y-119264257D01*
X104518656Y-122609058D01*
X104430657Y-122667857D01*
X104371858Y-122755856D01*
X104306714Y-122821000D01*
X104291589Y-122821000D01*
X104275954Y-122817890D01*
X102683246Y-122817890D01*
X102152039Y-122923554D01*
X102019371Y-123012200D01*
X100279200Y-123012200D01*
X100233041Y-123020885D01*
X100190647Y-123048165D01*
X100162206Y-123089790D01*
X100152200Y-123139200D01*
X100152200Y-123386118D01*
X99996417Y-123282027D01*
X99466400Y-123176600D01*
X95346200Y-123176600D01*
X95346200Y-123014240D01*
X95521006Y-123014240D01*
X95961200Y-123101800D01*
X97891600Y-123101800D01*
X98421617Y-122996373D01*
X98870943Y-122696143D01*
X100395686Y-121171400D01*
X102209600Y-121171400D01*
X102739617Y-121065973D01*
X103188943Y-120765743D01*
X105017743Y-118936943D01*
X105317974Y-118487616D01*
X105423400Y-117957600D01*
X105423400Y-115772389D01*
X105426510Y-115756754D01*
X105426510Y-114164046D01*
X105320846Y-113632839D01*
X105019942Y-113182504D01*
X104569607Y-112881600D01*
X104038400Y-112775936D01*
X103507193Y-112881600D01*
X103056858Y-113182504D01*
X102755954Y-113632839D01*
X102755384Y-113635706D01*
X102732246Y-113557481D01*
X102390140Y-113134676D01*
X101912275Y-112874973D01*
X101840074Y-112860617D01*
X101625400Y-112983238D01*
X101625400Y-114833400D01*
X101645400Y-114833400D01*
X101645400Y-115087400D01*
X101625400Y-115087400D01*
X101625400Y-116937562D01*
X101840074Y-117060183D01*
X101912275Y-117045827D01*
X102390140Y-116786124D01*
X102653400Y-116460764D01*
X102653400Y-117383914D01*
X101635914Y-118401400D01*
X99822000Y-118401400D01*
X99291983Y-118506827D01*
X99093855Y-118639212D01*
X98842657Y-118807057D01*
X97317914Y-120331800D01*
X95961200Y-120331800D01*
X95521006Y-120419360D01*
X95311200Y-120419360D01*
X95075883Y-120463638D01*
X94859759Y-120602710D01*
X94821870Y-120658162D01*
X94491217Y-120437227D01*
X93961200Y-120331800D01*
X89193453Y-120331800D01*
X89184802Y-120288308D01*
X89191753Y-120283835D01*
X89220194Y-120242210D01*
X89230200Y-120192800D01*
X89230200Y-118406661D01*
X89269000Y-118211600D01*
X89269000Y-116112563D01*
X97071443Y-116112563D01*
X97170042Y-116379365D01*
X97779582Y-116605801D01*
X98429377Y-116581741D01*
X98917958Y-116379365D01*
X99016557Y-116112563D01*
X98044000Y-115140005D01*
X97071443Y-116112563D01*
X89269000Y-116112563D01*
X89269000Y-115887102D01*
X89518206Y-115286947D01*
X89518722Y-114695982D01*
X96398599Y-114695982D01*
X96422659Y-115345777D01*
X96625035Y-115834358D01*
X96891837Y-115932957D01*
X97864395Y-114960400D01*
X98223605Y-114960400D01*
X99196163Y-115932957D01*
X99462965Y-115834358D01*
X99689401Y-115224818D01*
X99684313Y-115087400D01*
X100110290Y-115087400D01*
X100110290Y-115841780D01*
X100264554Y-116363319D01*
X100606660Y-116786124D01*
X101084525Y-117045827D01*
X101156726Y-117060183D01*
X101371400Y-116937562D01*
X101371400Y-115087400D01*
X100110290Y-115087400D01*
X99684313Y-115087400D01*
X99665341Y-114575023D01*
X99462965Y-114086442D01*
X99442882Y-114079020D01*
X100110290Y-114079020D01*
X100110290Y-114833400D01*
X101371400Y-114833400D01*
X101371400Y-112983238D01*
X101156726Y-112860617D01*
X101084525Y-112874973D01*
X100606660Y-113134676D01*
X100264554Y-113557481D01*
X100110290Y-114079020D01*
X99442882Y-114079020D01*
X99196163Y-113987843D01*
X98223605Y-114960400D01*
X97864395Y-114960400D01*
X96891837Y-113987843D01*
X96625035Y-114086442D01*
X96398599Y-114695982D01*
X89518722Y-114695982D01*
X89518774Y-114636706D01*
X89270462Y-114035745D01*
X89043351Y-113808237D01*
X97071443Y-113808237D01*
X98044000Y-114780795D01*
X99016557Y-113808237D01*
X98917958Y-113541435D01*
X98308418Y-113314999D01*
X97658623Y-113339059D01*
X97170042Y-113541435D01*
X97071443Y-113808237D01*
X89043351Y-113808237D01*
X88811073Y-113575554D01*
X88210547Y-113326194D01*
X87560306Y-113325626D01*
X86959345Y-113573938D01*
X86499154Y-114033327D01*
X86249794Y-114633853D01*
X86249226Y-115284094D01*
X86497538Y-115885055D01*
X86499000Y-115886520D01*
X86499000Y-118211600D01*
X86537800Y-118406661D01*
X86537800Y-120192800D01*
X86546485Y-120238959D01*
X86573765Y-120281353D01*
X86583287Y-120287859D01*
X86499000Y-120711600D01*
X86499000Y-121361200D01*
X86604427Y-121891217D01*
X86776164Y-122148239D01*
X86904657Y-122340543D01*
X87260257Y-122696143D01*
X87709583Y-122996373D01*
X88239600Y-123101800D01*
X92576200Y-123101800D01*
X92576200Y-124441200D01*
X92681627Y-124971217D01*
X92939994Y-125357890D01*
X92981857Y-125420543D01*
X93102257Y-125540943D01*
X93551583Y-125841173D01*
X94081600Y-125946600D01*
X98386200Y-125946600D01*
X98386200Y-126571735D01*
X98345290Y-126508159D01*
X98133090Y-126363169D01*
X97881200Y-126312160D01*
X97671394Y-126312160D01*
X97231200Y-126224600D01*
X96791006Y-126312160D01*
X96581200Y-126312160D01*
X96345883Y-126356438D01*
X96129759Y-126495510D01*
X95984769Y-126707710D01*
X95933760Y-126959600D01*
X95933760Y-126964325D01*
X95710543Y-126630257D01*
X95261217Y-126330027D01*
X94731200Y-126224600D01*
X94201183Y-126330027D01*
X93751857Y-126630257D01*
X93451627Y-127079583D01*
X93346200Y-127609600D01*
X93346200Y-131567914D01*
X93267330Y-131646784D01*
X93115213Y-131648206D01*
X93070241Y-131656885D01*
X93027847Y-131684165D01*
X92999406Y-131725790D01*
X92989400Y-131775200D01*
X92989400Y-131924714D01*
X92735733Y-132178381D01*
X92688570Y-132169000D01*
X91918630Y-132169000D01*
X91369479Y-132278233D01*
X90903932Y-132589302D01*
X90592863Y-133054849D01*
X90483630Y-133604000D01*
X90592863Y-134153151D01*
X90903932Y-134618698D01*
X91281751Y-134871149D01*
X90849100Y-135219104D01*
X90579233Y-135712181D01*
X90561696Y-135794961D01*
X90683685Y-136017000D01*
X92176600Y-136017000D01*
X92176600Y-135997000D01*
X92430600Y-135997000D01*
X92430600Y-136017000D01*
X93923515Y-136017000D01*
X94045504Y-135794961D01*
X94027967Y-135712181D01*
X93861157Y-135407400D01*
X96291400Y-135407400D01*
X96291400Y-138277600D01*
X96291746Y-138279441D01*
X96104027Y-138560383D01*
X95998600Y-139090400D01*
X95998600Y-140396314D01*
X95693057Y-140701857D01*
X95392827Y-141151183D01*
X95287400Y-141681200D01*
X95287400Y-144715800D01*
X92405200Y-144715800D01*
X91875183Y-144821227D01*
X91593586Y-145009384D01*
X91425857Y-145121457D01*
X88123857Y-148423457D01*
X87823627Y-148872783D01*
X87718200Y-149402800D01*
X87718200Y-155425912D01*
X87575765Y-155082042D01*
X87308963Y-154983443D01*
X86336405Y-155956000D01*
X87308963Y-156928557D01*
X87575765Y-156829958D01*
X87718200Y-156446539D01*
X87718200Y-162509200D01*
X87823627Y-163039217D01*
X87993457Y-163293385D01*
X88123857Y-163488543D01*
X91324257Y-166688943D01*
X91773583Y-166989173D01*
X92303600Y-167094600D01*
X102311200Y-167094600D01*
X102841217Y-166989173D01*
X103290543Y-166688943D01*
X109946086Y-160033400D01*
X113284000Y-160033400D01*
X113814017Y-159927973D01*
X114222516Y-159655023D01*
X114491400Y-159923907D01*
X114491400Y-162966395D01*
X114491399Y-162966400D01*
X114604439Y-163534685D01*
X114926346Y-164016454D01*
X116907546Y-165997654D01*
X117389315Y-166319561D01*
X117957600Y-166432601D01*
X117957605Y-166432600D01*
X123291595Y-166432600D01*
X123291600Y-166432601D01*
X123859885Y-166319561D01*
X124341654Y-165997654D01*
X125306854Y-165032454D01*
X125628761Y-164550685D01*
X125741801Y-163982400D01*
X125741800Y-163982395D01*
X125741800Y-160838308D01*
X127208707Y-159371400D01*
X130759195Y-159371400D01*
X130759200Y-159371401D01*
X131327485Y-159258361D01*
X131809254Y-158936454D01*
X133384051Y-157361656D01*
X133384054Y-157361654D01*
X133705961Y-156879885D01*
X133715287Y-156833000D01*
X134772400Y-156833000D01*
X135212594Y-156745440D01*
X135422400Y-156745440D01*
X135657717Y-156701162D01*
X135873841Y-156562090D01*
X136018831Y-156349890D01*
X136069840Y-156098000D01*
X136069840Y-155888194D01*
X136157400Y-155448000D01*
X136069840Y-155007806D01*
X136069840Y-154798000D01*
X136025562Y-154562683D01*
X135886490Y-154346559D01*
X135674290Y-154201569D01*
X135554252Y-154177261D01*
X135822454Y-153998054D01*
X136144361Y-153516285D01*
X136257400Y-152948000D01*
X136257400Y-148336005D01*
X136257401Y-148336000D01*
X136144361Y-147767715D01*
X135979042Y-147520297D01*
X135822454Y-147285946D01*
X135822451Y-147285944D01*
X135712200Y-147175692D01*
X135712200Y-146253200D01*
X135703515Y-146207041D01*
X135676235Y-146164647D01*
X135634610Y-146136206D01*
X135585200Y-146126200D01*
X127609600Y-146126200D01*
X127563441Y-146134885D01*
X127521047Y-146162165D01*
X127492606Y-146203790D01*
X127482600Y-146253200D01*
X127482600Y-146587943D01*
X127177819Y-146421133D01*
X127095039Y-146403596D01*
X126873000Y-146525585D01*
X126873000Y-148018500D01*
X126893000Y-148018500D01*
X126893000Y-148272500D01*
X126873000Y-148272500D01*
X126873000Y-148292500D01*
X126619000Y-148292500D01*
X126619000Y-148272500D01*
X126599000Y-148272500D01*
X126599000Y-148018500D01*
X126619000Y-148018500D01*
X126619000Y-146525585D01*
X126396961Y-146403596D01*
X126314181Y-146421133D01*
X126009400Y-146587943D01*
X126009400Y-146354800D01*
X126000715Y-146308641D01*
X125973435Y-146266247D01*
X125931810Y-146237806D01*
X125882400Y-146227800D01*
X110794800Y-146227800D01*
X110748641Y-146236485D01*
X110706247Y-146263765D01*
X110677806Y-146305390D01*
X110667800Y-146354800D01*
X110667800Y-146627900D01*
X110619010Y-146660500D01*
X109410505Y-146660500D01*
X109410500Y-146660499D01*
X108981507Y-146745832D01*
X108842215Y-146773539D01*
X108360446Y-147095446D01*
X108360444Y-147095449D01*
X108220746Y-147235146D01*
X107898839Y-147716915D01*
X107785799Y-148285200D01*
X107785800Y-148285205D01*
X107785800Y-153416000D01*
X107898839Y-153984285D01*
X107981169Y-154107501D01*
X108017638Y-154301317D01*
X108156710Y-154517441D01*
X108368910Y-154662431D01*
X108480323Y-154684993D01*
X108385483Y-154702838D01*
X108169359Y-154841910D01*
X108024369Y-155054110D01*
X107973360Y-155306000D01*
X107973360Y-155515806D01*
X107885800Y-155956000D01*
X107885800Y-158176314D01*
X101737514Y-164324600D01*
X100040564Y-164324600D01*
X100556155Y-164111562D01*
X101016346Y-163652173D01*
X101265706Y-163051647D01*
X101266274Y-162401406D01*
X101017962Y-161800445D01*
X100558573Y-161340254D01*
X99958047Y-161090894D01*
X99307806Y-161090326D01*
X98945325Y-161240100D01*
X97256600Y-161240100D01*
X97256600Y-158699200D01*
X97247915Y-158653041D01*
X97220635Y-158610647D01*
X97179010Y-158582206D01*
X97129600Y-158572200D01*
X96876086Y-158572200D01*
X93039283Y-158539685D01*
X93033137Y-157814494D01*
X93289120Y-157890210D01*
X94043500Y-157890210D01*
X94043500Y-156629100D01*
X94297500Y-156629100D01*
X94297500Y-157890210D01*
X95051880Y-157890210D01*
X95573419Y-157735946D01*
X95996224Y-157393840D01*
X96255927Y-156915975D01*
X96270283Y-156843774D01*
X96147662Y-156629100D01*
X94297500Y-156629100D01*
X94043500Y-156629100D01*
X94023500Y-156629100D01*
X94023500Y-156375100D01*
X94043500Y-156375100D01*
X94043500Y-156355100D01*
X94297500Y-156355100D01*
X94297500Y-156375100D01*
X96147662Y-156375100D01*
X96270283Y-156160426D01*
X96255927Y-156088225D01*
X95996224Y-155610360D01*
X95573419Y-155268254D01*
X95495194Y-155245116D01*
X95498061Y-155244546D01*
X95948396Y-154943642D01*
X96249300Y-154493307D01*
X96354964Y-153962100D01*
X96249300Y-153430893D01*
X95948396Y-152980558D01*
X95498061Y-152679654D01*
X94966854Y-152573990D01*
X94741076Y-152573990D01*
X93536200Y-151369114D01*
X93536200Y-149951086D01*
X93979968Y-149507318D01*
X94008303Y-149495610D01*
X94213457Y-149290813D01*
X94957392Y-149290813D01*
X95026857Y-149532997D01*
X95550302Y-149719744D01*
X96105368Y-149691962D01*
X96489143Y-149532997D01*
X96558608Y-149290813D01*
X95758000Y-148490205D01*
X94957392Y-149290813D01*
X94213457Y-149290813D01*
X94401629Y-149102970D01*
X94481395Y-148910873D01*
X94535603Y-149041743D01*
X94777787Y-149111208D01*
X95578395Y-148310600D01*
X95564253Y-148296458D01*
X95743858Y-148116853D01*
X95758000Y-148130995D01*
X95772143Y-148116853D01*
X95951748Y-148296458D01*
X95937605Y-148310600D01*
X96738213Y-149111208D01*
X96980397Y-149041743D01*
X97030509Y-148901282D01*
X97112990Y-149100903D01*
X97505630Y-149494229D01*
X97535237Y-149506523D01*
X98246500Y-150217786D01*
X98246500Y-151638398D01*
X97997294Y-152238553D01*
X97996726Y-152888794D01*
X98245038Y-153489755D01*
X98704427Y-153949946D01*
X99304953Y-154199306D01*
X99955194Y-154199874D01*
X100556155Y-153951562D01*
X101016346Y-153492173D01*
X101265706Y-152891647D01*
X101266274Y-152241406D01*
X101017962Y-151640445D01*
X101016500Y-151638980D01*
X101016500Y-149644100D01*
X100990599Y-149513885D01*
X100911074Y-149114084D01*
X100610843Y-148664757D01*
X100269386Y-148323300D01*
X101785270Y-146807416D01*
X104385790Y-146807416D01*
X104441471Y-147038011D01*
X104924278Y-147206022D01*
X105434628Y-147176483D01*
X105768929Y-147038011D01*
X105824610Y-146807416D01*
X105105200Y-146088005D01*
X104385790Y-146807416D01*
X101785270Y-146807416D01*
X102865208Y-145727478D01*
X103807578Y-145727478D01*
X103837117Y-146237828D01*
X103975589Y-146572129D01*
X104206184Y-146627810D01*
X104925595Y-145908400D01*
X105284805Y-145908400D01*
X106004216Y-146627810D01*
X106234811Y-146572129D01*
X106402822Y-146089322D01*
X106373283Y-145578972D01*
X106234811Y-145244671D01*
X106004216Y-145188990D01*
X105284805Y-145908400D01*
X104925595Y-145908400D01*
X104206184Y-145188990D01*
X103975589Y-145244671D01*
X103807578Y-145727478D01*
X102865208Y-145727478D01*
X103799286Y-144793400D01*
X104437943Y-144793400D01*
X104385790Y-145009384D01*
X105105200Y-145728795D01*
X105824610Y-145009384D01*
X105768929Y-144778789D01*
X105707717Y-144757488D01*
X105796701Y-144698031D01*
X105838319Y-144690200D01*
X120802395Y-144690200D01*
X120802400Y-144690201D01*
X121370685Y-144577161D01*
X121691400Y-144362867D01*
X121691400Y-144627600D01*
X121700085Y-144673759D01*
X121727365Y-144716153D01*
X121768990Y-144744594D01*
X121818400Y-144754600D01*
X129641600Y-144754600D01*
X129687759Y-144745915D01*
X129730153Y-144718635D01*
X129758594Y-144677010D01*
X129768600Y-144627600D01*
X129768600Y-144471844D01*
X129844800Y-144487001D01*
X129844805Y-144487000D01*
X133603995Y-144487000D01*
X133604000Y-144487001D01*
X134172285Y-144373961D01*
X134654054Y-144052054D01*
X137397251Y-141308856D01*
X137397254Y-141308854D01*
X137719161Y-140827085D01*
X137744070Y-140701857D01*
X137832201Y-140258800D01*
X137832200Y-140258795D01*
X137832200Y-118760240D01*
X137719161Y-118191955D01*
X137397254Y-117710186D01*
X137397251Y-117710184D01*
X133930001Y-114242933D01*
X133781422Y-113883345D01*
X133322033Y-113423154D01*
X132721507Y-113173794D01*
X132257800Y-113173389D01*
X132257800Y-113030000D01*
X132249115Y-112983841D01*
X132221835Y-112941447D01*
X132180210Y-112913006D01*
X132130800Y-112903000D01*
X128168400Y-112903000D01*
X128122241Y-112911685D01*
X128079847Y-112938965D01*
X128051406Y-112980590D01*
X128041400Y-113030000D01*
X128041400Y-113307148D01*
X127720247Y-113173794D01*
X127718178Y-113173792D01*
X125985443Y-111441057D01*
X125536117Y-111140827D01*
X125006100Y-111035400D01*
X121426886Y-111035400D01*
X119038543Y-108647057D01*
X118589217Y-108346827D01*
X118059200Y-108241400D01*
X86427170Y-108241400D01*
X85897153Y-108346827D01*
X85447827Y-108647057D01*
X82110655Y-111984229D01*
X81810425Y-112433555D01*
X81704998Y-112963572D01*
X81329600Y-112963572D01*
X81329600Y-108152000D01*
X138888400Y-108152000D01*
X138888400Y-168200000D01*
M02*
