%FSLAX45Y45*%
G04 Gerber Fmt 4.5, Leading zero omitted, Abs format (unit mm)*
G04 Created by KiCad (PCBNEW 4.0.2-stable) date Сб 01 окт 2016 22:47:07*
%MOMM*%
G01*
G04 APERTURE LIST*
%ADD10C,0.127000*%
%ADD11C,0.150000*%
%ADD12C,0.200000*%
%ADD13C,0.300000*%
G04 APERTURE END LIST*
D10*
D11*
X8061960Y-10744200D02*
X8061960Y-16891000D01*
X13959840Y-10744200D02*
X8061960Y-10744200D01*
X13959840Y-16891000D02*
X13959840Y-10744200D01*
X8061960Y-16891000D02*
X13959840Y-16891000D01*
D12*
X8580760Y-13518520D02*
X8660760Y-13598520D01*
X8660760Y-13518520D02*
X8580760Y-13598520D01*
X8580760Y-14001120D02*
X8660760Y-14081120D01*
X8660760Y-14001120D02*
X8580760Y-14081120D01*
X8748400Y-11781160D02*
X8828400Y-11861160D01*
X8828400Y-11781160D02*
X8748400Y-11861160D01*
X9190360Y-13320400D02*
X9270360Y-13400400D01*
X9270360Y-13320400D02*
X9190360Y-13400400D01*
X9190360Y-13574400D02*
X9270360Y-13654400D01*
X9270360Y-13574400D02*
X9190360Y-13654400D01*
X9190360Y-13828400D02*
X9270360Y-13908400D01*
X9270360Y-13828400D02*
X9190360Y-13908400D01*
X9190360Y-14082400D02*
X9270360Y-14162400D01*
X9270360Y-14082400D02*
X9190360Y-14162400D01*
X9281800Y-14791060D02*
X9361800Y-14871060D01*
X9361800Y-14791060D02*
X9281800Y-14871060D01*
X9356120Y-12131680D02*
X9436120Y-12211680D01*
X9436120Y-12131680D02*
X9356120Y-12211680D01*
X9433120Y-12720960D02*
X9513120Y-12800960D01*
X9513120Y-12720960D02*
X9433120Y-12800960D01*
X9535800Y-14791060D02*
X9615800Y-14871060D01*
X9615800Y-14791060D02*
X9535800Y-14871060D01*
X9556120Y-12131680D02*
X9636120Y-12211680D01*
X9636120Y-12131680D02*
X9556120Y-12211680D01*
X9683120Y-12720960D02*
X9763120Y-12800960D01*
X9763120Y-12720960D02*
X9683120Y-12800960D01*
X9789800Y-14791060D02*
X9869800Y-14871060D01*
X9869800Y-14791060D02*
X9789800Y-14871060D01*
X9952360Y-13320400D02*
X10032360Y-13400400D01*
X10032360Y-13320400D02*
X9952360Y-13400400D01*
X9952360Y-13574400D02*
X10032360Y-13654400D01*
X10032360Y-13574400D02*
X9952360Y-13654400D01*
X9952360Y-13828400D02*
X10032360Y-13908400D01*
X10032360Y-13828400D02*
X9952360Y-13908400D01*
X9952360Y-14082400D02*
X10032360Y-14162400D01*
X10032360Y-14082400D02*
X9952360Y-14162400D01*
X10470520Y-14300840D02*
X10550520Y-14380840D01*
X10550520Y-14300840D02*
X10470520Y-14380840D01*
X10470520Y-14550840D02*
X10550520Y-14630840D01*
X10550520Y-14550840D02*
X10470520Y-14630840D01*
X10607680Y-13366120D02*
X10687680Y-13446120D01*
X10687680Y-13366120D02*
X10607680Y-13446120D01*
X10844280Y-11984360D02*
X10924280Y-12064360D01*
X10924280Y-11984360D02*
X10844280Y-12064360D01*
X10887080Y-15301600D02*
X10967080Y-15381600D01*
X10967080Y-15301600D02*
X10887080Y-15381600D01*
X10887080Y-15555600D02*
X10967080Y-15635600D01*
X10967080Y-15555600D02*
X10887080Y-15635600D01*
X11110600Y-14012550D02*
X11190600Y-14092550D01*
X11190600Y-14012550D02*
X11110600Y-14092550D01*
X11110600Y-14774550D02*
X11190600Y-14854550D01*
X11190600Y-14774550D02*
X11110600Y-14854550D01*
X11344280Y-11984360D02*
X11424280Y-12064360D01*
X11424280Y-11984360D02*
X11344280Y-12064360D01*
X11364600Y-14012550D02*
X11444600Y-14092550D01*
X11444600Y-14012550D02*
X11364600Y-14092550D01*
X11364600Y-14774550D02*
X11444600Y-14854550D01*
X11444600Y-14774550D02*
X11364600Y-14854550D01*
X11390000Y-15494640D02*
X11470000Y-15574640D01*
X11470000Y-15494640D02*
X11390000Y-15574640D01*
X11618600Y-14012550D02*
X11698600Y-14092550D01*
X11698600Y-14012550D02*
X11618600Y-14092550D01*
X11618600Y-14774550D02*
X11698600Y-14854550D01*
X11698600Y-14774550D02*
X11618600Y-14854550D01*
X11831960Y-12741280D02*
X11911960Y-12821280D01*
X11911960Y-12741280D02*
X11831960Y-12821280D01*
X11872600Y-14012550D02*
X11952600Y-14092550D01*
X11952600Y-14012550D02*
X11872600Y-14092550D01*
X11872600Y-14774550D02*
X11952600Y-14854550D01*
X11952600Y-14774550D02*
X11872600Y-14854550D01*
X11891650Y-15307950D02*
X11971650Y-15387950D01*
X11971650Y-15307950D02*
X11891650Y-15387950D01*
X12126600Y-14012550D02*
X12206600Y-14092550D01*
X12206600Y-14012550D02*
X12126600Y-14092550D01*
X12126600Y-14774550D02*
X12206600Y-14854550D01*
X12206600Y-14774550D02*
X12126600Y-14854550D01*
X12367900Y-15307950D02*
X12447900Y-15387950D01*
X12447900Y-15307950D02*
X12367900Y-15387950D01*
X12380600Y-14012550D02*
X12460600Y-14092550D01*
X12460600Y-14012550D02*
X12380600Y-14092550D01*
X12380600Y-14774550D02*
X12460600Y-14854550D01*
X12460600Y-14774550D02*
X12380600Y-14854550D01*
X12466960Y-13541380D02*
X12546960Y-13621380D01*
X12546960Y-13541380D02*
X12466960Y-13621380D01*
X12472040Y-12441560D02*
X12552040Y-12521560D01*
X12552040Y-12441560D02*
X12472040Y-12521560D01*
X12634600Y-14012550D02*
X12714600Y-14092550D01*
X12714600Y-14012550D02*
X12634600Y-14092550D01*
X12634600Y-14774550D02*
X12714600Y-14854550D01*
X12714600Y-14774550D02*
X12634600Y-14854550D01*
X12720960Y-13541380D02*
X12800960Y-13621380D01*
X12800960Y-13541380D02*
X12720960Y-13621380D01*
X12888600Y-14012550D02*
X12968600Y-14092550D01*
X12968600Y-14012550D02*
X12888600Y-14092550D01*
X12888600Y-14774550D02*
X12968600Y-14854550D01*
X12968600Y-14774550D02*
X12888600Y-14854550D01*
X12929240Y-15255880D02*
X13009240Y-15335880D01*
X13009240Y-15255880D02*
X12929240Y-15335880D01*
X13142600Y-14012550D02*
X13222600Y-14092550D01*
X13222600Y-14012550D02*
X13142600Y-14092550D01*
X13142600Y-14774550D02*
X13222600Y-14854550D01*
X13222600Y-14774550D02*
X13142600Y-14854550D01*
X13193400Y-15504800D02*
X13273400Y-15584800D01*
X13273400Y-15504800D02*
X13193400Y-15584800D01*
X13289920Y-13538840D02*
X13369920Y-13618840D01*
X13369920Y-13538840D02*
X13289920Y-13618840D01*
X13320400Y-12431400D02*
X13400400Y-12511400D01*
X13400400Y-12431400D02*
X13320400Y-12511400D01*
X13437240Y-15504800D02*
X13517240Y-15584800D01*
X13517240Y-15504800D02*
X13437240Y-15584800D01*
X8660765Y-13808520D02*
G75*
G03X8660765Y-13808520I-40005J0D01*
G01*
X8660765Y-14291120D02*
G75*
G03X8660765Y-14291120I-40005J0D01*
G01*
X8828405Y-12071160D02*
G75*
G03X8828405Y-12071160I-40005J0D01*
G01*
X10687685Y-13656120D02*
G75*
G03X10687685Y-13656120I-40005J0D01*
G01*
X11217085Y-15341600D02*
G75*
G03X11217085Y-15341600I-40005J0D01*
G01*
X11217085Y-15595600D02*
G75*
G03X11217085Y-15595600I-40005J0D01*
G01*
X11470005Y-15284640D02*
G75*
G03X11470005Y-15284640I-40005J0D01*
G01*
X11721655Y-15347950D02*
G75*
G03X11721655Y-15347950I-40005J0D01*
G01*
X11911965Y-12531280D02*
G75*
G03X11911965Y-12531280I-40005J0D01*
G01*
X12197905Y-15347950D02*
G75*
G03X12197905Y-15347950I-40005J0D01*
G01*
X12546965Y-13331380D02*
G75*
G03X12546965Y-13331380I-40005J0D01*
G01*
X12552045Y-12731560D02*
G75*
G03X12552045Y-12731560I-40005J0D01*
G01*
X12800965Y-13331380D02*
G75*
G03X12800965Y-13331380I-40005J0D01*
G01*
X13009245Y-15545880D02*
G75*
G03X13009245Y-15545880I-40005J0D01*
G01*
X13273405Y-15294800D02*
G75*
G03X13273405Y-15294800I-40005J0D01*
G01*
X13369925Y-13328840D02*
G75*
G03X13369925Y-13328840I-40005J0D01*
G01*
X13400405Y-12721400D02*
G75*
G03X13400405Y-12721400I-40005J0D01*
G01*
X13517245Y-15294800D02*
G75*
G03X13517245Y-15294800I-40005J0D01*
G01*
X10901680Y-13523680D02*
X10901680Y-13613680D01*
X10856680Y-13568680D02*
X10946680Y-13568680D01*
X11401680Y-13523680D02*
X11401680Y-13613680D01*
X11356680Y-13568680D02*
X11446680Y-13568680D01*
X11765280Y-13028760D02*
X11765280Y-13118760D01*
X11720280Y-13073760D02*
X11810280Y-13073760D01*
X11765280Y-13528760D02*
X11765280Y-13618760D01*
X11720280Y-13573760D02*
X11810280Y-13573760D01*
X12659360Y-15243640D02*
X12659360Y-15333640D01*
X12614360Y-15288640D02*
X12704360Y-15288640D01*
X12659360Y-15743640D02*
X12659360Y-15833640D01*
X12614360Y-15788640D02*
X12704360Y-15788640D01*
X13045440Y-13028760D02*
X13045440Y-13118760D01*
X13000440Y-13073760D02*
X13090440Y-13073760D01*
X13045440Y-13528760D02*
X13045440Y-13618760D01*
X13000440Y-13573760D02*
X13090440Y-13573760D01*
X8656053Y-12760693D02*
X8656053Y-12690107D01*
X8585467Y-12690107D01*
X8585467Y-12760693D01*
X8656053Y-12760693D01*
X8656053Y-13014693D02*
X8656053Y-12944107D01*
X8585467Y-12944107D01*
X8585467Y-13014693D01*
X8656053Y-13014693D01*
X9452343Y-15431503D02*
X9452343Y-15360917D01*
X9381757Y-15360917D01*
X9381757Y-15431503D01*
X9452343Y-15431503D01*
X9452343Y-15685503D02*
X9452343Y-15614917D01*
X9381757Y-15614917D01*
X9381757Y-15685503D01*
X9452343Y-15685503D01*
X10185133Y-11531333D02*
X10185133Y-11460747D01*
X10114547Y-11460747D01*
X10114547Y-11531333D01*
X10185133Y-11531333D01*
X10383253Y-12455893D02*
X10383253Y-12385307D01*
X10312667Y-12385307D01*
X10312667Y-12455893D01*
X10383253Y-12455893D01*
X10383253Y-12709893D02*
X10383253Y-12639307D01*
X10312667Y-12639307D01*
X10312667Y-12709893D01*
X10383253Y-12709893D01*
X10439133Y-11531333D02*
X10439133Y-11460747D01*
X10368547Y-11460747D01*
X10368547Y-11531333D01*
X10439133Y-11531333D01*
X12847053Y-12740373D02*
X12847053Y-12669787D01*
X12776467Y-12669787D01*
X12776467Y-12740373D01*
X12847053Y-12740373D01*
X13101053Y-12740373D02*
X13101053Y-12669787D01*
X13030467Y-12669787D01*
X13030467Y-12740373D01*
X13101053Y-12740373D01*
X8615680Y-14629638D02*
X8665718Y-14579600D01*
X8615680Y-14529562D01*
X8565642Y-14579600D01*
X8615680Y-14629638D01*
X8615680Y-15645638D02*
X8665718Y-15595600D01*
X8615680Y-15545562D01*
X8565642Y-15595600D01*
X8615680Y-15645638D01*
X8788400Y-11546078D02*
X8838438Y-11496040D01*
X8788400Y-11446002D01*
X8738362Y-11496040D01*
X8788400Y-11546078D01*
X9410700Y-16068548D02*
X9460738Y-16018510D01*
X9410700Y-15968472D01*
X9360662Y-16018510D01*
X9410700Y-16068548D01*
X9410700Y-16322548D02*
X9460738Y-16272510D01*
X9410700Y-16222472D01*
X9360662Y-16272510D01*
X9410700Y-16322548D01*
X9804400Y-11546078D02*
X9854438Y-11496040D01*
X9804400Y-11446002D01*
X9754362Y-11496040D01*
X9804400Y-11546078D01*
X9963150Y-15306548D02*
X10013188Y-15256510D01*
X9963150Y-15206472D01*
X9913112Y-15256510D01*
X9963150Y-15306548D01*
X9963150Y-16322548D02*
X10013188Y-16272510D01*
X9963150Y-16222472D01*
X9913112Y-16272510D01*
X9963150Y-16322548D01*
X10844784Y-11530838D02*
X10894822Y-11480800D01*
X10844784Y-11430762D01*
X10794746Y-11480800D01*
X10844784Y-11530838D01*
X11342624Y-11530838D02*
X11392662Y-11480800D01*
X11342624Y-11430762D01*
X11292586Y-11480800D01*
X11342624Y-11530838D01*
X11344910Y-11530838D02*
X11394948Y-11480800D01*
X11344910Y-11430762D01*
X11294872Y-11480800D01*
X11344910Y-11530838D01*
X11704320Y-12282678D02*
X11754358Y-12232640D01*
X11704320Y-12182602D01*
X11654282Y-12232640D01*
X11704320Y-12282678D01*
X11842750Y-11530838D02*
X11892788Y-11480800D01*
X11842750Y-11430762D01*
X11792712Y-11480800D01*
X11842750Y-11530838D01*
X12192000Y-12578588D02*
X12242038Y-12528550D01*
X12192000Y-12478512D01*
X12141962Y-12528550D01*
X12192000Y-12578588D01*
X12192000Y-13594588D02*
X12242038Y-13544550D01*
X12192000Y-13494512D01*
X12141962Y-13544550D01*
X12192000Y-13594588D01*
X12237720Y-11532108D02*
X12287758Y-11482070D01*
X12237720Y-11432032D01*
X12187682Y-11482070D01*
X12237720Y-11532108D01*
X12720320Y-12282678D02*
X12770358Y-12232640D01*
X12720320Y-12182602D01*
X12670282Y-12232640D01*
X12720320Y-12282678D01*
X12737846Y-11532108D02*
X12787884Y-11482070D01*
X12737846Y-11432032D01*
X12687808Y-11482070D01*
X12737846Y-11532108D01*
X12739370Y-11530838D02*
X12789408Y-11480800D01*
X12739370Y-11430762D01*
X12689332Y-11480800D01*
X12739370Y-11530838D01*
X13239496Y-11530838D02*
X13289534Y-11480800D01*
X13239496Y-11430762D01*
X13189458Y-11480800D01*
X13239496Y-11530838D01*
X11968480Y-16098520D02*
X12070080Y-16200120D01*
X12070080Y-16098520D02*
X11968480Y-16200120D01*
X12070080Y-16149320D02*
G75*
G03X12070080Y-16149320I-50800J0D01*
G01*
X10906887Y-12706223D02*
X11046841Y-12846177D01*
X11046841Y-12706223D02*
X10906887Y-12846177D01*
X10976864Y-12706223D02*
X10976864Y-12846177D01*
X10906887Y-12776200D02*
X11046841Y-12776200D01*
X11406759Y-12706223D02*
X11546713Y-12846177D01*
X11546713Y-12706223D02*
X11406759Y-12846177D01*
X11476736Y-12706223D02*
X11476736Y-12846177D01*
X11406759Y-12776200D02*
X11546713Y-12776200D01*
X11694287Y-15627223D02*
X11834241Y-15767177D01*
X11834241Y-15627223D02*
X11694287Y-15767177D01*
X11764264Y-15627223D02*
X11764264Y-15767177D01*
X11694287Y-15697200D02*
X11834241Y-15697200D01*
X12194159Y-15627223D02*
X12334113Y-15767177D01*
X12334113Y-15627223D02*
X12194159Y-15767177D01*
X12264136Y-15627223D02*
X12264136Y-15767177D01*
X12194159Y-15697200D02*
X12334113Y-15697200D01*
D13*
X8325888Y-17364214D02*
X8325888Y-17064214D01*
X8397317Y-17064214D01*
X8440174Y-17078500D01*
X8468746Y-17107072D01*
X8483031Y-17135643D01*
X8497317Y-17192786D01*
X8497317Y-17235643D01*
X8483031Y-17292786D01*
X8468746Y-17321357D01*
X8440174Y-17349929D01*
X8397317Y-17364214D01*
X8325888Y-17364214D01*
X8625889Y-17364214D02*
X8625889Y-17164214D01*
X8625889Y-17221357D02*
X8640174Y-17192786D01*
X8654460Y-17178500D01*
X8683031Y-17164214D01*
X8711603Y-17164214D01*
X8811603Y-17364214D02*
X8811603Y-17164214D01*
X8811603Y-17064214D02*
X8797317Y-17078500D01*
X8811603Y-17092786D01*
X8825889Y-17078500D01*
X8811603Y-17064214D01*
X8811603Y-17092786D01*
X8997317Y-17364214D02*
X8968746Y-17349929D01*
X8954460Y-17321357D01*
X8954460Y-17064214D01*
X9154460Y-17364214D02*
X9125889Y-17349929D01*
X9111603Y-17321357D01*
X9111603Y-17064214D01*
X9497317Y-17364214D02*
X9497317Y-17064214D01*
X9597317Y-17278500D01*
X9697317Y-17064214D01*
X9697317Y-17364214D01*
X9968746Y-17364214D02*
X9968746Y-17207072D01*
X9954460Y-17178500D01*
X9925889Y-17164214D01*
X9868746Y-17164214D01*
X9840174Y-17178500D01*
X9968746Y-17349929D02*
X9940174Y-17364214D01*
X9868746Y-17364214D01*
X9840174Y-17349929D01*
X9825889Y-17321357D01*
X9825889Y-17292786D01*
X9840174Y-17264214D01*
X9868746Y-17249929D01*
X9940174Y-17249929D01*
X9968746Y-17235643D01*
X10111603Y-17164214D02*
X10111603Y-17464214D01*
X10111603Y-17178500D02*
X10140174Y-17164214D01*
X10197317Y-17164214D01*
X10225889Y-17178500D01*
X10240174Y-17192786D01*
X10254460Y-17221357D01*
X10254460Y-17307072D01*
X10240174Y-17335643D01*
X10225889Y-17349929D01*
X10197317Y-17364214D01*
X10140174Y-17364214D01*
X10111603Y-17349929D01*
X10383031Y-17335643D02*
X10397317Y-17349929D01*
X10383031Y-17364214D01*
X10368746Y-17349929D01*
X10383031Y-17335643D01*
X10383031Y-17364214D01*
X10383031Y-17178500D02*
X10397317Y-17192786D01*
X10383031Y-17207072D01*
X10368746Y-17192786D01*
X10383031Y-17178500D01*
X10383031Y-17207072D01*
X7974460Y-17818500D02*
X8054460Y-17898500D01*
X8054460Y-17818500D02*
X7974460Y-17898500D01*
X8383031Y-17694214D02*
X8411603Y-17694214D01*
X8440174Y-17708500D01*
X8454460Y-17722786D01*
X8468746Y-17751357D01*
X8483031Y-17808500D01*
X8483031Y-17879929D01*
X8468746Y-17937072D01*
X8454460Y-17965643D01*
X8440174Y-17979929D01*
X8411603Y-17994214D01*
X8383031Y-17994214D01*
X8354460Y-17979929D01*
X8340174Y-17965643D01*
X8325888Y-17937072D01*
X8311603Y-17879929D01*
X8311603Y-17808500D01*
X8325888Y-17751357D01*
X8340174Y-17722786D01*
X8354460Y-17708500D01*
X8383031Y-17694214D01*
X8611603Y-17965643D02*
X8625889Y-17979929D01*
X8611603Y-17994214D01*
X8597317Y-17979929D01*
X8611603Y-17965643D01*
X8611603Y-17994214D01*
X8797317Y-17822786D02*
X8768746Y-17808500D01*
X8754460Y-17794214D01*
X8740174Y-17765643D01*
X8740174Y-17751357D01*
X8754460Y-17722786D01*
X8768746Y-17708500D01*
X8797317Y-17694214D01*
X8854460Y-17694214D01*
X8883031Y-17708500D01*
X8897317Y-17722786D01*
X8911603Y-17751357D01*
X8911603Y-17765643D01*
X8897317Y-17794214D01*
X8883031Y-17808500D01*
X8854460Y-17822786D01*
X8797317Y-17822786D01*
X8768746Y-17837072D01*
X8754460Y-17851357D01*
X8740174Y-17879929D01*
X8740174Y-17937072D01*
X8754460Y-17965643D01*
X8768746Y-17979929D01*
X8797317Y-17994214D01*
X8854460Y-17994214D01*
X8883031Y-17979929D01*
X8897317Y-17965643D01*
X8911603Y-17937072D01*
X8911603Y-17879929D01*
X8897317Y-17851357D01*
X8883031Y-17837072D01*
X8854460Y-17822786D01*
X9097317Y-17694214D02*
X9125889Y-17694214D01*
X9154460Y-17708500D01*
X9168746Y-17722786D01*
X9183031Y-17751357D01*
X9197317Y-17808500D01*
X9197317Y-17879929D01*
X9183031Y-17937072D01*
X9168746Y-17965643D01*
X9154460Y-17979929D01*
X9125889Y-17994214D01*
X9097317Y-17994214D01*
X9068746Y-17979929D01*
X9054460Y-17965643D01*
X9040174Y-17937072D01*
X9025889Y-17879929D01*
X9025889Y-17808500D01*
X9040174Y-17751357D01*
X9054460Y-17722786D01*
X9068746Y-17708500D01*
X9097317Y-17694214D01*
X9325889Y-17994214D02*
X9325889Y-17794214D01*
X9325889Y-17822786D02*
X9340174Y-17808500D01*
X9368746Y-17794214D01*
X9411603Y-17794214D01*
X9440174Y-17808500D01*
X9454460Y-17837072D01*
X9454460Y-17994214D01*
X9454460Y-17837072D02*
X9468746Y-17808500D01*
X9497317Y-17794214D01*
X9540174Y-17794214D01*
X9568746Y-17808500D01*
X9583031Y-17837072D01*
X9583031Y-17994214D01*
X9725889Y-17994214D02*
X9725889Y-17794214D01*
X9725889Y-17822786D02*
X9740174Y-17808500D01*
X9768746Y-17794214D01*
X9811603Y-17794214D01*
X9840174Y-17808500D01*
X9854460Y-17837072D01*
X9854460Y-17994214D01*
X9854460Y-17837072D02*
X9868746Y-17808500D01*
X9897317Y-17794214D01*
X9940174Y-17794214D01*
X9968746Y-17808500D01*
X9983031Y-17837072D01*
X9983031Y-17994214D01*
X10568746Y-17679929D02*
X10311603Y-18065643D01*
X10954460Y-17694214D02*
X10983031Y-17694214D01*
X11011603Y-17708500D01*
X11025888Y-17722786D01*
X11040174Y-17751357D01*
X11054460Y-17808500D01*
X11054460Y-17879929D01*
X11040174Y-17937072D01*
X11025888Y-17965643D01*
X11011603Y-17979929D01*
X10983031Y-17994214D01*
X10954460Y-17994214D01*
X10925888Y-17979929D01*
X10911603Y-17965643D01*
X10897317Y-17937072D01*
X10883031Y-17879929D01*
X10883031Y-17808500D01*
X10897317Y-17751357D01*
X10911603Y-17722786D01*
X10925888Y-17708500D01*
X10954460Y-17694214D01*
X11183031Y-17965643D02*
X11197317Y-17979929D01*
X11183031Y-17994214D01*
X11168746Y-17979929D01*
X11183031Y-17965643D01*
X11183031Y-17994214D01*
X11383031Y-17694214D02*
X11411603Y-17694214D01*
X11440174Y-17708500D01*
X11454460Y-17722786D01*
X11468745Y-17751357D01*
X11483031Y-17808500D01*
X11483031Y-17879929D01*
X11468745Y-17937072D01*
X11454460Y-17965643D01*
X11440174Y-17979929D01*
X11411603Y-17994214D01*
X11383031Y-17994214D01*
X11354460Y-17979929D01*
X11340174Y-17965643D01*
X11325888Y-17937072D01*
X11311603Y-17879929D01*
X11311603Y-17808500D01*
X11325888Y-17751357D01*
X11340174Y-17722786D01*
X11354460Y-17708500D01*
X11383031Y-17694214D01*
X11583031Y-17694214D02*
X11768745Y-17694214D01*
X11668745Y-17808500D01*
X11711603Y-17808500D01*
X11740174Y-17822786D01*
X11754460Y-17837072D01*
X11768745Y-17865643D01*
X11768745Y-17937072D01*
X11754460Y-17965643D01*
X11740174Y-17979929D01*
X11711603Y-17994214D01*
X11625888Y-17994214D01*
X11597317Y-17979929D01*
X11583031Y-17965643D01*
X12054460Y-17994214D02*
X11883031Y-17994214D01*
X11968745Y-17994214D02*
X11968745Y-17694214D01*
X11940174Y-17737072D01*
X11911603Y-17765643D01*
X11883031Y-17779929D01*
X12168746Y-17694214D02*
X12168746Y-17751357D01*
X12283031Y-17694214D02*
X12283031Y-17751357D01*
X12725888Y-18108500D02*
X12711603Y-18094214D01*
X12683031Y-18051357D01*
X12668745Y-18022786D01*
X12654460Y-17979929D01*
X12640174Y-17908500D01*
X12640174Y-17851357D01*
X12654460Y-17779929D01*
X12668745Y-17737072D01*
X12683031Y-17708500D01*
X12711603Y-17665643D01*
X12725888Y-17651357D01*
X12983031Y-17694214D02*
X12840174Y-17694214D01*
X12825888Y-17837072D01*
X12840174Y-17822786D01*
X12868745Y-17808500D01*
X12940174Y-17808500D01*
X12968745Y-17822786D01*
X12983031Y-17837072D01*
X12997317Y-17865643D01*
X12997317Y-17937072D01*
X12983031Y-17965643D01*
X12968745Y-17979929D01*
X12940174Y-17994214D01*
X12868745Y-17994214D01*
X12840174Y-17979929D01*
X12825888Y-17965643D01*
X13268745Y-17694214D02*
X13125888Y-17694214D01*
X13111603Y-17837072D01*
X13125888Y-17822786D01*
X13154460Y-17808500D01*
X13225888Y-17808500D01*
X13254460Y-17822786D01*
X13268745Y-17837072D01*
X13283031Y-17865643D01*
X13283031Y-17937072D01*
X13268745Y-17965643D01*
X13254460Y-17979929D01*
X13225888Y-17994214D01*
X13154460Y-17994214D01*
X13125888Y-17979929D01*
X13111603Y-17965643D01*
X13640174Y-17994214D02*
X13640174Y-17694214D01*
X13768745Y-17994214D02*
X13768745Y-17837072D01*
X13754460Y-17808500D01*
X13725888Y-17794214D01*
X13683031Y-17794214D01*
X13654460Y-17808500D01*
X13640174Y-17822786D01*
X13954460Y-17994214D02*
X13925888Y-17979929D01*
X13911603Y-17965643D01*
X13897317Y-17937072D01*
X13897317Y-17851357D01*
X13911603Y-17822786D01*
X13925888Y-17808500D01*
X13954460Y-17794214D01*
X13997317Y-17794214D01*
X14025888Y-17808500D01*
X14040174Y-17822786D01*
X14054460Y-17851357D01*
X14054460Y-17937072D01*
X14040174Y-17965643D01*
X14025888Y-17979929D01*
X13997317Y-17994214D01*
X13954460Y-17994214D01*
X14225888Y-17994214D02*
X14197317Y-17979929D01*
X14183031Y-17951357D01*
X14183031Y-17694214D01*
X14454460Y-17979929D02*
X14425888Y-17994214D01*
X14368746Y-17994214D01*
X14340174Y-17979929D01*
X14325888Y-17951357D01*
X14325888Y-17837072D01*
X14340174Y-17808500D01*
X14368746Y-17794214D01*
X14425888Y-17794214D01*
X14454460Y-17808500D01*
X14468746Y-17837072D01*
X14468746Y-17865643D01*
X14325888Y-17894214D01*
X14583031Y-17979929D02*
X14611603Y-17994214D01*
X14668746Y-17994214D01*
X14697317Y-17979929D01*
X14711603Y-17951357D01*
X14711603Y-17937072D01*
X14697317Y-17908500D01*
X14668746Y-17894214D01*
X14625888Y-17894214D01*
X14597317Y-17879929D01*
X14583031Y-17851357D01*
X14583031Y-17837072D01*
X14597317Y-17808500D01*
X14625888Y-17794214D01*
X14668746Y-17794214D01*
X14697317Y-17808500D01*
X14811603Y-18108500D02*
X14825888Y-18094214D01*
X14854460Y-18051357D01*
X14868746Y-18022786D01*
X14883031Y-17979929D01*
X14897317Y-17908500D01*
X14897317Y-17851357D01*
X14883031Y-17779929D01*
X14868746Y-17737072D01*
X14854460Y-17708500D01*
X14825888Y-17665643D01*
X14811603Y-17651357D01*
X8054460Y-18254500D02*
G75*
G03X8054460Y-18254500I-40005J0D01*
G01*
X8383031Y-18090214D02*
X8411603Y-18090214D01*
X8440174Y-18104500D01*
X8454460Y-18118786D01*
X8468746Y-18147357D01*
X8483031Y-18204500D01*
X8483031Y-18275929D01*
X8468746Y-18333072D01*
X8454460Y-18361643D01*
X8440174Y-18375929D01*
X8411603Y-18390214D01*
X8383031Y-18390214D01*
X8354460Y-18375929D01*
X8340174Y-18361643D01*
X8325888Y-18333072D01*
X8311603Y-18275929D01*
X8311603Y-18204500D01*
X8325888Y-18147357D01*
X8340174Y-18118786D01*
X8354460Y-18104500D01*
X8383031Y-18090214D01*
X8611603Y-18361643D02*
X8625889Y-18375929D01*
X8611603Y-18390214D01*
X8597317Y-18375929D01*
X8611603Y-18361643D01*
X8611603Y-18390214D01*
X8797317Y-18218786D02*
X8768746Y-18204500D01*
X8754460Y-18190214D01*
X8740174Y-18161643D01*
X8740174Y-18147357D01*
X8754460Y-18118786D01*
X8768746Y-18104500D01*
X8797317Y-18090214D01*
X8854460Y-18090214D01*
X8883031Y-18104500D01*
X8897317Y-18118786D01*
X8911603Y-18147357D01*
X8911603Y-18161643D01*
X8897317Y-18190214D01*
X8883031Y-18204500D01*
X8854460Y-18218786D01*
X8797317Y-18218786D01*
X8768746Y-18233072D01*
X8754460Y-18247357D01*
X8740174Y-18275929D01*
X8740174Y-18333072D01*
X8754460Y-18361643D01*
X8768746Y-18375929D01*
X8797317Y-18390214D01*
X8854460Y-18390214D01*
X8883031Y-18375929D01*
X8897317Y-18361643D01*
X8911603Y-18333072D01*
X8911603Y-18275929D01*
X8897317Y-18247357D01*
X8883031Y-18233072D01*
X8854460Y-18218786D01*
X9097317Y-18090214D02*
X9125889Y-18090214D01*
X9154460Y-18104500D01*
X9168746Y-18118786D01*
X9183031Y-18147357D01*
X9197317Y-18204500D01*
X9197317Y-18275929D01*
X9183031Y-18333072D01*
X9168746Y-18361643D01*
X9154460Y-18375929D01*
X9125889Y-18390214D01*
X9097317Y-18390214D01*
X9068746Y-18375929D01*
X9054460Y-18361643D01*
X9040174Y-18333072D01*
X9025889Y-18275929D01*
X9025889Y-18204500D01*
X9040174Y-18147357D01*
X9054460Y-18118786D01*
X9068746Y-18104500D01*
X9097317Y-18090214D01*
X9325889Y-18390214D02*
X9325889Y-18190214D01*
X9325889Y-18218786D02*
X9340174Y-18204500D01*
X9368746Y-18190214D01*
X9411603Y-18190214D01*
X9440174Y-18204500D01*
X9454460Y-18233072D01*
X9454460Y-18390214D01*
X9454460Y-18233072D02*
X9468746Y-18204500D01*
X9497317Y-18190214D01*
X9540174Y-18190214D01*
X9568746Y-18204500D01*
X9583031Y-18233072D01*
X9583031Y-18390214D01*
X9725889Y-18390214D02*
X9725889Y-18190214D01*
X9725889Y-18218786D02*
X9740174Y-18204500D01*
X9768746Y-18190214D01*
X9811603Y-18190214D01*
X9840174Y-18204500D01*
X9854460Y-18233072D01*
X9854460Y-18390214D01*
X9854460Y-18233072D02*
X9868746Y-18204500D01*
X9897317Y-18190214D01*
X9940174Y-18190214D01*
X9968746Y-18204500D01*
X9983031Y-18233072D01*
X9983031Y-18390214D01*
X10568746Y-18075929D02*
X10311603Y-18461643D01*
X10954460Y-18090214D02*
X10983031Y-18090214D01*
X11011603Y-18104500D01*
X11025888Y-18118786D01*
X11040174Y-18147357D01*
X11054460Y-18204500D01*
X11054460Y-18275929D01*
X11040174Y-18333072D01*
X11025888Y-18361643D01*
X11011603Y-18375929D01*
X10983031Y-18390214D01*
X10954460Y-18390214D01*
X10925888Y-18375929D01*
X10911603Y-18361643D01*
X10897317Y-18333072D01*
X10883031Y-18275929D01*
X10883031Y-18204500D01*
X10897317Y-18147357D01*
X10911603Y-18118786D01*
X10925888Y-18104500D01*
X10954460Y-18090214D01*
X11183031Y-18361643D02*
X11197317Y-18375929D01*
X11183031Y-18390214D01*
X11168746Y-18375929D01*
X11183031Y-18361643D01*
X11183031Y-18390214D01*
X11383031Y-18090214D02*
X11411603Y-18090214D01*
X11440174Y-18104500D01*
X11454460Y-18118786D01*
X11468745Y-18147357D01*
X11483031Y-18204500D01*
X11483031Y-18275929D01*
X11468745Y-18333072D01*
X11454460Y-18361643D01*
X11440174Y-18375929D01*
X11411603Y-18390214D01*
X11383031Y-18390214D01*
X11354460Y-18375929D01*
X11340174Y-18361643D01*
X11325888Y-18333072D01*
X11311603Y-18275929D01*
X11311603Y-18204500D01*
X11325888Y-18147357D01*
X11340174Y-18118786D01*
X11354460Y-18104500D01*
X11383031Y-18090214D01*
X11583031Y-18090214D02*
X11768745Y-18090214D01*
X11668745Y-18204500D01*
X11711603Y-18204500D01*
X11740174Y-18218786D01*
X11754460Y-18233072D01*
X11768745Y-18261643D01*
X11768745Y-18333072D01*
X11754460Y-18361643D01*
X11740174Y-18375929D01*
X11711603Y-18390214D01*
X11625888Y-18390214D01*
X11597317Y-18375929D01*
X11583031Y-18361643D01*
X11883031Y-18118786D02*
X11897317Y-18104500D01*
X11925888Y-18090214D01*
X11997317Y-18090214D01*
X12025888Y-18104500D01*
X12040174Y-18118786D01*
X12054460Y-18147357D01*
X12054460Y-18175929D01*
X12040174Y-18218786D01*
X11868745Y-18390214D01*
X12054460Y-18390214D01*
X12168746Y-18090214D02*
X12168746Y-18147357D01*
X12283031Y-18090214D02*
X12283031Y-18147357D01*
X12725888Y-18504500D02*
X12711603Y-18490214D01*
X12683031Y-18447357D01*
X12668745Y-18418786D01*
X12654460Y-18375929D01*
X12640174Y-18304500D01*
X12640174Y-18247357D01*
X12654460Y-18175929D01*
X12668745Y-18133072D01*
X12683031Y-18104500D01*
X12711603Y-18061643D01*
X12725888Y-18047357D01*
X12997317Y-18390214D02*
X12825888Y-18390214D01*
X12911603Y-18390214D02*
X12911603Y-18090214D01*
X12883031Y-18133072D01*
X12854460Y-18161643D01*
X12825888Y-18175929D01*
X13168745Y-18218786D02*
X13140174Y-18204500D01*
X13125888Y-18190214D01*
X13111603Y-18161643D01*
X13111603Y-18147357D01*
X13125888Y-18118786D01*
X13140174Y-18104500D01*
X13168745Y-18090214D01*
X13225888Y-18090214D01*
X13254460Y-18104500D01*
X13268745Y-18118786D01*
X13283031Y-18147357D01*
X13283031Y-18161643D01*
X13268745Y-18190214D01*
X13254460Y-18204500D01*
X13225888Y-18218786D01*
X13168745Y-18218786D01*
X13140174Y-18233072D01*
X13125888Y-18247357D01*
X13111603Y-18275929D01*
X13111603Y-18333072D01*
X13125888Y-18361643D01*
X13140174Y-18375929D01*
X13168745Y-18390214D01*
X13225888Y-18390214D01*
X13254460Y-18375929D01*
X13268745Y-18361643D01*
X13283031Y-18333072D01*
X13283031Y-18275929D01*
X13268745Y-18247357D01*
X13254460Y-18233072D01*
X13225888Y-18218786D01*
X13640174Y-18390214D02*
X13640174Y-18090214D01*
X13768745Y-18390214D02*
X13768745Y-18233072D01*
X13754460Y-18204500D01*
X13725888Y-18190214D01*
X13683031Y-18190214D01*
X13654460Y-18204500D01*
X13640174Y-18218786D01*
X13954460Y-18390214D02*
X13925888Y-18375929D01*
X13911603Y-18361643D01*
X13897317Y-18333072D01*
X13897317Y-18247357D01*
X13911603Y-18218786D01*
X13925888Y-18204500D01*
X13954460Y-18190214D01*
X13997317Y-18190214D01*
X14025888Y-18204500D01*
X14040174Y-18218786D01*
X14054460Y-18247357D01*
X14054460Y-18333072D01*
X14040174Y-18361643D01*
X14025888Y-18375929D01*
X13997317Y-18390214D01*
X13954460Y-18390214D01*
X14225888Y-18390214D02*
X14197317Y-18375929D01*
X14183031Y-18347357D01*
X14183031Y-18090214D01*
X14454460Y-18375929D02*
X14425888Y-18390214D01*
X14368746Y-18390214D01*
X14340174Y-18375929D01*
X14325888Y-18347357D01*
X14325888Y-18233072D01*
X14340174Y-18204500D01*
X14368746Y-18190214D01*
X14425888Y-18190214D01*
X14454460Y-18204500D01*
X14468746Y-18233072D01*
X14468746Y-18261643D01*
X14325888Y-18290214D01*
X14583031Y-18375929D02*
X14611603Y-18390214D01*
X14668746Y-18390214D01*
X14697317Y-18375929D01*
X14711603Y-18347357D01*
X14711603Y-18333072D01*
X14697317Y-18304500D01*
X14668746Y-18290214D01*
X14625888Y-18290214D01*
X14597317Y-18275929D01*
X14583031Y-18247357D01*
X14583031Y-18233072D01*
X14597317Y-18204500D01*
X14625888Y-18190214D01*
X14668746Y-18190214D01*
X14697317Y-18204500D01*
X14811603Y-18504500D02*
X14825888Y-18490214D01*
X14854460Y-18447357D01*
X14868746Y-18418786D01*
X14883031Y-18375929D01*
X14897317Y-18304500D01*
X14897317Y-18247357D01*
X14883031Y-18175929D01*
X14868746Y-18133072D01*
X14854460Y-18104500D01*
X14825888Y-18061643D01*
X14811603Y-18047357D01*
X8009460Y-18605500D02*
X8009460Y-18695500D01*
X7964460Y-18650500D02*
X8054460Y-18650500D01*
X8383031Y-18486214D02*
X8411603Y-18486214D01*
X8440174Y-18500500D01*
X8454460Y-18514786D01*
X8468746Y-18543357D01*
X8483031Y-18600500D01*
X8483031Y-18671929D01*
X8468746Y-18729072D01*
X8454460Y-18757643D01*
X8440174Y-18771929D01*
X8411603Y-18786214D01*
X8383031Y-18786214D01*
X8354460Y-18771929D01*
X8340174Y-18757643D01*
X8325888Y-18729072D01*
X8311603Y-18671929D01*
X8311603Y-18600500D01*
X8325888Y-18543357D01*
X8340174Y-18514786D01*
X8354460Y-18500500D01*
X8383031Y-18486214D01*
X8611603Y-18757643D02*
X8625889Y-18771929D01*
X8611603Y-18786214D01*
X8597317Y-18771929D01*
X8611603Y-18757643D01*
X8611603Y-18786214D01*
X8768746Y-18786214D02*
X8825888Y-18786214D01*
X8854460Y-18771929D01*
X8868746Y-18757643D01*
X8897317Y-18714786D01*
X8911603Y-18657643D01*
X8911603Y-18543357D01*
X8897317Y-18514786D01*
X8883031Y-18500500D01*
X8854460Y-18486214D01*
X8797317Y-18486214D01*
X8768746Y-18500500D01*
X8754460Y-18514786D01*
X8740174Y-18543357D01*
X8740174Y-18614786D01*
X8754460Y-18643357D01*
X8768746Y-18657643D01*
X8797317Y-18671929D01*
X8854460Y-18671929D01*
X8883031Y-18657643D01*
X8897317Y-18643357D01*
X8911603Y-18614786D01*
X9097317Y-18486214D02*
X9125889Y-18486214D01*
X9154460Y-18500500D01*
X9168746Y-18514786D01*
X9183031Y-18543357D01*
X9197317Y-18600500D01*
X9197317Y-18671929D01*
X9183031Y-18729072D01*
X9168746Y-18757643D01*
X9154460Y-18771929D01*
X9125889Y-18786214D01*
X9097317Y-18786214D01*
X9068746Y-18771929D01*
X9054460Y-18757643D01*
X9040174Y-18729072D01*
X9025889Y-18671929D01*
X9025889Y-18600500D01*
X9040174Y-18543357D01*
X9054460Y-18514786D01*
X9068746Y-18500500D01*
X9097317Y-18486214D01*
X9325889Y-18786214D02*
X9325889Y-18586214D01*
X9325889Y-18614786D02*
X9340174Y-18600500D01*
X9368746Y-18586214D01*
X9411603Y-18586214D01*
X9440174Y-18600500D01*
X9454460Y-18629072D01*
X9454460Y-18786214D01*
X9454460Y-18629072D02*
X9468746Y-18600500D01*
X9497317Y-18586214D01*
X9540174Y-18586214D01*
X9568746Y-18600500D01*
X9583031Y-18629072D01*
X9583031Y-18786214D01*
X9725889Y-18786214D02*
X9725889Y-18586214D01*
X9725889Y-18614786D02*
X9740174Y-18600500D01*
X9768746Y-18586214D01*
X9811603Y-18586214D01*
X9840174Y-18600500D01*
X9854460Y-18629072D01*
X9854460Y-18786214D01*
X9854460Y-18629072D02*
X9868746Y-18600500D01*
X9897317Y-18586214D01*
X9940174Y-18586214D01*
X9968746Y-18600500D01*
X9983031Y-18629072D01*
X9983031Y-18786214D01*
X10568746Y-18471929D02*
X10311603Y-18857643D01*
X10954460Y-18486214D02*
X10983031Y-18486214D01*
X11011603Y-18500500D01*
X11025888Y-18514786D01*
X11040174Y-18543357D01*
X11054460Y-18600500D01*
X11054460Y-18671929D01*
X11040174Y-18729072D01*
X11025888Y-18757643D01*
X11011603Y-18771929D01*
X10983031Y-18786214D01*
X10954460Y-18786214D01*
X10925888Y-18771929D01*
X10911603Y-18757643D01*
X10897317Y-18729072D01*
X10883031Y-18671929D01*
X10883031Y-18600500D01*
X10897317Y-18543357D01*
X10911603Y-18514786D01*
X10925888Y-18500500D01*
X10954460Y-18486214D01*
X11183031Y-18757643D02*
X11197317Y-18771929D01*
X11183031Y-18786214D01*
X11168746Y-18771929D01*
X11183031Y-18757643D01*
X11183031Y-18786214D01*
X11383031Y-18486214D02*
X11411603Y-18486214D01*
X11440174Y-18500500D01*
X11454460Y-18514786D01*
X11468745Y-18543357D01*
X11483031Y-18600500D01*
X11483031Y-18671929D01*
X11468745Y-18729072D01*
X11454460Y-18757643D01*
X11440174Y-18771929D01*
X11411603Y-18786214D01*
X11383031Y-18786214D01*
X11354460Y-18771929D01*
X11340174Y-18757643D01*
X11325888Y-18729072D01*
X11311603Y-18671929D01*
X11311603Y-18600500D01*
X11325888Y-18543357D01*
X11340174Y-18514786D01*
X11354460Y-18500500D01*
X11383031Y-18486214D01*
X11583031Y-18486214D02*
X11768745Y-18486214D01*
X11668745Y-18600500D01*
X11711603Y-18600500D01*
X11740174Y-18614786D01*
X11754460Y-18629072D01*
X11768745Y-18657643D01*
X11768745Y-18729072D01*
X11754460Y-18757643D01*
X11740174Y-18771929D01*
X11711603Y-18786214D01*
X11625888Y-18786214D01*
X11597317Y-18771929D01*
X11583031Y-18757643D01*
X12040174Y-18486214D02*
X11897317Y-18486214D01*
X11883031Y-18629072D01*
X11897317Y-18614786D01*
X11925888Y-18600500D01*
X11997317Y-18600500D01*
X12025888Y-18614786D01*
X12040174Y-18629072D01*
X12054460Y-18657643D01*
X12054460Y-18729072D01*
X12040174Y-18757643D01*
X12025888Y-18771929D01*
X11997317Y-18786214D01*
X11925888Y-18786214D01*
X11897317Y-18771929D01*
X11883031Y-18757643D01*
X12168746Y-18486214D02*
X12168746Y-18543357D01*
X12283031Y-18486214D02*
X12283031Y-18543357D01*
X12725888Y-18900500D02*
X12711603Y-18886214D01*
X12683031Y-18843357D01*
X12668745Y-18814786D01*
X12654460Y-18771929D01*
X12640174Y-18700500D01*
X12640174Y-18643357D01*
X12654460Y-18571929D01*
X12668745Y-18529072D01*
X12683031Y-18500500D01*
X12711603Y-18457643D01*
X12725888Y-18443357D01*
X12883031Y-18614786D02*
X12854460Y-18600500D01*
X12840174Y-18586214D01*
X12825888Y-18557643D01*
X12825888Y-18543357D01*
X12840174Y-18514786D01*
X12854460Y-18500500D01*
X12883031Y-18486214D01*
X12940174Y-18486214D01*
X12968745Y-18500500D01*
X12983031Y-18514786D01*
X12997317Y-18543357D01*
X12997317Y-18557643D01*
X12983031Y-18586214D01*
X12968745Y-18600500D01*
X12940174Y-18614786D01*
X12883031Y-18614786D01*
X12854460Y-18629072D01*
X12840174Y-18643357D01*
X12825888Y-18671929D01*
X12825888Y-18729072D01*
X12840174Y-18757643D01*
X12854460Y-18771929D01*
X12883031Y-18786214D01*
X12940174Y-18786214D01*
X12968745Y-18771929D01*
X12983031Y-18757643D01*
X12997317Y-18729072D01*
X12997317Y-18671929D01*
X12983031Y-18643357D01*
X12968745Y-18629072D01*
X12940174Y-18614786D01*
X13354460Y-18786214D02*
X13354460Y-18486214D01*
X13483031Y-18786214D02*
X13483031Y-18629072D01*
X13468745Y-18600500D01*
X13440174Y-18586214D01*
X13397317Y-18586214D01*
X13368745Y-18600500D01*
X13354460Y-18614786D01*
X13668745Y-18786214D02*
X13640174Y-18771929D01*
X13625888Y-18757643D01*
X13611603Y-18729072D01*
X13611603Y-18643357D01*
X13625888Y-18614786D01*
X13640174Y-18600500D01*
X13668745Y-18586214D01*
X13711603Y-18586214D01*
X13740174Y-18600500D01*
X13754460Y-18614786D01*
X13768745Y-18643357D01*
X13768745Y-18729072D01*
X13754460Y-18757643D01*
X13740174Y-18771929D01*
X13711603Y-18786214D01*
X13668745Y-18786214D01*
X13940174Y-18786214D02*
X13911603Y-18771929D01*
X13897317Y-18743357D01*
X13897317Y-18486214D01*
X14168746Y-18771929D02*
X14140174Y-18786214D01*
X14083031Y-18786214D01*
X14054460Y-18771929D01*
X14040174Y-18743357D01*
X14040174Y-18629072D01*
X14054460Y-18600500D01*
X14083031Y-18586214D01*
X14140174Y-18586214D01*
X14168746Y-18600500D01*
X14183031Y-18629072D01*
X14183031Y-18657643D01*
X14040174Y-18686214D01*
X14297317Y-18771929D02*
X14325888Y-18786214D01*
X14383031Y-18786214D01*
X14411603Y-18771929D01*
X14425888Y-18743357D01*
X14425888Y-18729072D01*
X14411603Y-18700500D01*
X14383031Y-18686214D01*
X14340174Y-18686214D01*
X14311603Y-18671929D01*
X14297317Y-18643357D01*
X14297317Y-18629072D01*
X14311603Y-18600500D01*
X14340174Y-18586214D01*
X14383031Y-18586214D01*
X14411603Y-18600500D01*
X14525888Y-18900500D02*
X14540174Y-18886214D01*
X14568746Y-18843357D01*
X14583031Y-18814786D01*
X14597317Y-18771929D01*
X14611603Y-18700500D01*
X14611603Y-18643357D01*
X14597317Y-18571929D01*
X14583031Y-18529072D01*
X14568746Y-18500500D01*
X14540174Y-18457643D01*
X14525888Y-18443357D01*
X8039842Y-19081793D02*
X8039842Y-19011207D01*
X7969256Y-19011207D01*
X7969256Y-19081793D01*
X8039842Y-19081793D01*
X8483031Y-19182214D02*
X8311603Y-19182214D01*
X8397317Y-19182214D02*
X8397317Y-18882214D01*
X8368746Y-18925072D01*
X8340174Y-18953643D01*
X8311603Y-18967929D01*
X8611603Y-19153643D02*
X8625889Y-19167929D01*
X8611603Y-19182214D01*
X8597317Y-19167929D01*
X8611603Y-19153643D01*
X8611603Y-19182214D01*
X8811603Y-18882214D02*
X8840174Y-18882214D01*
X8868746Y-18896500D01*
X8883031Y-18910786D01*
X8897317Y-18939357D01*
X8911603Y-18996500D01*
X8911603Y-19067929D01*
X8897317Y-19125072D01*
X8883031Y-19153643D01*
X8868746Y-19167929D01*
X8840174Y-19182214D01*
X8811603Y-19182214D01*
X8783031Y-19167929D01*
X8768746Y-19153643D01*
X8754460Y-19125072D01*
X8740174Y-19067929D01*
X8740174Y-18996500D01*
X8754460Y-18939357D01*
X8768746Y-18910786D01*
X8783031Y-18896500D01*
X8811603Y-18882214D01*
X9097317Y-18882214D02*
X9125889Y-18882214D01*
X9154460Y-18896500D01*
X9168746Y-18910786D01*
X9183031Y-18939357D01*
X9197317Y-18996500D01*
X9197317Y-19067929D01*
X9183031Y-19125072D01*
X9168746Y-19153643D01*
X9154460Y-19167929D01*
X9125889Y-19182214D01*
X9097317Y-19182214D01*
X9068746Y-19167929D01*
X9054460Y-19153643D01*
X9040174Y-19125072D01*
X9025889Y-19067929D01*
X9025889Y-18996500D01*
X9040174Y-18939357D01*
X9054460Y-18910786D01*
X9068746Y-18896500D01*
X9097317Y-18882214D01*
X9325889Y-19182214D02*
X9325889Y-18982214D01*
X9325889Y-19010786D02*
X9340174Y-18996500D01*
X9368746Y-18982214D01*
X9411603Y-18982214D01*
X9440174Y-18996500D01*
X9454460Y-19025072D01*
X9454460Y-19182214D01*
X9454460Y-19025072D02*
X9468746Y-18996500D01*
X9497317Y-18982214D01*
X9540174Y-18982214D01*
X9568746Y-18996500D01*
X9583031Y-19025072D01*
X9583031Y-19182214D01*
X9725889Y-19182214D02*
X9725889Y-18982214D01*
X9725889Y-19010786D02*
X9740174Y-18996500D01*
X9768746Y-18982214D01*
X9811603Y-18982214D01*
X9840174Y-18996500D01*
X9854460Y-19025072D01*
X9854460Y-19182214D01*
X9854460Y-19025072D02*
X9868746Y-18996500D01*
X9897317Y-18982214D01*
X9940174Y-18982214D01*
X9968746Y-18996500D01*
X9983031Y-19025072D01*
X9983031Y-19182214D01*
X10568746Y-18867929D02*
X10311603Y-19253643D01*
X10954460Y-18882214D02*
X10983031Y-18882214D01*
X11011603Y-18896500D01*
X11025888Y-18910786D01*
X11040174Y-18939357D01*
X11054460Y-18996500D01*
X11054460Y-19067929D01*
X11040174Y-19125072D01*
X11025888Y-19153643D01*
X11011603Y-19167929D01*
X10983031Y-19182214D01*
X10954460Y-19182214D01*
X10925888Y-19167929D01*
X10911603Y-19153643D01*
X10897317Y-19125072D01*
X10883031Y-19067929D01*
X10883031Y-18996500D01*
X10897317Y-18939357D01*
X10911603Y-18910786D01*
X10925888Y-18896500D01*
X10954460Y-18882214D01*
X11183031Y-19153643D02*
X11197317Y-19167929D01*
X11183031Y-19182214D01*
X11168746Y-19167929D01*
X11183031Y-19153643D01*
X11183031Y-19182214D01*
X11383031Y-18882214D02*
X11411603Y-18882214D01*
X11440174Y-18896500D01*
X11454460Y-18910786D01*
X11468745Y-18939357D01*
X11483031Y-18996500D01*
X11483031Y-19067929D01*
X11468745Y-19125072D01*
X11454460Y-19153643D01*
X11440174Y-19167929D01*
X11411603Y-19182214D01*
X11383031Y-19182214D01*
X11354460Y-19167929D01*
X11340174Y-19153643D01*
X11325888Y-19125072D01*
X11311603Y-19067929D01*
X11311603Y-18996500D01*
X11325888Y-18939357D01*
X11340174Y-18910786D01*
X11354460Y-18896500D01*
X11383031Y-18882214D01*
X11583031Y-18882214D02*
X11768745Y-18882214D01*
X11668745Y-18996500D01*
X11711603Y-18996500D01*
X11740174Y-19010786D01*
X11754460Y-19025072D01*
X11768745Y-19053643D01*
X11768745Y-19125072D01*
X11754460Y-19153643D01*
X11740174Y-19167929D01*
X11711603Y-19182214D01*
X11625888Y-19182214D01*
X11597317Y-19167929D01*
X11583031Y-19153643D01*
X11911603Y-19182214D02*
X11968745Y-19182214D01*
X11997317Y-19167929D01*
X12011603Y-19153643D01*
X12040174Y-19110786D01*
X12054460Y-19053643D01*
X12054460Y-18939357D01*
X12040174Y-18910786D01*
X12025888Y-18896500D01*
X11997317Y-18882214D01*
X11940174Y-18882214D01*
X11911603Y-18896500D01*
X11897317Y-18910786D01*
X11883031Y-18939357D01*
X11883031Y-19010786D01*
X11897317Y-19039357D01*
X11911603Y-19053643D01*
X11940174Y-19067929D01*
X11997317Y-19067929D01*
X12025888Y-19053643D01*
X12040174Y-19039357D01*
X12054460Y-19010786D01*
X12168746Y-18882214D02*
X12168746Y-18939357D01*
X12283031Y-18882214D02*
X12283031Y-18939357D01*
X12725888Y-19296500D02*
X12711603Y-19282214D01*
X12683031Y-19239357D01*
X12668745Y-19210786D01*
X12654460Y-19167929D01*
X12640174Y-19096500D01*
X12640174Y-19039357D01*
X12654460Y-18967929D01*
X12668745Y-18925072D01*
X12683031Y-18896500D01*
X12711603Y-18853643D01*
X12725888Y-18839357D01*
X12997317Y-19182214D02*
X12825888Y-19182214D01*
X12911603Y-19182214D02*
X12911603Y-18882214D01*
X12883031Y-18925072D01*
X12854460Y-18953643D01*
X12825888Y-18967929D01*
X13183031Y-18882214D02*
X13211603Y-18882214D01*
X13240174Y-18896500D01*
X13254460Y-18910786D01*
X13268745Y-18939357D01*
X13283031Y-18996500D01*
X13283031Y-19067929D01*
X13268745Y-19125072D01*
X13254460Y-19153643D01*
X13240174Y-19167929D01*
X13211603Y-19182214D01*
X13183031Y-19182214D01*
X13154460Y-19167929D01*
X13140174Y-19153643D01*
X13125888Y-19125072D01*
X13111603Y-19067929D01*
X13111603Y-18996500D01*
X13125888Y-18939357D01*
X13140174Y-18910786D01*
X13154460Y-18896500D01*
X13183031Y-18882214D01*
X13640174Y-19182214D02*
X13640174Y-18882214D01*
X13768745Y-19182214D02*
X13768745Y-19025072D01*
X13754460Y-18996500D01*
X13725888Y-18982214D01*
X13683031Y-18982214D01*
X13654460Y-18996500D01*
X13640174Y-19010786D01*
X13954460Y-19182214D02*
X13925888Y-19167929D01*
X13911603Y-19153643D01*
X13897317Y-19125072D01*
X13897317Y-19039357D01*
X13911603Y-19010786D01*
X13925888Y-18996500D01*
X13954460Y-18982214D01*
X13997317Y-18982214D01*
X14025888Y-18996500D01*
X14040174Y-19010786D01*
X14054460Y-19039357D01*
X14054460Y-19125072D01*
X14040174Y-19153643D01*
X14025888Y-19167929D01*
X13997317Y-19182214D01*
X13954460Y-19182214D01*
X14225888Y-19182214D02*
X14197317Y-19167929D01*
X14183031Y-19139357D01*
X14183031Y-18882214D01*
X14454460Y-19167929D02*
X14425888Y-19182214D01*
X14368746Y-19182214D01*
X14340174Y-19167929D01*
X14325888Y-19139357D01*
X14325888Y-19025072D01*
X14340174Y-18996500D01*
X14368746Y-18982214D01*
X14425888Y-18982214D01*
X14454460Y-18996500D01*
X14468746Y-19025072D01*
X14468746Y-19053643D01*
X14325888Y-19082214D01*
X14583031Y-19167929D02*
X14611603Y-19182214D01*
X14668746Y-19182214D01*
X14697317Y-19167929D01*
X14711603Y-19139357D01*
X14711603Y-19125072D01*
X14697317Y-19096500D01*
X14668746Y-19082214D01*
X14625888Y-19082214D01*
X14597317Y-19067929D01*
X14583031Y-19039357D01*
X14583031Y-19025072D01*
X14597317Y-18996500D01*
X14625888Y-18982214D01*
X14668746Y-18982214D01*
X14697317Y-18996500D01*
X14811603Y-19296500D02*
X14825888Y-19282214D01*
X14854460Y-19239357D01*
X14868746Y-19210786D01*
X14883031Y-19167929D01*
X14897317Y-19096500D01*
X14897317Y-19039357D01*
X14883031Y-18967929D01*
X14868746Y-18925072D01*
X14854460Y-18896500D01*
X14825888Y-18853643D01*
X14811603Y-18839357D01*
X8004422Y-19492538D02*
X8054460Y-19442500D01*
X8004422Y-19392462D01*
X7954384Y-19442500D01*
X8004422Y-19492538D01*
X8483031Y-19578214D02*
X8311603Y-19578214D01*
X8397317Y-19578214D02*
X8397317Y-19278214D01*
X8368746Y-19321072D01*
X8340174Y-19349643D01*
X8311603Y-19363929D01*
X8611603Y-19549643D02*
X8625889Y-19563929D01*
X8611603Y-19578214D01*
X8597317Y-19563929D01*
X8611603Y-19549643D01*
X8611603Y-19578214D01*
X8811603Y-19278214D02*
X8840174Y-19278214D01*
X8868746Y-19292500D01*
X8883031Y-19306786D01*
X8897317Y-19335357D01*
X8911603Y-19392500D01*
X8911603Y-19463929D01*
X8897317Y-19521072D01*
X8883031Y-19549643D01*
X8868746Y-19563929D01*
X8840174Y-19578214D01*
X8811603Y-19578214D01*
X8783031Y-19563929D01*
X8768746Y-19549643D01*
X8754460Y-19521072D01*
X8740174Y-19463929D01*
X8740174Y-19392500D01*
X8754460Y-19335357D01*
X8768746Y-19306786D01*
X8783031Y-19292500D01*
X8811603Y-19278214D01*
X9097317Y-19278214D02*
X9125889Y-19278214D01*
X9154460Y-19292500D01*
X9168746Y-19306786D01*
X9183031Y-19335357D01*
X9197317Y-19392500D01*
X9197317Y-19463929D01*
X9183031Y-19521072D01*
X9168746Y-19549643D01*
X9154460Y-19563929D01*
X9125889Y-19578214D01*
X9097317Y-19578214D01*
X9068746Y-19563929D01*
X9054460Y-19549643D01*
X9040174Y-19521072D01*
X9025889Y-19463929D01*
X9025889Y-19392500D01*
X9040174Y-19335357D01*
X9054460Y-19306786D01*
X9068746Y-19292500D01*
X9097317Y-19278214D01*
X9325889Y-19578214D02*
X9325889Y-19378214D01*
X9325889Y-19406786D02*
X9340174Y-19392500D01*
X9368746Y-19378214D01*
X9411603Y-19378214D01*
X9440174Y-19392500D01*
X9454460Y-19421072D01*
X9454460Y-19578214D01*
X9454460Y-19421072D02*
X9468746Y-19392500D01*
X9497317Y-19378214D01*
X9540174Y-19378214D01*
X9568746Y-19392500D01*
X9583031Y-19421072D01*
X9583031Y-19578214D01*
X9725889Y-19578214D02*
X9725889Y-19378214D01*
X9725889Y-19406786D02*
X9740174Y-19392500D01*
X9768746Y-19378214D01*
X9811603Y-19378214D01*
X9840174Y-19392500D01*
X9854460Y-19421072D01*
X9854460Y-19578214D01*
X9854460Y-19421072D02*
X9868746Y-19392500D01*
X9897317Y-19378214D01*
X9940174Y-19378214D01*
X9968746Y-19392500D01*
X9983031Y-19421072D01*
X9983031Y-19578214D01*
X10568746Y-19263929D02*
X10311603Y-19649643D01*
X10954460Y-19278214D02*
X10983031Y-19278214D01*
X11011603Y-19292500D01*
X11025888Y-19306786D01*
X11040174Y-19335357D01*
X11054460Y-19392500D01*
X11054460Y-19463929D01*
X11040174Y-19521072D01*
X11025888Y-19549643D01*
X11011603Y-19563929D01*
X10983031Y-19578214D01*
X10954460Y-19578214D01*
X10925888Y-19563929D01*
X10911603Y-19549643D01*
X10897317Y-19521072D01*
X10883031Y-19463929D01*
X10883031Y-19392500D01*
X10897317Y-19335357D01*
X10911603Y-19306786D01*
X10925888Y-19292500D01*
X10954460Y-19278214D01*
X11183031Y-19549643D02*
X11197317Y-19563929D01*
X11183031Y-19578214D01*
X11168746Y-19563929D01*
X11183031Y-19549643D01*
X11183031Y-19578214D01*
X11383031Y-19278214D02*
X11411603Y-19278214D01*
X11440174Y-19292500D01*
X11454460Y-19306786D01*
X11468745Y-19335357D01*
X11483031Y-19392500D01*
X11483031Y-19463929D01*
X11468745Y-19521072D01*
X11454460Y-19549643D01*
X11440174Y-19563929D01*
X11411603Y-19578214D01*
X11383031Y-19578214D01*
X11354460Y-19563929D01*
X11340174Y-19549643D01*
X11325888Y-19521072D01*
X11311603Y-19463929D01*
X11311603Y-19392500D01*
X11325888Y-19335357D01*
X11340174Y-19306786D01*
X11354460Y-19292500D01*
X11383031Y-19278214D01*
X11583031Y-19278214D02*
X11768745Y-19278214D01*
X11668745Y-19392500D01*
X11711603Y-19392500D01*
X11740174Y-19406786D01*
X11754460Y-19421072D01*
X11768745Y-19449643D01*
X11768745Y-19521072D01*
X11754460Y-19549643D01*
X11740174Y-19563929D01*
X11711603Y-19578214D01*
X11625888Y-19578214D01*
X11597317Y-19563929D01*
X11583031Y-19549643D01*
X11911603Y-19578214D02*
X11968745Y-19578214D01*
X11997317Y-19563929D01*
X12011603Y-19549643D01*
X12040174Y-19506786D01*
X12054460Y-19449643D01*
X12054460Y-19335357D01*
X12040174Y-19306786D01*
X12025888Y-19292500D01*
X11997317Y-19278214D01*
X11940174Y-19278214D01*
X11911603Y-19292500D01*
X11897317Y-19306786D01*
X11883031Y-19335357D01*
X11883031Y-19406786D01*
X11897317Y-19435357D01*
X11911603Y-19449643D01*
X11940174Y-19463929D01*
X11997317Y-19463929D01*
X12025888Y-19449643D01*
X12040174Y-19435357D01*
X12054460Y-19406786D01*
X12168746Y-19278214D02*
X12168746Y-19335357D01*
X12283031Y-19278214D02*
X12283031Y-19335357D01*
X12725888Y-19692500D02*
X12711603Y-19678214D01*
X12683031Y-19635357D01*
X12668745Y-19606786D01*
X12654460Y-19563929D01*
X12640174Y-19492500D01*
X12640174Y-19435357D01*
X12654460Y-19363929D01*
X12668745Y-19321072D01*
X12683031Y-19292500D01*
X12711603Y-19249643D01*
X12725888Y-19235357D01*
X12825888Y-19306786D02*
X12840174Y-19292500D01*
X12868745Y-19278214D01*
X12940174Y-19278214D01*
X12968745Y-19292500D01*
X12983031Y-19306786D01*
X12997317Y-19335357D01*
X12997317Y-19363929D01*
X12983031Y-19406786D01*
X12811603Y-19578214D01*
X12997317Y-19578214D01*
X13183031Y-19278214D02*
X13211603Y-19278214D01*
X13240174Y-19292500D01*
X13254460Y-19306786D01*
X13268745Y-19335357D01*
X13283031Y-19392500D01*
X13283031Y-19463929D01*
X13268745Y-19521072D01*
X13254460Y-19549643D01*
X13240174Y-19563929D01*
X13211603Y-19578214D01*
X13183031Y-19578214D01*
X13154460Y-19563929D01*
X13140174Y-19549643D01*
X13125888Y-19521072D01*
X13111603Y-19463929D01*
X13111603Y-19392500D01*
X13125888Y-19335357D01*
X13140174Y-19306786D01*
X13154460Y-19292500D01*
X13183031Y-19278214D01*
X13640174Y-19578214D02*
X13640174Y-19278214D01*
X13768745Y-19578214D02*
X13768745Y-19421072D01*
X13754460Y-19392500D01*
X13725888Y-19378214D01*
X13683031Y-19378214D01*
X13654460Y-19392500D01*
X13640174Y-19406786D01*
X13954460Y-19578214D02*
X13925888Y-19563929D01*
X13911603Y-19549643D01*
X13897317Y-19521072D01*
X13897317Y-19435357D01*
X13911603Y-19406786D01*
X13925888Y-19392500D01*
X13954460Y-19378214D01*
X13997317Y-19378214D01*
X14025888Y-19392500D01*
X14040174Y-19406786D01*
X14054460Y-19435357D01*
X14054460Y-19521072D01*
X14040174Y-19549643D01*
X14025888Y-19563929D01*
X13997317Y-19578214D01*
X13954460Y-19578214D01*
X14225888Y-19578214D02*
X14197317Y-19563929D01*
X14183031Y-19535357D01*
X14183031Y-19278214D01*
X14454460Y-19563929D02*
X14425888Y-19578214D01*
X14368746Y-19578214D01*
X14340174Y-19563929D01*
X14325888Y-19535357D01*
X14325888Y-19421072D01*
X14340174Y-19392500D01*
X14368746Y-19378214D01*
X14425888Y-19378214D01*
X14454460Y-19392500D01*
X14468746Y-19421072D01*
X14468746Y-19449643D01*
X14325888Y-19478214D01*
X14583031Y-19563929D02*
X14611603Y-19578214D01*
X14668746Y-19578214D01*
X14697317Y-19563929D01*
X14711603Y-19535357D01*
X14711603Y-19521072D01*
X14697317Y-19492500D01*
X14668746Y-19478214D01*
X14625888Y-19478214D01*
X14597317Y-19463929D01*
X14583031Y-19435357D01*
X14583031Y-19421072D01*
X14597317Y-19392500D01*
X14625888Y-19378214D01*
X14668746Y-19378214D01*
X14697317Y-19392500D01*
X14811603Y-19692500D02*
X14825888Y-19678214D01*
X14854460Y-19635357D01*
X14868746Y-19606786D01*
X14883031Y-19563929D01*
X14897317Y-19492500D01*
X14897317Y-19435357D01*
X14883031Y-19363929D01*
X14868746Y-19321072D01*
X14854460Y-19292500D01*
X14825888Y-19249643D01*
X14811603Y-19235357D01*
X7952860Y-19787700D02*
X8054460Y-19889300D01*
X8054460Y-19787700D02*
X7952860Y-19889300D01*
X8054460Y-19838500D02*
G75*
G03X8054460Y-19838500I-50800J0D01*
G01*
X8483031Y-19974214D02*
X8311603Y-19974214D01*
X8397317Y-19974214D02*
X8397317Y-19674214D01*
X8368746Y-19717072D01*
X8340174Y-19745643D01*
X8311603Y-19759929D01*
X8611603Y-19945643D02*
X8625889Y-19959929D01*
X8611603Y-19974214D01*
X8597317Y-19959929D01*
X8611603Y-19945643D01*
X8611603Y-19974214D01*
X8811603Y-19674214D02*
X8840174Y-19674214D01*
X8868746Y-19688500D01*
X8883031Y-19702786D01*
X8897317Y-19731357D01*
X8911603Y-19788500D01*
X8911603Y-19859929D01*
X8897317Y-19917072D01*
X8883031Y-19945643D01*
X8868746Y-19959929D01*
X8840174Y-19974214D01*
X8811603Y-19974214D01*
X8783031Y-19959929D01*
X8768746Y-19945643D01*
X8754460Y-19917072D01*
X8740174Y-19859929D01*
X8740174Y-19788500D01*
X8754460Y-19731357D01*
X8768746Y-19702786D01*
X8783031Y-19688500D01*
X8811603Y-19674214D01*
X9025889Y-19702786D02*
X9040174Y-19688500D01*
X9068746Y-19674214D01*
X9140174Y-19674214D01*
X9168746Y-19688500D01*
X9183031Y-19702786D01*
X9197317Y-19731357D01*
X9197317Y-19759929D01*
X9183031Y-19802786D01*
X9011603Y-19974214D01*
X9197317Y-19974214D01*
X9325889Y-19974214D02*
X9325889Y-19774214D01*
X9325889Y-19802786D02*
X9340174Y-19788500D01*
X9368746Y-19774214D01*
X9411603Y-19774214D01*
X9440174Y-19788500D01*
X9454460Y-19817072D01*
X9454460Y-19974214D01*
X9454460Y-19817072D02*
X9468746Y-19788500D01*
X9497317Y-19774214D01*
X9540174Y-19774214D01*
X9568746Y-19788500D01*
X9583031Y-19817072D01*
X9583031Y-19974214D01*
X9725889Y-19974214D02*
X9725889Y-19774214D01*
X9725889Y-19802786D02*
X9740174Y-19788500D01*
X9768746Y-19774214D01*
X9811603Y-19774214D01*
X9840174Y-19788500D01*
X9854460Y-19817072D01*
X9854460Y-19974214D01*
X9854460Y-19817072D02*
X9868746Y-19788500D01*
X9897317Y-19774214D01*
X9940174Y-19774214D01*
X9968746Y-19788500D01*
X9983031Y-19817072D01*
X9983031Y-19974214D01*
X10568746Y-19659929D02*
X10311603Y-20045643D01*
X10954460Y-19674214D02*
X10983031Y-19674214D01*
X11011603Y-19688500D01*
X11025888Y-19702786D01*
X11040174Y-19731357D01*
X11054460Y-19788500D01*
X11054460Y-19859929D01*
X11040174Y-19917072D01*
X11025888Y-19945643D01*
X11011603Y-19959929D01*
X10983031Y-19974214D01*
X10954460Y-19974214D01*
X10925888Y-19959929D01*
X10911603Y-19945643D01*
X10897317Y-19917072D01*
X10883031Y-19859929D01*
X10883031Y-19788500D01*
X10897317Y-19731357D01*
X10911603Y-19702786D01*
X10925888Y-19688500D01*
X10954460Y-19674214D01*
X11183031Y-19945643D02*
X11197317Y-19959929D01*
X11183031Y-19974214D01*
X11168746Y-19959929D01*
X11183031Y-19945643D01*
X11183031Y-19974214D01*
X11383031Y-19674214D02*
X11411603Y-19674214D01*
X11440174Y-19688500D01*
X11454460Y-19702786D01*
X11468745Y-19731357D01*
X11483031Y-19788500D01*
X11483031Y-19859929D01*
X11468745Y-19917072D01*
X11454460Y-19945643D01*
X11440174Y-19959929D01*
X11411603Y-19974214D01*
X11383031Y-19974214D01*
X11354460Y-19959929D01*
X11340174Y-19945643D01*
X11325888Y-19917072D01*
X11311603Y-19859929D01*
X11311603Y-19788500D01*
X11325888Y-19731357D01*
X11340174Y-19702786D01*
X11354460Y-19688500D01*
X11383031Y-19674214D01*
X11740174Y-19774214D02*
X11740174Y-19974214D01*
X11668745Y-19659929D02*
X11597317Y-19874214D01*
X11783031Y-19874214D01*
X11954460Y-19674214D02*
X11983031Y-19674214D01*
X12011603Y-19688500D01*
X12025888Y-19702786D01*
X12040174Y-19731357D01*
X12054460Y-19788500D01*
X12054460Y-19859929D01*
X12040174Y-19917072D01*
X12025888Y-19945643D01*
X12011603Y-19959929D01*
X11983031Y-19974214D01*
X11954460Y-19974214D01*
X11925888Y-19959929D01*
X11911603Y-19945643D01*
X11897317Y-19917072D01*
X11883031Y-19859929D01*
X11883031Y-19788500D01*
X11897317Y-19731357D01*
X11911603Y-19702786D01*
X11925888Y-19688500D01*
X11954460Y-19674214D01*
X12168746Y-19674214D02*
X12168746Y-19731357D01*
X12283031Y-19674214D02*
X12283031Y-19731357D01*
X12725888Y-20088500D02*
X12711603Y-20074214D01*
X12683031Y-20031357D01*
X12668745Y-20002786D01*
X12654460Y-19959929D01*
X12640174Y-19888500D01*
X12640174Y-19831357D01*
X12654460Y-19759929D01*
X12668745Y-19717072D01*
X12683031Y-19688500D01*
X12711603Y-19645643D01*
X12725888Y-19631357D01*
X12997317Y-19974214D02*
X12825888Y-19974214D01*
X12911603Y-19974214D02*
X12911603Y-19674214D01*
X12883031Y-19717072D01*
X12854460Y-19745643D01*
X12825888Y-19759929D01*
X13354460Y-19974214D02*
X13354460Y-19674214D01*
X13483031Y-19974214D02*
X13483031Y-19817072D01*
X13468745Y-19788500D01*
X13440174Y-19774214D01*
X13397317Y-19774214D01*
X13368745Y-19788500D01*
X13354460Y-19802786D01*
X13668745Y-19974214D02*
X13640174Y-19959929D01*
X13625888Y-19945643D01*
X13611603Y-19917072D01*
X13611603Y-19831357D01*
X13625888Y-19802786D01*
X13640174Y-19788500D01*
X13668745Y-19774214D01*
X13711603Y-19774214D01*
X13740174Y-19788500D01*
X13754460Y-19802786D01*
X13768745Y-19831357D01*
X13768745Y-19917072D01*
X13754460Y-19945643D01*
X13740174Y-19959929D01*
X13711603Y-19974214D01*
X13668745Y-19974214D01*
X13940174Y-19974214D02*
X13911603Y-19959929D01*
X13897317Y-19931357D01*
X13897317Y-19674214D01*
X14168746Y-19959929D02*
X14140174Y-19974214D01*
X14083031Y-19974214D01*
X14054460Y-19959929D01*
X14040174Y-19931357D01*
X14040174Y-19817072D01*
X14054460Y-19788500D01*
X14083031Y-19774214D01*
X14140174Y-19774214D01*
X14168746Y-19788500D01*
X14183031Y-19817072D01*
X14183031Y-19845643D01*
X14040174Y-19874214D01*
X14283031Y-20088500D02*
X14297317Y-20074214D01*
X14325888Y-20031357D01*
X14340174Y-20002786D01*
X14354460Y-19959929D01*
X14368746Y-19888500D01*
X14368746Y-19831357D01*
X14354460Y-19759929D01*
X14340174Y-19717072D01*
X14325888Y-19688500D01*
X14297317Y-19645643D01*
X14283031Y-19631357D01*
X7914506Y-20164523D02*
X8054460Y-20304477D01*
X8054460Y-20164523D02*
X7914506Y-20304477D01*
X7984483Y-20164523D02*
X7984483Y-20304477D01*
X7914506Y-20234500D02*
X8054460Y-20234500D01*
X8483031Y-20370214D02*
X8311603Y-20370214D01*
X8397317Y-20370214D02*
X8397317Y-20070214D01*
X8368746Y-20113072D01*
X8340174Y-20141643D01*
X8311603Y-20155929D01*
X8611603Y-20341643D02*
X8625889Y-20355929D01*
X8611603Y-20370214D01*
X8597317Y-20355929D01*
X8611603Y-20341643D01*
X8611603Y-20370214D01*
X8883031Y-20170214D02*
X8883031Y-20370214D01*
X8811603Y-20055929D02*
X8740174Y-20270214D01*
X8925888Y-20270214D01*
X9097317Y-20070214D02*
X9125889Y-20070214D01*
X9154460Y-20084500D01*
X9168746Y-20098786D01*
X9183031Y-20127357D01*
X9197317Y-20184500D01*
X9197317Y-20255929D01*
X9183031Y-20313072D01*
X9168746Y-20341643D01*
X9154460Y-20355929D01*
X9125889Y-20370214D01*
X9097317Y-20370214D01*
X9068746Y-20355929D01*
X9054460Y-20341643D01*
X9040174Y-20313072D01*
X9025889Y-20255929D01*
X9025889Y-20184500D01*
X9040174Y-20127357D01*
X9054460Y-20098786D01*
X9068746Y-20084500D01*
X9097317Y-20070214D01*
X9325889Y-20370214D02*
X9325889Y-20170214D01*
X9325889Y-20198786D02*
X9340174Y-20184500D01*
X9368746Y-20170214D01*
X9411603Y-20170214D01*
X9440174Y-20184500D01*
X9454460Y-20213072D01*
X9454460Y-20370214D01*
X9454460Y-20213072D02*
X9468746Y-20184500D01*
X9497317Y-20170214D01*
X9540174Y-20170214D01*
X9568746Y-20184500D01*
X9583031Y-20213072D01*
X9583031Y-20370214D01*
X9725889Y-20370214D02*
X9725889Y-20170214D01*
X9725889Y-20198786D02*
X9740174Y-20184500D01*
X9768746Y-20170214D01*
X9811603Y-20170214D01*
X9840174Y-20184500D01*
X9854460Y-20213072D01*
X9854460Y-20370214D01*
X9854460Y-20213072D02*
X9868746Y-20184500D01*
X9897317Y-20170214D01*
X9940174Y-20170214D01*
X9968746Y-20184500D01*
X9983031Y-20213072D01*
X9983031Y-20370214D01*
X10568746Y-20055929D02*
X10311603Y-20441643D01*
X10954460Y-20070214D02*
X10983031Y-20070214D01*
X11011603Y-20084500D01*
X11025888Y-20098786D01*
X11040174Y-20127357D01*
X11054460Y-20184500D01*
X11054460Y-20255929D01*
X11040174Y-20313072D01*
X11025888Y-20341643D01*
X11011603Y-20355929D01*
X10983031Y-20370214D01*
X10954460Y-20370214D01*
X10925888Y-20355929D01*
X10911603Y-20341643D01*
X10897317Y-20313072D01*
X10883031Y-20255929D01*
X10883031Y-20184500D01*
X10897317Y-20127357D01*
X10911603Y-20098786D01*
X10925888Y-20084500D01*
X10954460Y-20070214D01*
X11183031Y-20341643D02*
X11197317Y-20355929D01*
X11183031Y-20370214D01*
X11168746Y-20355929D01*
X11183031Y-20341643D01*
X11183031Y-20370214D01*
X11383031Y-20070214D02*
X11411603Y-20070214D01*
X11440174Y-20084500D01*
X11454460Y-20098786D01*
X11468745Y-20127357D01*
X11483031Y-20184500D01*
X11483031Y-20255929D01*
X11468745Y-20313072D01*
X11454460Y-20341643D01*
X11440174Y-20355929D01*
X11411603Y-20370214D01*
X11383031Y-20370214D01*
X11354460Y-20355929D01*
X11340174Y-20341643D01*
X11325888Y-20313072D01*
X11311603Y-20255929D01*
X11311603Y-20184500D01*
X11325888Y-20127357D01*
X11340174Y-20098786D01*
X11354460Y-20084500D01*
X11383031Y-20070214D01*
X11754460Y-20070214D02*
X11611603Y-20070214D01*
X11597317Y-20213072D01*
X11611603Y-20198786D01*
X11640174Y-20184500D01*
X11711603Y-20184500D01*
X11740174Y-20198786D01*
X11754460Y-20213072D01*
X11768745Y-20241643D01*
X11768745Y-20313072D01*
X11754460Y-20341643D01*
X11740174Y-20355929D01*
X11711603Y-20370214D01*
X11640174Y-20370214D01*
X11611603Y-20355929D01*
X11597317Y-20341643D01*
X12040174Y-20070214D02*
X11897317Y-20070214D01*
X11883031Y-20213072D01*
X11897317Y-20198786D01*
X11925888Y-20184500D01*
X11997317Y-20184500D01*
X12025888Y-20198786D01*
X12040174Y-20213072D01*
X12054460Y-20241643D01*
X12054460Y-20313072D01*
X12040174Y-20341643D01*
X12025888Y-20355929D01*
X11997317Y-20370214D01*
X11925888Y-20370214D01*
X11897317Y-20355929D01*
X11883031Y-20341643D01*
X12168746Y-20070214D02*
X12168746Y-20127357D01*
X12283031Y-20070214D02*
X12283031Y-20127357D01*
X12725888Y-20484500D02*
X12711603Y-20470214D01*
X12683031Y-20427357D01*
X12668745Y-20398786D01*
X12654460Y-20355929D01*
X12640174Y-20284500D01*
X12640174Y-20227357D01*
X12654460Y-20155929D01*
X12668745Y-20113072D01*
X12683031Y-20084500D01*
X12711603Y-20041643D01*
X12725888Y-20027357D01*
X12968745Y-20170214D02*
X12968745Y-20370214D01*
X12897317Y-20055929D02*
X12825888Y-20270214D01*
X13011603Y-20270214D01*
X13354460Y-20370214D02*
X13354460Y-20070214D01*
X13483031Y-20370214D02*
X13483031Y-20213072D01*
X13468745Y-20184500D01*
X13440174Y-20170214D01*
X13397317Y-20170214D01*
X13368745Y-20184500D01*
X13354460Y-20198786D01*
X13668745Y-20370214D02*
X13640174Y-20355929D01*
X13625888Y-20341643D01*
X13611603Y-20313072D01*
X13611603Y-20227357D01*
X13625888Y-20198786D01*
X13640174Y-20184500D01*
X13668745Y-20170214D01*
X13711603Y-20170214D01*
X13740174Y-20184500D01*
X13754460Y-20198786D01*
X13768745Y-20227357D01*
X13768745Y-20313072D01*
X13754460Y-20341643D01*
X13740174Y-20355929D01*
X13711603Y-20370214D01*
X13668745Y-20370214D01*
X13940174Y-20370214D02*
X13911603Y-20355929D01*
X13897317Y-20327357D01*
X13897317Y-20070214D01*
X14168746Y-20355929D02*
X14140174Y-20370214D01*
X14083031Y-20370214D01*
X14054460Y-20355929D01*
X14040174Y-20327357D01*
X14040174Y-20213072D01*
X14054460Y-20184500D01*
X14083031Y-20170214D01*
X14140174Y-20170214D01*
X14168746Y-20184500D01*
X14183031Y-20213072D01*
X14183031Y-20241643D01*
X14040174Y-20270214D01*
X14297317Y-20355929D02*
X14325888Y-20370214D01*
X14383031Y-20370214D01*
X14411603Y-20355929D01*
X14425888Y-20327357D01*
X14425888Y-20313072D01*
X14411603Y-20284500D01*
X14383031Y-20270214D01*
X14340174Y-20270214D01*
X14311603Y-20255929D01*
X14297317Y-20227357D01*
X14297317Y-20213072D01*
X14311603Y-20184500D01*
X14340174Y-20170214D01*
X14383031Y-20170214D01*
X14411603Y-20184500D01*
X14525888Y-20484500D02*
X14540174Y-20470214D01*
X14568746Y-20427357D01*
X14583031Y-20398786D01*
X14597317Y-20355929D01*
X14611603Y-20284500D01*
X14611603Y-20227357D01*
X14597317Y-20155929D01*
X14583031Y-20113072D01*
X14568746Y-20084500D01*
X14540174Y-20041643D01*
X14525888Y-20027357D01*
M02*
